  0
SECTION
  2
HEADER
  9
$ACADVER
  1
AC1009
  9
$LUNITS
 70
2
  9
$LUPREC
 70
4
  9
$LTSCALE
 40
1.0
  9
$EXTMIN
 10
0.692
 20
-7.2453
 30
0
  9
$EXTMAX
 10
7.3234
 20
-1.8211
 30
0
  0
ENDSEC
  0
SECTION
  2
TABLES
  0
TABLE
  2
LTYPE
 70
256
  0
ENDTAB
  0
TABLE
  2
LAYER
 70
6
  0
LAYER
  2
LAYER_1
 70
64
 62
7
  6
CONTINUOUS
  0
LAYER
  2
LAYER_2
 70
64
 62
-7
  6
CONTINUOUS
  0
LAYER
  2
LAYER_3
 70
64
 62
-7
  6
CONTINUOUS
  0
LAYER
  2
LAYER_4
 70
64
 62
-7
  6
CONTINUOUS
  0
LAYER
  2
LAYER_5
 70
64
 62
-7
  6
CONTINUOUS
  0
LAYER
  2
LAYER_6
 70
64
 62
-7
  6
CONTINUOUS
  0
ENDTAB
  0
TABLE
  2
STYLE
 70
6
  0
STYLE
  2
STANDARD
 70
0
 40
0
 50
0
 71
0
 41
0
 42
0
  3
TXT
  4
BIGFONT
  0
ENDTAB
  0
ENDSEC
  0
SECTION
  2
BLOCKS
  0
BLOCK
  8
LAYER_3
  2
AIGNBL03010002
 70
64
 10
0
 20
0
 30
0
  3
AIGNBL03010002
  0
LINE
  8
LAYER_3
 10
2.7933
 20
-2.067
 11
2.1429
 21
-2.067
  0
LINE
  8
LAYER_3
 10
2.1429
 20
-2.067
 11
2.1293
 21
-2.0617
  0
LINE
  8
LAYER_3
 10
2.1293
 20
-2.0617
 11
1.987
 21
-1.9309
  0
ARC
  8
LAYER_3
 10
2.0014
 20
-1.9162
 40
0.0206
 50
139.2925875
 51
225.580709
  0
ARC
  8
LAYER_3
 10
2.0005
 20
-1.9171
 40
0.0206
 50
49.29258753
 51
135.5807089
  0
LINE
  8
LAYER_3
 10
2.014
 20
-1.9015
 11
2.1507
 21
-2.027
  0
LINE
  8
LAYER_3
 10
2.1507
 20
-2.027
 11
2.7861
 21
-2.027
  0
LINE
  8
LAYER_3
 10
2.7861
 20
-2.027
 11
2.9379
 21
-1.9008
  0
ARC
  8
LAYER_3
 10
2.9506
 20
-1.9173
 40
0.0208
 50
41.82564071
 51
127.638965
  0
ARC
  8
LAYER_3
 10
2.9496
 20
-1.9161
 40
0.0208
 50
311.8348005
 51
37.62980526
  0
LINE
  8
LAYER_3
 10
2.9635
 20
-1.9316
 11
2.8061
 21
-2.0624
  0
LINE
  8
LAYER_3
 10
2.8061
 20
-2.0624
 11
2.7933
 21
-2.067
  0
LINE
  8
LAYER_3
 10
4.7738
 20
-2.067
 11
4.1233
 21
-2.067
  0
LINE
  8
LAYER_3
 10
4.1233
 20
-2.067
 11
4.1098
 21
-2.0617
  0
LINE
  8
LAYER_3
 10
4.1098
 20
-2.0617
 11
3.9674
 21
-1.9309
  0
ARC
  8
LAYER_3
 10
3.9821
 20
-1.9161
 40
0.0208
 50
139.7339965
 51
225.1393
  0
ARC
  8
LAYER_3
 10
3.981
 20
-1.9172
 40
0.0207
 50
49.36783552
 51
135.4882615
  0
LINE
  8
LAYER_3
 10
3.9945
 20
-1.9015
 11
4.1311
 21
-2.027
  0
LINE
  8
LAYER_3
 10
4.1311
 20
-2.027
 11
4.7666
 21
-2.027
  0
LINE
  8
LAYER_3
 10
4.7666
 20
-2.027
 11
4.9184
 21
-1.9008
  0
ARC
  8
LAYER_3
 10
4.9311
 20
-1.9174
 40
0.0209
 50
41.9778831
 51
127.4867226
  0
ARC
  8
LAYER_3
 10
4.9301
 20
-1.9161
 40
0.0208
 50
311.8348005
 51
37.62980526
  0
LINE
  8
LAYER_3
 10
4.944
 20
-1.9316
 11
4.7866
 21
-2.0624
  0
LINE
  8
LAYER_3
 10
4.7866
 20
-2.0624
 11
4.7738
 21
-2.067
  0
LINE
  8
LAYER_3
 10
6.7543
 20
-2.067
 11
6.1038
 21
-2.067
  0
LINE
  8
LAYER_3
 10
6.1038
 20
-2.067
 11
6.0903
 21
-2.0617
  0
LINE
  8
LAYER_3
 10
6.0903
 20
-2.0617
 11
5.9479
 21
-1.9309
  0
ARC
  8
LAYER_3
 10
5.9624
 20
-1.9162
 40
0.0207
 50
139.4439523
 51
225.4293442
  0
ARC
  8
LAYER_3
 10
5.9615
 20
-1.9173
 40
0.0208
 50
49.42592792
 51
135.4301691
  0
LINE
  8
LAYER_3
 10
5.975
 20
-1.9015
 11
6.1116
 21
-2.027
  0
LINE
  8
LAYER_3
 10
6.1116
 20
-2.027
 11
6.747
 21
-2.027
  0
LINE
  8
LAYER_3
 10
6.747
 20
-2.027
 11
6.8989
 21
-1.9008
  0
ARC
  8
LAYER_3
 10
6.9116
 20
-1.9174
 40
0.0209
 50
41.9778831
 51
127.4867226
  0
ARC
  8
LAYER_3
 10
6.9105
 20
-1.9161
 40
0.0209
 50
311.9778831
 51
37.48672263
  0
LINE
  8
LAYER_3
 10
6.9245
 20
-1.9316
 11
6.767
 21
-2.0624
  0
LINE
  8
LAYER_3
 10
6.767
 20
-2.0624
 11
6.7543
 21
-2.067
  0
LINE
  8
LAYER_3
 10
2.9907
 20
-2.1924
 11
2.9753
 21
-2.1852
  0
ARC
  8
LAYER_3
 10
2.992
 20
-2.1725
 40
0.021
 50
132.2606528
 51
217.203953
  0
LINE
  8
LAYER_3
 10
2.9779
 20
-2.157
 11
3.1354
 21
-2.0262
  0
LINE
  8
LAYER_3
 10
3.1354
 20
-2.0262
 11
3.1481
 21
-2.0216
  0
LINE
  8
LAYER_3
 10
3.1481
 20
-2.0216
 11
3.7986
 21
-2.0216
  0
LINE
  8
LAYER_3
 10
3.7986
 20
-2.0216
 11
3.8121
 21
-2.0269
  0
LINE
  8
LAYER_3
 10
3.8121
 20
-2.0269
 11
3.9545
 21
-2.1577
  0
ARC
  8
LAYER_3
 10
3.94
 20
-2.1724
 40
0.0207
 50
319.4439524
 51
45.42934412
  0
ARC
  8
LAYER_3
 10
3.9409
 20
-2.1712
 40
0.0208
 50
229.5751555
 51
315.2809415
  0
LINE
  8
LAYER_3
 10
3.9274
 20
-2.1871
 11
3.7908
 21
-2.0616
  0
LINE
  8
LAYER_3
 10
3.7908
 20
-2.0616
 11
3.1554
 21
-2.0616
  0
LINE
  8
LAYER_3
 10
3.1554
 20
-2.0616
 11
3.0035
 21
-2.1878
  0
LINE
  8
LAYER_3
 10
3.0035
 20
-2.1878
 11
2.9907
 21
-2.1924
  0
LINE
  8
LAYER_3
 10
1.0103
 20
-2.1924
 11
0.9949
 21
-2.1852
  0
ARC
  8
LAYER_3
 10
1.0114
 20
-2.1725
 40
0.0208
 50
131.8348004
 51
217.6298053
  0
LINE
  8
LAYER_3
 10
0.9975
 20
-2.157
 11
1.1549
 21
-2.0262
  0
LINE
  8
LAYER_3
 10
1.1549
 20
-2.0262
 11
1.1677
 21
-2.0216
  0
LINE
  8
LAYER_3
 10
1.1677
 20
-2.0216
 11
1.8181
 21
-2.0216
  0
LINE
  8
LAYER_3
 10
1.8181
 20
-2.0216
 11
1.8317
 21
-2.0269
  0
LINE
  8
LAYER_3
 10
1.8317
 20
-2.0269
 11
1.974
 21
-2.1577
  0
ARC
  8
LAYER_3
 10
1.9596
 20
-2.1724
 40
0.0206
 50
319.2925875
 51
45.58070895
  0
ARC
  8
LAYER_3
 10
1.9605
 20
-2.1714
 40
0.0207
 50
229.4439524
 51
315.4293441
  0
LINE
  8
LAYER_3
 10
1.947
 20
-2.1871
 11
1.8103
 21
-2.0616
  0
LINE
  8
LAYER_3
 10
1.8103
 20
-2.0616
 11
1.1749
 21
-2.0616
  0
LINE
  8
LAYER_3
 10
1.1749
 20
-2.0616
 11
1.023
 21
-2.1878
  0
LINE
  8
LAYER_3
 10
1.023
 20
-2.1878
 11
1.0103
 21
-2.1924
  0
LINE
  8
LAYER_3
 10
4.9712
 20
-2.1924
 11
4.9558
 21
-2.1852
  0
ARC
  8
LAYER_3
 10
4.9724
 20
-2.1725
 40
0.0209
 50
131.9778831
 51
217.4867227
  0
LINE
  8
LAYER_3
 10
4.9584
 20
-2.157
 11
5.1159
 21
-2.0262
  0
LINE
  8
LAYER_3
 10
5.1159
 20
-2.0262
 11
5.1286
 21
-2.0216
  0
LINE
  8
LAYER_3
 10
5.1286
 20
-2.0216
 11
5.7791
 21
-2.0216
  0
LINE
  8
LAYER_3
 10
5.7791
 20
-2.0216
 11
5.7926
 21
-2.0269
  0
LINE
  8
LAYER_3
 10
5.7926
 20
-2.0269
 11
5.935
 21
-2.1577
  0
ARC
  8
LAYER_3
 10
5.9205
 20
-2.1724
 40
0.0207
 50
319.4439524
 51
45.42934412
  0
ARC
  8
LAYER_3
 10
5.9214
 20
-2.1714
 40
0.0207
 50
229.3678355
 51
315.4882615
  0
LINE
  8
LAYER_3
 10
5.9079
 20
-2.1871
 11
5.7713
 21
-2.0616
  0
LINE
  8
LAYER_3
 10
5.7713
 20
-2.0616
 11
5.1359
 21
-2.0616
  0
LINE
  8
LAYER_3
 10
5.1359
 20
-2.0616
 11
4.984
 21
-2.1878
  0
LINE
  8
LAYER_3
 10
4.984
 20
-2.1878
 11
4.9712
 21
-2.1924
  0
ENDBLK
  0
BLOCK
  8
LAYER_3
  2
AIGNBL03010003
 70
64
 10
0
 20
0
 30
0
  3
AIGNBL03010003
  0
LINE
  8
LAYER_3
 10
2.8218
 20
-2.8998
 11
2.1713
 21
-2.8998
  0
LINE
  8
LAYER_3
 10
2.1713
 20
-2.8998
 11
2.1544
 21
-2.8932
  0
LINE
  8
LAYER_3
 10
2.1544
 20
-2.8932
 11
2.0121
 21
-2.7624
  0
ARC
  8
LAYER_3
 10
2.0302
 20
-2.7439
 40
0.0259
 50
139.3632815
 51
225.5031206
  0
ARC
  8
LAYER_3
 10
2.0291
 20
-2.7454
 40
0.026
 50
49.57291439
 51
135.2934877
  0
LINE
  8
LAYER_3
 10
2.0459
 20
-2.7256
 11
2.1811
 21
-2.8498
  0
LINE
  8
LAYER_3
 10
2.1811
 20
-2.8498
 11
2.8128
 21
-2.8498
  0
LINE
  8
LAYER_3
 10
2.8128
 20
-2.8498
 11
2.9632
 21
-2.7248
  0
ARC
  8
LAYER_3
 10
2.9791
 20
-2.7454
 40
0.026
 50
41.93167532
 51
127.6794668
  0
ARC
  8
LAYER_3
 10
2.9779
 20
-2.7439
 40
0.0259
 50
311.7865099
 51
37.82463231
  0
LINE
  8
LAYER_3
 10
2.9952
 20
-2.7632
 11
2.8378
 21
-2.894
  0
LINE
  8
LAYER_3
 10
2.8378
 20
-2.894
 11
2.8218
 21
-2.8998
  0
LINE
  8
LAYER_3
 10
4.8257
 20
-2.8998
 11
4.1753
 21
-2.8998
  0
LINE
  8
LAYER_3
 10
4.1753
 20
-2.8998
 11
4.1583
 21
-2.8932
  0
LINE
  8
LAYER_3
 10
4.1583
 20
-2.8932
 11
4.016
 21
-2.7624
  0
ARC
  8
LAYER_3
 10
4.0341
 20
-2.7439
 40
0.0259
 50
139.3632815
 51
225.5031206
  0
ARC
  8
LAYER_3
 10
4.033
 20
-2.7454
 40
0.026
 50
49.57291439
 51
135.2934877
  0
LINE
  8
LAYER_3
 10
4.0498
 20
-2.7256
 11
4.185
 21
-2.8498
  0
LINE
  8
LAYER_3
 10
4.185
 20
-2.8498
 11
4.8167
 21
-2.8498
  0
LINE
  8
LAYER_3
 10
4.8167
 20
-2.8498
 11
4.9672
 21
-2.7248
  0
ARC
  8
LAYER_3
 10
4.9831
 20
-2.7454
 40
0.026
 50
42.01127646
 51
127.5998657
  0
ARC
  8
LAYER_3
 10
4.9818
 20
-2.7438
 40
0.026
 50
311.8086402
 51
37.47970973
  0
LINE
  8
LAYER_3
 10
4.9991
 20
-2.7632
 11
4.8417
 21
-2.894
  0
LINE
  8
LAYER_3
 10
4.8417
 20
-2.894
 11
4.8257
 21
-2.8998
  0
LINE
  8
LAYER_3
 10
6.8262
 20
-2.8998
 11
6.1757
 21
-2.8998
  0
LINE
  8
LAYER_3
 10
6.1757
 20
-2.8998
 11
6.1588
 21
-2.8932
  0
LINE
  8
LAYER_3
 10
6.1588
 20
-2.8932
 11
6.0165
 21
-2.7624
  0
ARC
  8
LAYER_3
 10
6.0346
 20
-2.7439
 40
0.0259
 50
139.3632815
 51
225.5031206
  0
ARC
  8
LAYER_3
 10
6.0335
 20
-2.7454
 40
0.026
 50
49.57291439
 51
135.2934877
  0
LINE
  8
LAYER_3
 10
6.0503
 20
-2.7256
 11
6.1855
 21
-2.8498
  0
LINE
  8
LAYER_3
 10
6.1855
 20
-2.8498
 11
6.8172
 21
-2.8498
  0
LINE
  8
LAYER_3
 10
6.8172
 20
-2.8498
 11
6.9676
 21
-2.7248
  0
ARC
  8
LAYER_3
 10
6.9835
 20
-2.7454
 40
0.026
 50
41.96477006
 51
127.6463721
  0
ARC
  8
LAYER_3
 10
6.9823
 20
-2.7439
 40
0.0259
 50
311.7865099
 51
37.82463231
  0
LINE
  8
LAYER_3
 10
6.9996
 20
-2.7632
 11
6.8422
 21
-2.894
  0
LINE
  8
LAYER_3
 10
6.8422
 20
-2.894
 11
6.8262
 21
-2.8998
  0
LINE
  8
LAYER_3
 10
3.0292
 20
-3.0252
 11
3.01
 21
-3.0162
  0
ARC
  8
LAYER_3
 10
3.0306
 20
-3.0003
 40
0.026
 50
131.96477
 51
217.6463722
  0
LINE
  8
LAYER_3
 10
3.0132
 20
-2.981
 11
3.1706
 21
-2.8502
  0
LINE
  8
LAYER_3
 10
3.1706
 20
-2.8502
 11
3.1866
 21
-2.8444
  0
LINE
  8
LAYER_3
 10
3.1866
 20
-2.8444
 11
3.8371
 21
-2.8444
  0
LINE
  8
LAYER_3
 10
3.8371
 20
-2.8444
 11
3.854
 21
-2.851
  0
LINE
  8
LAYER_3
 10
3.854
 20
-2.851
 11
3.9964
 21
-2.9818
  0
ARC
  8
LAYER_3
 10
3.978
 20
-3.0003
 40
0.026
 50
319.7027086
 51
45.16369352
  0
ARC
  8
LAYER_3
 10
3.9794
 20
-2.9989
 40
0.026
 50
229.4405903
 51
315.4120813
  0
LINE
  8
LAYER_3
 10
3.9625
 20
-3.0186
 11
3.8273
 21
-2.8944
  0
LINE
  8
LAYER_3
 10
3.8273
 20
-2.8944
 11
3.1957
 21
-2.8944
  0
LINE
  8
LAYER_3
 10
3.1957
 20
-2.8944
 11
3.0452
 21
-3.0194
  0
LINE
  8
LAYER_3
 10
3.0452
 20
-3.0194
 11
3.0292
 21
-3.0252
  0
LINE
  8
LAYER_3
 10
1.0288
 20
-3.0252
 11
1.0095
 21
-3.0162
  0
ARC
  8
LAYER_3
 10
1.03
 20
-3.0004
 40
0.0259
 50
131.6367369
 51
217.6516131
  0
LINE
  8
LAYER_3
 10
1.0128
 20
-2.981
 11
1.1702
 21
-2.8502
  0
LINE
  8
LAYER_3
 10
1.1702
 20
-2.8502
 11
1.1862
 21
-2.8444
  0
LINE
  8
LAYER_3
 10
1.1862
 20
-2.8444
 11
1.8366
 21
-2.8444
  0
LINE
  8
LAYER_3
 10
1.8366
 20
-2.8444
 11
1.8535
 21
-2.851
  0
LINE
  8
LAYER_3
 10
1.8535
 20
-2.851
 11
1.9959
 21
-2.9818
  0
ARC
  8
LAYER_3
 10
1.9776
 20
-3.0003
 40
0.026
 50
319.5543574
 51
45.31204466
  0
ARC
  8
LAYER_3
 10
1.9789
 20
-2.999
 40
0.0259
 50
229.3443981
 51
315.522004
  0
LINE
  8
LAYER_3
 10
1.9621
 20
-3.0186
 11
1.8269
 21
-2.8944
  0
LINE
  8
LAYER_3
 10
1.8269
 20
-2.8944
 11
1.1952
 21
-2.8944
  0
LINE
  8
LAYER_3
 10
1.1952
 20
-2.8944
 11
1.0447
 21
-3.0194
  0
LINE
  8
LAYER_3
 10
1.0447
 20
-3.0194
 11
1.0288
 21
-3.0252
  0
LINE
  8
LAYER_3
 10
5.0331
 20
-3.0252
 11
5.0139
 21
-3.0162
  0
ARC
  8
LAYER_3
 10
5.0344
 20
-3.0004
 40
0.0259
 50
131.6367369
 51
217.6516131
  0
LINE
  8
LAYER_3
 10
5.0172
 20
-2.981
 11
5.1746
 21
-2.8502
  0
LINE
  8
LAYER_3
 10
5.1746
 20
-2.8502
 11
5.1905
 21
-2.8444
  0
LINE
  8
LAYER_3
 10
5.1905
 20
-2.8444
 11
5.841
 21
-2.8444
  0
LINE
  8
LAYER_3
 10
5.841
 20
-2.8444
 11
5.8579
 21
-2.851
  0
LINE
  8
LAYER_3
 10
5.8579
 20
-2.851
 11
6.0003
 21
-2.9818
  0
ARC
  8
LAYER_3
 10
5.982
 20
-3.0003
 40
0.026
 50
319.5543574
 51
45.31204466
  0
ARC
  8
LAYER_3
 10
5.9833
 20
-2.9989
 40
0.026
 50
229.5405795
 51
315.3258226
  0
LINE
  8
LAYER_3
 10
5.9665
 20
-3.0186
 11
5.8313
 21
-2.8944
  0
LINE
  8
LAYER_3
 10
5.8313
 20
-2.8944
 11
5.1996
 21
-2.8944
  0
LINE
  8
LAYER_3
 10
5.1996
 20
-2.8944
 11
5.0491
 21
-3.0194
  0
LINE
  8
LAYER_3
 10
5.0491
 20
-3.0194
 11
5.0331
 21
-3.0252
  0
ENDBLK
  0
BLOCK
  8
LAYER_6
  2
AIGNBL06010002
 70
64
 10
0
 20
0
 30
0
  3
AIGNBL06010002
  0
LINE
  8
LAYER_6
 10
2.122
 20
-2.069
 11
2.2644
 21
-2.1998
  0
LINE
  8
LAYER_6
 10
2.2644
 20
-2.1998
 11
2.9148
 21
-2.1998
  0
LINE
  8
LAYER_6
 10
2.9148
 20
-2.1998
 11
3.0723
 21
-2.069
  0
LINE
  8
LAYER_6
 10
4.0165
 20
-2.069
 11
4.1588
 21
-2.1998
  0
LINE
  8
LAYER_6
 10
4.1588
 20
-2.1998
 11
4.8093
 21
-2.1998
  0
LINE
  8
LAYER_6
 10
4.8093
 20
-2.1998
 11
4.9667
 21
-2.069
  0
LINE
  8
LAYER_6
 10
5.9139
 20
-2.069
 11
6.0563
 21
-2.1998
  0
LINE
  8
LAYER_6
 10
6.0563
 20
-2.1998
 11
6.7068
 21
-2.1998
  0
LINE
  8
LAYER_6
 10
6.7068
 20
-2.1998
 11
6.8642
 21
-2.069
  0
LINE
  8
LAYER_6
 10
4.0195
 20
-2.3252
 11
3.8771
 21
-2.1944
  0
LINE
  8
LAYER_6
 10
3.8771
 20
-2.1944
 11
3.2267
 21
-2.1944
  0
LINE
  8
LAYER_6
 10
3.2267
 20
-2.1944
 11
3.0693
 21
-2.3252
  0
LINE
  8
LAYER_6
 10
2.1125
 20
-2.3252
 11
1.9701
 21
-2.1944
  0
LINE
  8
LAYER_6
 10
1.9701
 20
-2.1944
 11
1.3197
 21
-2.1944
  0
LINE
  8
LAYER_6
 10
1.3197
 20
-2.1944
 11
1.1623
 21
-2.3252
  0
LINE
  8
LAYER_6
 10
5.9139
 20
-2.3252
 11
5.7716
 21
-2.1944
  0
LINE
  8
LAYER_6
 10
5.7716
 20
-2.1944
 11
5.1211
 21
-2.1944
  0
LINE
  8
LAYER_6
 10
5.1211
 20
-2.1944
 11
4.9637
 21
-2.3252
  0
ENDBLK
  0
BLOCK
  8
LAYER_6
  2
AIGNBL06010003
 70
64
 10
0
 20
0
 30
0
  3
AIGNBL06010003
  0
LINE
  8
LAYER_6
 10
2.122
 20
-3.0162
 11
2.2644
 21
-3.147
  0
LINE
  8
LAYER_6
 10
2.2644
 20
-3.147
 11
2.9148
 21
-3.147
  0
LINE
  8
LAYER_6
 10
2.9148
 20
-3.147
 11
3.0723
 21
-3.0162
  0
LINE
  8
LAYER_6
 10
4.0165
 20
-3.0162
 11
4.1588
 21
-3.147
  0
LINE
  8
LAYER_6
 10
4.1588
 20
-3.147
 11
4.8093
 21
-3.147
  0
LINE
  8
LAYER_6
 10
4.8093
 20
-3.147
 11
4.9667
 21
-3.0162
  0
LINE
  8
LAYER_6
 10
5.9139
 20
-3.0162
 11
6.0563
 21
-3.147
  0
LINE
  8
LAYER_6
 10
6.0563
 20
-3.147
 11
6.7068
 21
-3.147
  0
LINE
  8
LAYER_6
 10
6.7068
 20
-3.147
 11
6.8642
 21
-3.0162
  0
LINE
  8
LAYER_6
 10
4.0195
 20
-3.2724
 11
3.8771
 21
-3.1416
  0
LINE
  8
LAYER_6
 10
3.8771
 20
-3.1416
 11
3.2267
 21
-3.1416
  0
LINE
  8
LAYER_6
 10
3.2267
 20
-3.1416
 11
3.0693
 21
-3.2724
  0
LINE
  8
LAYER_6
 10
2.1125
 20
-3.2724
 11
1.9701
 21
-3.1416
  0
LINE
  8
LAYER_6
 10
1.9701
 20
-3.1416
 11
1.3197
 21
-3.1416
  0
LINE
  8
LAYER_6
 10
1.3197
 20
-3.1416
 11
1.1623
 21
-3.2724
  0
LINE
  8
LAYER_6
 10
5.9139
 20
-3.2724
 11
5.7716
 21
-3.1416
  0
LINE
  8
LAYER_6
 10
5.7716
 20
-3.1416
 11
5.1211
 21
-3.1416
  0
LINE
  8
LAYER_6
 10
5.1211
 20
-3.1416
 11
4.9637
 21
-3.2724
  0
ENDBLK
  0
BLOCK
  8
LAYER_6
  2
AIGNBL06010004
 70
64
 10
0
 20
0
 30
0
  3
AIGNBL06010004
  0
LINE
  8
LAYER_6
 10
2.122
 20
-3.9634
 11
2.2644
 21
-4.0942
  0
LINE
  8
LAYER_6
 10
2.2644
 20
-4.0942
 11
2.9148
 21
-4.0942
  0
LINE
  8
LAYER_6
 10
2.9148
 20
-4.0942
 11
3.0723
 21
-3.9634
  0
LINE
  8
LAYER_6
 10
4.0165
 20
-3.9634
 11
4.1588
 21
-4.0942
  0
LINE
  8
LAYER_6
 10
4.1588
 20
-4.0942
 11
4.8093
 21
-4.0942
  0
LINE
  8
LAYER_6
 10
4.8093
 20
-4.0942
 11
4.9667
 21
-3.9634
  0
LINE
  8
LAYER_6
 10
5.9139
 20
-3.9634
 11
6.0563
 21
-4.0942
  0
LINE
  8
LAYER_6
 10
6.0563
 20
-4.0942
 11
6.7068
 21
-4.0942
  0
LINE
  8
LAYER_6
 10
6.7068
 20
-4.0942
 11
6.8642
 21
-3.9634
  0
LINE
  8
LAYER_6
 10
4.0195
 20
-4.2196
 11
3.8771
 21
-4.0889
  0
LINE
  8
LAYER_6
 10
3.8771
 20
-4.0889
 11
3.2267
 21
-4.0889
  0
LINE
  8
LAYER_6
 10
3.2267
 20
-4.0889
 11
3.0693
 21
-4.2196
  0
LINE
  8
LAYER_6
 10
2.1125
 20
-4.2196
 11
1.9701
 21
-4.0889
  0
LINE
  8
LAYER_6
 10
1.9701
 20
-4.0889
 11
1.3197
 21
-4.0889
  0
LINE
  8
LAYER_6
 10
1.3197
 20
-4.0889
 11
1.1623
 21
-4.2196
  0
LINE
  8
LAYER_6
 10
5.9139
 20
-4.2196
 11
5.7716
 21
-4.0889
  0
LINE
  8
LAYER_6
 10
5.7716
 20
-4.0889
 11
5.1211
 21
-4.0889
  0
LINE
  8
LAYER_6
 10
5.1211
 20
-4.0889
 11
4.9637
 21
-4.2196
  0
ENDBLK
  0
BLOCK
  8
LAYER_6
  2
AIGNBL06010005
 70
64
 10
0
 20
0
 30
0
  3
AIGNBL06010005
  0
LINE
  8
LAYER_6
 10
2.122
 20
-4.9107
 11
2.2644
 21
-5.0415
  0
LINE
  8
LAYER_6
 10
2.2644
 20
-5.0415
 11
2.9148
 21
-5.0415
  0
LINE
  8
LAYER_6
 10
2.9148
 20
-5.0415
 11
3.0723
 21
-4.9107
  0
LINE
  8
LAYER_6
 10
4.0165
 20
-4.9107
 11
4.1588
 21
-5.0415
  0
LINE
  8
LAYER_6
 10
4.1588
 20
-5.0415
 11
4.8093
 21
-5.0415
  0
LINE
  8
LAYER_6
 10
4.8093
 20
-5.0415
 11
4.9667
 21
-4.9107
  0
LINE
  8
LAYER_6
 10
5.9139
 20
-4.9107
 11
6.0563
 21
-5.0415
  0
LINE
  8
LAYER_6
 10
6.0563
 20
-5.0415
 11
6.7068
 21
-5.0415
  0
LINE
  8
LAYER_6
 10
6.7068
 20
-5.0415
 11
6.8642
 21
-4.9107
  0
LINE
  8
LAYER_6
 10
4.0195
 20
-5.1669
 11
3.8771
 21
-5.0361
  0
LINE
  8
LAYER_6
 10
3.8771
 20
-5.0361
 11
3.2267
 21
-5.0361
  0
LINE
  8
LAYER_6
 10
3.2267
 20
-5.0361
 11
3.0693
 21
-5.1669
  0
LINE
  8
LAYER_6
 10
2.1125
 20
-5.1669
 11
1.9701
 21
-5.0361
  0
LINE
  8
LAYER_6
 10
1.9701
 20
-5.0361
 11
1.3197
 21
-5.0361
  0
LINE
  8
LAYER_6
 10
1.3197
 20
-5.0361
 11
1.1623
 21
-5.1669
  0
LINE
  8
LAYER_6
 10
5.9139
 20
-5.1669
 11
5.7716
 21
-5.0361
  0
LINE
  8
LAYER_6
 10
5.7716
 20
-5.0361
 11
5.1211
 21
-5.0361
  0
LINE
  8
LAYER_6
 10
5.1211
 20
-5.0361
 11
4.9637
 21
-5.1669
  0
ENDBLK
  0
BLOCK
  8
LAYER_6
  2
AIGNBL06010006
 70
64
 10
0
 20
0
 30
0
  3
AIGNBL06010006
  0
LINE
  8
LAYER_6
 10
2.122
 20
-5.8579
 11
2.2644
 21
-5.9887
  0
LINE
  8
LAYER_6
 10
2.2644
 20
-5.9887
 11
2.9148
 21
-5.9887
  0
LINE
  8
LAYER_6
 10
2.9148
 20
-5.9887
 11
3.0723
 21
-5.8579
  0
LINE
  8
LAYER_6
 10
4.0165
 20
-5.8579
 11
4.1588
 21
-5.9887
  0
LINE
  8
LAYER_6
 10
4.1588
 20
-5.9887
 11
4.8093
 21
-5.9887
  0
LINE
  8
LAYER_6
 10
4.8093
 20
-5.9887
 11
4.9667
 21
-5.8579
  0
LINE
  8
LAYER_6
 10
5.9139
 20
-5.8579
 11
6.0563
 21
-5.9887
  0
LINE
  8
LAYER_6
 10
6.0563
 20
-5.9887
 11
6.7068
 21
-5.9887
  0
LINE
  8
LAYER_6
 10
6.7068
 20
-5.9887
 11
6.8642
 21
-5.8579
  0
LINE
  8
LAYER_6
 10
4.0195
 20
-6.1141
 11
3.8771
 21
-5.9833
  0
LINE
  8
LAYER_6
 10
3.8771
 20
-5.9833
 11
3.2267
 21
-5.9833
  0
LINE
  8
LAYER_6
 10
3.2267
 20
-5.9833
 11
3.0693
 21
-6.1141
  0
LINE
  8
LAYER_6
 10
2.1125
 20
-6.1141
 11
1.9701
 21
-5.9833
  0
LINE
  8
LAYER_6
 10
1.9701
 20
-5.9833
 11
1.3197
 21
-5.9833
  0
LINE
  8
LAYER_6
 10
1.3197
 20
-5.9833
 11
1.1623
 21
-6.1141
  0
LINE
  8
LAYER_6
 10
5.9139
 20
-6.1141
 11
5.7716
 21
-5.9833
  0
LINE
  8
LAYER_6
 10
5.7716
 20
-5.9833
 11
5.1211
 21
-5.9833
  0
LINE
  8
LAYER_6
 10
5.1211
 20
-5.9833
 11
4.9637
 21
-6.1141
  0
ENDBLK
  0
BLOCK
  8
LAYER_6
  2
AIGNBL06010007
 70
64
 10
0
 20
0
 30
0
  3
AIGNBL06010007
  0
LINE
  8
LAYER_6
 10
2.122
 20
-6.8051
 11
2.2644
 21
-6.9359
  0
LINE
  8
LAYER_6
 10
2.2644
 20
-6.9359
 11
2.9148
 21
-6.9359
  0
LINE
  8
LAYER_6
 10
2.9148
 20
-6.9359
 11
3.0723
 21
-6.8051
  0
LINE
  8
LAYER_6
 10
4.0165
 20
-6.8051
 11
4.1588
 21
-6.9359
  0
LINE
  8
LAYER_6
 10
4.1588
 20
-6.9359
 11
4.8093
 21
-6.9359
  0
LINE
  8
LAYER_6
 10
4.8093
 20
-6.9359
 11
4.9667
 21
-6.8051
  0
LINE
  8
LAYER_6
 10
5.9139
 20
-6.8051
 11
6.0563
 21
-6.9359
  0
LINE
  8
LAYER_6
 10
6.0563
 20
-6.9359
 11
6.7068
 21
-6.9359
  0
LINE
  8
LAYER_6
 10
6.7068
 20
-6.9359
 11
6.8642
 21
-6.8051
  0
LINE
  8
LAYER_6
 10
4.0195
 20
-7.0613
 11
3.8771
 21
-6.9306
  0
LINE
  8
LAYER_6
 10
3.8771
 20
-6.9306
 11
3.2267
 21
-6.9306
  0
LINE
  8
LAYER_6
 10
3.2267
 20
-6.9306
 11
3.0693
 21
-7.0613
  0
LINE
  8
LAYER_6
 10
2.1125
 20
-7.0613
 11
1.9701
 21
-6.9306
  0
LINE
  8
LAYER_6
 10
1.9701
 20
-6.9306
 11
1.3197
 21
-6.9306
  0
LINE
  8
LAYER_6
 10
1.3197
 20
-6.9306
 11
1.1623
 21
-7.0613
  0
LINE
  8
LAYER_6
 10
5.9139
 20
-7.0613
 11
5.7716
 21
-6.9306
  0
LINE
  8
LAYER_6
 10
5.7716
 20
-6.9306
 11
5.1211
 21
-6.9306
  0
LINE
  8
LAYER_6
 10
5.1211
 20
-6.9306
 11
4.9637
 21
-7.0613
  0
ENDBLK
  0
ENDSEC
  0
SECTION
  2
ENTITIES
  0
LINE
  8
LAYER_1
 10
2.702
 20
-2.0823
 11
2.0515
 21
-2.0823
  0
ARC
  8
LAYER_1
 10
2.0516
 20
-2.0396
 40
0.0427
 50
227.5485206
 51
269.8156549
  0
LINE
  8
LAYER_1
 10
2.0228
 20
-2.0711
 11
1.8804
 21
-1.9403
  0
ARC
  8
LAYER_1
 10
1.9091
 20
-1.9091
 40
0.0425
 50
137.384263
 51
227.3876251
  0
ARC
  8
LAYER_1
 10
1.9092
 20
-1.9091
 40
0.0425
 50
47.41009384
 51
137.3617942
  0
LINE
  8
LAYER_1
 10
1.9379
 20
-1.8778
 11
2.0681
 21
-1.9973
  0
LINE
  8
LAYER_1
 10
2.0681
 20
-1.9973
 11
2.6866
 21
-1.9973
  0
LINE
  8
LAYER_1
 10
2.6866
 20
-1.9973
 11
2.8322
 21
-1.8764
  0
ARC
  8
LAYER_1
 10
2.8594
 20
-1.909
 40
0.0425
 50
39.67842018
 51
129.8292378
  0
ARC
  8
LAYER_1
 10
2.8594
 20
-1.909
 40
0.0425
 50
309.6670081
 51
39.63321413
  0
LINE
  8
LAYER_1
 10
2.8865
 20
-1.9417
 11
2.7291
 21
-2.0725
  0
ARC
  8
LAYER_1
 10
2.7019
 20
-2.0395
 40
0.0428
 50
270.1928923
 51
309.5694819
  0
LINE
  8
LAYER_1
 10
4.7874
 20
-2.0823
 11
4.137
 21
-2.0823
  0
ARC
  8
LAYER_1
 10
4.137
 20
-2.0396
 40
0.0427
 50
227.5512866
 51
269.9477024
  0
LINE
  8
LAYER_1
 10
4.1082
 20
-2.0711
 11
3.9659
 21
-1.9403
  0
ARC
  8
LAYER_1
 10
3.9946
 20
-1.909
 40
0.0425
 50
137.4878558
 51
227.4746738
  0
ARC
  8
LAYER_1
 10
3.9946
 20
-1.9091
 40
0.0425
 50
47.34112244
 51
137.4228348
  0
LINE
  8
LAYER_1
 10
4.0234
 20
-1.8778
 11
4.1535
 21
-1.9973
  0
LINE
  8
LAYER_1
 10
4.1535
 20
-1.9973
 11
4.7721
 21
-1.9973
  0
LINE
  8
LAYER_1
 10
4.7721
 20
-1.9973
 11
4.9177
 21
-1.8764
  0
ARC
  8
LAYER_1
 10
4.9448
 20
-1.9091
 40
0.0425
 50
39.77368065
 51
129.7165297
  0
ARC
  8
LAYER_1
 10
4.9448
 20
-1.909
 40
0.0425
 50
309.7526325
 51
39.73757792
  0
LINE
  8
LAYER_1
 10
4.972
 20
-1.9417
 11
4.8146
 21
-2.0725
  0
ARC
  8
LAYER_1
 10
4.7873
 20
-2.0393
 40
0.043
 50
270.1889044
 51
309.4386821
  0
LINE
  8
LAYER_1
 10
6.8579
 20
-2.0823
 11
6.2074
 21
-2.0823
  0
ARC
  8
LAYER_1
 10
6.2075
 20
-2.0396
 40
0.0427
 50
227.5485206
 51
269.8156549
  0
LINE
  8
LAYER_1
 10
6.1787
 20
-2.0711
 11
6.0363
 21
-1.9403
  0
ARC
  8
LAYER_1
 10
6.0651
 20
-1.909
 40
0.0425
 50
137.4146474
 51
227.3572407
  0
ARC
  8
LAYER_1
 10
6.065
 20
-1.909
 40
0.0425
 50
47.37621417
 51
137.3956739
  0
LINE
  8
LAYER_1
 10
6.0938
 20
-1.8778
 11
6.224
 21
-1.9973
  0
LINE
  8
LAYER_1
 10
6.224
 20
-1.9973
 11
6.8425
 21
-1.9973
  0
LINE
  8
LAYER_1
 10
6.8425
 20
-1.9973
 11
6.9881
 21
-1.8764
  0
ARC
  8
LAYER_1
 10
7.0153
 20
-1.9091
 40
0.0425
 50
39.71055145
 51
129.7971065
  0
ARC
  8
LAYER_1
 10
7.0153
 20
-1.909
 40
0.0425
 50
309.7847566
 51
39.70545378
  0
LINE
  8
LAYER_1
 10
7.0425
 20
-1.9417
 11
6.8851
 21
-2.0725
  0
LINE
  8
LAYER_1
 10
6.8851
 20
-2.0725
 11
6.8579
 21
-2.0823
  0
ARC
  8
LAYER_1
 10
2.9496
 20
-2.1647
 40
0.043
 50
220.0865851
 51
269.7645763
  0
ARC
  8
LAYER_1
 10
2.9494
 20
-2.1653
 40
0.0425
 50
129.7701115
 51
219.7200989
  0
LINE
  8
LAYER_1
 10
2.9222
 20
-2.1326
 11
3.0796
 21
-2.0018
  0
ARC
  8
LAYER_1
 10
3.1069
 20
-2.035
 40
0.043
 50
90.19190191
 51
129.4356846
  0
LINE
  8
LAYER_1
 10
3.1068
 20
-1.992
 11
3.7572
 21
-1.992
  0
ARC
  8
LAYER_1
 10
3.7572
 20
-2.0347
 40
0.0427
 50
47.55128661
 51
89.94770236
  0
LINE
  8
LAYER_1
 10
3.786
 20
-2.0032
 11
3.9284
 21
-2.1339
  0
ARC
  8
LAYER_1
 10
3.8996
 20
-2.1652
 40
0.0425
 50
317.3777522
 51
47.38620508
  0
ARC
  8
LAYER_1
 10
3.8996
 20
-2.1652
 40
0.0425
 50
227.4121441
 51
317.3597439
  0
LINE
  8
LAYER_1
 10
3.8709
 20
-2.1965
 11
3.7407
 21
-2.077
  0
LINE
  8
LAYER_1
 10
3.7407
 20
-2.077
 11
3.1221
 21
-2.077
  0
LINE
  8
LAYER_1
 10
3.1221
 20
-2.077
 11
2.9765
 21
-2.1979
  0
LINE
  8
LAYER_1
 10
2.9765
 20
-2.1979
 11
2.9494
 21
-2.2077
  0
ARC
  8
LAYER_1
 10
0.8501
 20
-2.1647
 40
0.043
 50
220.0865851
 51
269.7645763
  0
ARC
  8
LAYER_1
 10
0.8498
 20
-2.1652
 40
0.0425
 50
129.7351237
 51
219.7550867
  0
LINE
  8
LAYER_1
 10
0.8227
 20
-2.1326
 11
0.9801
 21
-2.0018
  0
ARC
  8
LAYER_1
 10
1.0073
 20
-2.0348
 40
0.0428
 50
90.19289224
 51
129.5694819
  0
LINE
  8
LAYER_1
 10
1.0072
 20
-1.992
 11
1.6577
 21
-1.992
  0
ARC
  8
LAYER_1
 10
1.6574
 20
-2.0353
 40
0.0433
 50
47.86364453
 51
89.63534443
  0
LINE
  8
LAYER_1
 10
1.6865
 20
-2.0032
 11
1.8288
 21
-2.1339
  0
ARC
  8
LAYER_1
 10
1.8001
 20
-2.1652
 40
0.0425
 50
317.4583628
 51
47.49592002
  0
ARC
  8
LAYER_1
 10
1.8001
 20
-2.1652
 40
0.0425
 50
227.3483218
 51
317.4156355
  0
LINE
  8
LAYER_1
 10
1.7713
 20
-2.1965
 11
1.6411
 21
-2.077
  0
LINE
  8
LAYER_1
 10
1.6411
 20
-2.077
 11
1.0226
 21
-2.077
  0
LINE
  8
LAYER_1
 10
1.0226
 20
-2.077
 11
0.877
 21
-2.1979
  0
LINE
  8
LAYER_1
 10
0.877
 20
-2.1979
 11
0.8499
 21
-2.2077
  0
ARC
  8
LAYER_1
 10
5.0301
 20
-2.1647
 40
0.043
 50
220.0865851
 51
269.7645763
  0
ARC
  8
LAYER_1
 10
5.0298
 20
-2.1652
 40
0.0425
 50
129.7362615
 51
219.7539489
  0
LINE
  8
LAYER_1
 10
5.0027
 20
-2.1326
 11
5.1601
 21
-2.0018
  0
ARC
  8
LAYER_1
 10
5.1873
 20
-2.0348
 40
0.0428
 50
90.19289224
 51
129.5694819
  0
LINE
  8
LAYER_1
 10
5.1872
 20
-1.992
 11
5.8377
 21
-1.992
  0
ARC
  8
LAYER_1
 10
5.8374
 20
-2.0353
 40
0.0433
 50
47.86364453
 51
89.63534443
  0
LINE
  8
LAYER_1
 10
5.8665
 20
-2.0032
 11
6.0088
 21
-2.1339
  0
ARC
  8
LAYER_1
 10
5.9801
 20
-2.1652
 40
0.0425
 50
317.4748535
 51
47.47942929
  0
ARC
  8
LAYER_1
 10
5.9801
 20
-2.1652
 40
0.0425
 50
227.3734076
 51
317.3905498
  0
LINE
  8
LAYER_1
 10
5.9513
 20
-2.1965
 11
5.8211
 21
-2.077
  0
LINE
  8
LAYER_1
 10
5.8211
 20
-2.077
 11
5.2026
 21
-2.077
  0
LINE
  8
LAYER_1
 10
5.2026
 20
-2.077
 11
5.057
 21
-2.1979
  0
LINE
  8
LAYER_1
 10
5.057
 20
-2.1979
 11
5.0299
 21
-2.2077
  0
LINE
  8
LAYER_1
 10
2.7422
 20
-2.9139
 11
2.0917
 21
-2.9139
  0
ARC
  8
LAYER_1
 10
2.0921
 20
-2.8654
 40
0.0485
 50
227.9168592
 51
269.5304576
  0
LINE
  8
LAYER_1
 10
2.0596
 20
-2.9014
 11
1.9172
 21
-2.7706
  0
ARC
  8
LAYER_1
 10
1.9494
 20
-2.7356
 40
0.0475
 50
137.4163943
 51
227.3625972
  0
ARC
  8
LAYER_1
 10
1.9494
 20
-2.7356
 40
0.0475
 50
47.49135976
 51
137.4581014
  0
LINE
  8
LAYER_1
 10
1.9815
 20
-2.7006
 11
2.1102
 21
-2.8189
  0
LINE
  8
LAYER_1
 10
2.1102
 20
-2.8189
 11
2.725
 21
-2.8189
  0
LINE
  8
LAYER_1
 10
2.725
 20
-2.8189
 11
2.8692
 21
-2.6991
  0
ARC
  8
LAYER_1
 10
2.8996
 20
-2.7356
 40
0.0475
 50
39.80520468
 51
129.7750503
  0
ARC
  8
LAYER_1
 10
2.8996
 20
-2.7356
 40
0.0475
 50
309.7874772
 51
39.79277782
  0
LINE
  8
LAYER_1
 10
2.93
 20
-2.7721
 11
2.7726
 21
-2.9029
  0
ARC
  8
LAYER_1
 10
2.742
 20
-2.8659
 40
0.048
 50
270.1991781
 51
309.585336
  0
LINE
  8
LAYER_1
 10
4.8377
 20
-2.9139
 11
4.1872
 21
-2.9139
  0
ARC
  8
LAYER_1
 10
4.1875
 20
-2.8653
 40
0.0486
 50
227.9533235
 51
269.6143757
  0
LINE
  8
LAYER_1
 10
4.155
 20
-2.9014
 11
4.0127
 21
-2.7706
  0
ARC
  8
LAYER_1
 10
4.0448
 20
-2.7356
 40
0.0475
 50
137.5028339
 51
227.4466273
  0
ARC
  8
LAYER_1
 10
4.0448
 20
-2.7356
 40
0.0475
 50
47.43977512
 51
137.5023299
  0
LINE
  8
LAYER_1
 10
4.077
 20
-2.7006
 11
4.2057
 21
-2.8189
  0
LINE
  8
LAYER_1
 10
4.2057
 20
-2.8189
 11
4.8205
 21
-2.8189
  0
LINE
  8
LAYER_1
 10
4.8205
 20
-2.8189
 11
4.9647
 21
-2.6991
  0
ARC
  8
LAYER_1
 10
4.9951
 20
-2.7356
 40
0.0475
 50
39.7954292
 51
129.7848257
  0
ARC
  8
LAYER_1
 10
4.9951
 20
-2.7356
 40
0.0475
 50
309.6882892
 51
39.72211339
  0
LINE
  8
LAYER_1
 10
5.0254
 20
-2.7721
 11
4.868
 21
-2.9029
  0
ARC
  8
LAYER_1
 10
4.8375
 20
-2.8662
 40
0.0477
 50
270.2132787
 51
309.6921915
  0
LINE
  8
LAYER_1
 10
6.9331
 20
-2.9139
 11
6.2826
 21
-2.9139
  0
ARC
  8
LAYER_1
 10
6.283
 20
-2.8654
 40
0.0485
 50
227.9168592
 51
269.5304576
  0
LINE
  8
LAYER_1
 10
6.2505
 20
-2.9014
 11
6.1082
 21
-2.7706
  0
ARC
  8
LAYER_1
 10
6.1403
 20
-2.7356
 40
0.0475
 50
137.4631322
 51
227.4863289
  0
ARC
  8
LAYER_1
 10
6.1404
 20
-2.7381
 40
0.0493
 50
49.55194396
 51
135.3975172
  0
LINE
  8
LAYER_1
 10
6.1724
 20
-2.7006
 11
6.3011
 21
-2.8189
  0
LINE
  8
LAYER_1
 10
6.3011
 20
-2.8189
 11
6.916
 21
-2.8189
  0
LINE
  8
LAYER_1
 10
6.916
 20
-2.8189
 11
7.0602
 21
-2.6991
  0
ARC
  8
LAYER_1
 10
7.0906
 20
-2.7356
 40
0.0475
 50
39.81924448
 51
129.7610105
  0
ARC
  8
LAYER_1
 10
7.0905
 20
-2.7355
 40
0.0475
 50
309.7205649
 51
39.68983766
  0
LINE
  8
LAYER_1
 10
7.1209
 20
-2.7721
 11
6.9635
 21
-2.9029
  0
ARC
  8
LAYER_1
 10
6.9329
 20
-2.8659
 40
0.048
 50
270.1991781
 51
309.585336
  0
ARC
  8
LAYER_1
 10
2.9948
 20
-2.9915
 40
0.0478
 50
219.800274
 51
269.7370162
  0
ARC
  8
LAYER_1
 10
2.9946
 20
-2.9918
 40
0.0475
 50
129.8289258
 51
219.7358168
  0
LINE
  8
LAYER_1
 10
2.9642
 20
-2.9553
 11
3.1216
 21
-2.8245
  0
ARC
  8
LAYER_1
 10
3.1522
 20
-2.8615
 40
0.048
 50
90.19917806
 51
129.585336
  0
LINE
  8
LAYER_1
 10
3.152
 20
-2.8135
 11
3.8025
 21
-2.8135
  0
ARC
  8
LAYER_1
 10
3.8021
 20
-2.862
 40
0.0485
 50
47.91685923
 51
89.53045762
  0
LINE
  8
LAYER_1
 10
3.8346
 20
-2.826
 11
3.977
 21
-2.9568
  0
ARC
  8
LAYER_1
 10
3.9448
 20
-2.9918
 40
0.0475
 50
317.4131938
 51
47.36579767
  0
ARC
  8
LAYER_1
 10
3.9448
 20
-2.9918
 40
0.0475
 50
227.4890785
 51
317.4603827
  0
LINE
  8
LAYER_1
 10
3.9127
 20
-3.0268
 11
3.784
 21
-2.9085
  0
LINE
  8
LAYER_1
 10
3.784
 20
-2.9085
 11
3.1692
 21
-2.9085
  0
LINE
  8
LAYER_1
 10
3.1692
 20
-2.9085
 11
3.025
 21
-3.0283
  0
ARC
  8
LAYER_1
 10
2.9944
 20
-2.9913
 40
0.048
 50
270.1918302
 51
309.592684
  0
ARC
  8
LAYER_1
 10
0.8993
 20
-2.9915
 40
0.0478
 50
219.8092494
 51
269.8488306
  0
ARC
  8
LAYER_1
 10
0.8991
 20
-2.9918
 40
0.0475
 50
129.734919
 51
219.6597211
  0
LINE
  8
LAYER_1
 10
0.8688
 20
-2.9553
 11
1.0262
 21
-2.8245
  0
ARC
  8
LAYER_1
 10
1.0568
 20
-2.8615
 40
0.048
 50
90.19872691
 51
129.5857872
  0
LINE
  8
LAYER_1
 10
1.0566
 20
-2.8135
 11
1.707
 21
-2.8135
  0
ARC
  8
LAYER_1
 10
1.7067
 20
-2.8621
 40
0.0486
 50
47.95332352
 51
89.61437572
  0
LINE
  8
LAYER_1
 10
1.7392
 20
-2.826
 11
1.8815
 21
-2.9568
  0
ARC
  8
LAYER_1
 10
1.8494
 20
-2.9918
 40
0.0475
 50
317.5016727
 51
47.44778845
  0
ARC
  8
LAYER_1
 10
1.8494
 20
-2.9918
 40
0.0475
 50
227.4430346
 51
317.4990704
  0
LINE
  8
LAYER_1
 10
1.8172
 20
-3.0268
 11
1.6885
 21
-2.9085
  0
LINE
  8
LAYER_1
 10
1.6885
 20
-2.9085
 11
1.0737
 21
-2.9085
  0
LINE
  8
LAYER_1
 10
1.0737
 20
-2.9085
 11
0.9295
 21
-3.0283
  0
ARC
  8
LAYER_1
 10
0.899
 20
-2.9916
 40
0.0477
 50
270.1883427
 51
309.7171274
  0
ARC
  8
LAYER_1
 10
5.0953
 20
-2.9914
 40
0.0479
 50
219.8654005
 51
269.7926794
  0
ARC
  8
LAYER_1
 10
5.0951
 20
-2.9918
 40
0.0475
 50
129.7418058
 51
219.6528344
  0
LINE
  8
LAYER_1
 10
5.0647
 20
-2.9553
 11
5.2221
 21
-2.8245
  0
ARC
  8
LAYER_1
 10
5.2527
 20
-2.8615
 40
0.048
 50
90.19872691
 51
129.5857872
  0
LINE
  8
LAYER_1
 10
5.2525
 20
-2.8135
 11
5.9029
 21
-2.8135
  0
ARC
  8
LAYER_1
 10
5.9026
 20
-2.8621
 40
0.0486
 50
47.95332352
 51
89.61437572
  0
LINE
  8
LAYER_1
 10
5.9351
 20
-2.826
 11
6.0774
 21
-2.9568
  0
ARC
  8
LAYER_1
 10
6.0453
 20
-2.9918
 40
0.0475
 50
317.4916324
 51
47.45782876
  0
ARC
  8
LAYER_1
 10
6.0453
 20
-2.9918
 40
0.0475
 50
227.4676798
 51
317.4817814
  0
LINE
  8
LAYER_1
 10
6.0132
 20
-3.0268
 11
5.8844
 21
-2.9085
  0
LINE
  8
LAYER_1
 10
5.8844
 20
-2.9085
 11
5.2696
 21
-2.9085
  0
LINE
  8
LAYER_1
 10
5.2696
 20
-2.9085
 11
5.1254
 21
-3.0283
  0
ARC
  8
LAYER_1
 10
5.0949
 20
-2.9916
 40
0.0477
 50
270.1883427
 51
309.7171274
  0
LINE
  8
LAYER_1
 10
2.7272
 20
-3.7454
 11
2.0767
 21
-3.7454
  0
ARC
  8
LAYER_1
 10
2.0769
 20
-3.6924
 40
0.053
 50
227.7168562
 51
269.7977108
  0
LINE
  8
LAYER_1
 10
2.0412
 20
-3.7316
 11
1.8989
 21
-3.6008
  0
ARC
  8
LAYER_1
 10
1.9344
 20
-3.5621
 40
0.0525
 50
137.44465
 51
227.4942436
  0
ARC
  8
LAYER_1
 10
1.9344
 20
-3.5622
 40
0.0525
 50
47.40241808
 51
137.3823173
  0
LINE
  8
LAYER_1
 10
1.9699
 20
-3.5235
 11
2.0972
 21
-3.6404
  0
LINE
  8
LAYER_1
 10
2.0972
 20
-3.6404
 11
2.7082
 21
-3.6404
  0
LINE
  8
LAYER_1
 10
2.7082
 20
-3.6404
 11
2.851
 21
-3.5218
  0
ARC
  8
LAYER_1
 10
2.8846
 20
-3.5622
 40
0.0525
 50
39.72113253
 51
129.778322
  0
ARC
  8
LAYER_1
 10
2.8846
 20
-3.5621
 40
0.0525
 50
309.7815025
 51
39.70382245
  0
LINE
  8
LAYER_1
 10
2.9182
 20
-3.6025
 11
2.7608
 21
-3.7333
  0
ARC
  8
LAYER_1
 10
2.727
 20
-3.6922
 40
0.0532
 50
270.1941068
 51
309.4157222
  0
LINE
  8
LAYER_1
 10
4.8377
 20
-3.7454
 11
4.1872
 21
-3.7454
  0
ARC
  8
LAYER_1
 10
4.1872
 20
-3.6929
 40
0.0525
 50
227.4695072
 51
270.0450598
  0
LINE
  8
LAYER_1
 10
4.1517
 20
-3.7316
 11
4.0093
 21
-3.6008
  0
ARC
  8
LAYER_1
 10
4.0448
 20
-3.5622
 40
0.0525
 50
137.386511
 51
227.3982244
  0
ARC
  8
LAYER_1
 10
4.0449
 20
-3.5622
 40
0.0525
 50
47.40983851
 51
137.3748968
  0
LINE
  8
LAYER_1
 10
4.0804
 20
-3.5235
 11
4.2076
 21
-3.6404
  0
LINE
  8
LAYER_1
 10
4.2076
 20
-3.6404
 11
4.8187
 21
-3.6404
  0
LINE
  8
LAYER_1
 10
4.8187
 20
-3.6404
 11
4.9615
 21
-3.5218
  0
ARC
  8
LAYER_1
 10
4.995
 20
-3.5622
 40
0.0525
 50
39.76313482
 51
129.7221901
  0
ARC
  8
LAYER_1
 10
4.9951
 20
-3.5622
 40
0.0525
 50
309.7400344
 51
39.7452906
  0
LINE
  8
LAYER_1
 10
5.0286
 20
-3.6025
 11
4.8712
 21
-3.7333
  0
ARC
  8
LAYER_1
 10
4.8375
 20
-3.6924
 40
0.053
 50
270.2134971
 51
309.5053371
  0
LINE
  8
LAYER_1
 10
6.9481
 20
-3.7454
 11
6.2976
 21
-3.7454
  0
ARC
  8
LAYER_1
 10
6.2978
 20
-3.6924
 40
0.053
 50
227.7168562
 51
269.7977108
  0
LINE
  8
LAYER_1
 10
6.2621
 20
-3.7316
 11
6.1198
 21
-3.6008
  0
ARC
  8
LAYER_1
 10
6.1553
 20
-3.5621
 40
0.0525
 50
137.4514422
 51
227.4874514
  0
ARC
  8
LAYER_1
 10
6.1553
 20
-3.5622
 40
0.0525
 50
47.39542977
 51
137.3893056
  0
LINE
  8
LAYER_1
 10
6.1908
 20
-3.5235
 11
6.3181
 21
-3.6404
  0
LINE
  8
LAYER_1
 10
6.3181
 20
-3.6404
 11
6.9292
 21
-3.6404
  0
LINE
  8
LAYER_1
 10
6.9292
 20
-3.6404
 11
7.072
 21
-3.5218
  0
ARC
  8
LAYER_1
 10
7.1053
 20
-3.565
 40
0.0545
 50
41.87599964
 51
127.6093253
  0
ARC
  8
LAYER_1
 10
7.1055
 20
-3.5621
 40
0.0525
 50
309.7691543
 51
39.71617065
  0
LINE
  8
LAYER_1
 10
7.1391
 20
-3.6025
 11
6.9817
 21
-3.7333
  0
ARC
  8
LAYER_1
 10
6.9479
 20
-3.6922
 40
0.0532
 50
270.1941068
 51
309.4157222
  0
ARC
  8
LAYER_1
 10
2.9898
 20
-3.8177
 40
0.0531
 50
220.1151818
 51
269.7423843
  0
ARC
  8
LAYER_1
 10
2.9896
 20
-3.8184
 40
0.0525
 50
129.6552404
 51
219.6763426
  0
LINE
  8
LAYER_1
 10
2.9561
 20
-3.778
 11
3.1135
 21
-3.6472
  0
ARC
  8
LAYER_1
 10
3.1472
 20
-3.6881
 40
0.053
 50
90.21349712
 51
129.505337
  0
LINE
  8
LAYER_1
 10
3.147
 20
-3.6351
 11
3.7975
 21
-3.6351
  0
ARC
  8
LAYER_1
 10
3.7973
 20
-3.6881
 40
0.053
 50
47.71685616
 51
89.79771078
  0
LINE
  8
LAYER_1
 10
3.833
 20
-3.6489
 11
3.9753
 21
-3.7797
  0
ARC
  8
LAYER_1
 10
3.9398
 20
-3.8184
 40
0.0525
 50
317.4473299
 51
47.49156366
  0
ARC
  8
LAYER_1
 10
3.9399
 20
-3.8184
 40
0.0525
 50
227.3677599
 51
317.4169755
  0
LINE
  8
LAYER_1
 10
3.9043
 20
-3.857
 11
3.777
 21
-3.7401
  0
LINE
  8
LAYER_1
 10
3.777
 20
-3.7401
 11
3.166
 21
-3.7401
  0
LINE
  8
LAYER_1
 10
3.166
 20
-3.7401
 11
3.0232
 21
-3.8587
  0
ARC
  8
LAYER_1
 10
2.9895
 20
-3.8178
 40
0.053
 50
270.1278486
 51
309.4819804
  0
ARC
  8
LAYER_1
 10
0.8793
 20
-3.8181
 40
0.0527
 50
219.9140535
 51
269.9435126
  0
ARC
  8
LAYER_1
 10
0.8791
 20
-3.8183
 40
0.0525
 50
129.7261684
 51
219.7591566
  0
LINE
  8
LAYER_1
 10
0.8456
 20
-3.778
 11
1.003
 21
-3.6472
  0
ARC
  8
LAYER_1
 10
1.0368
 20
-3.6883
 40
0.0532
 50
90.19113724
 51
129.4186917
  0
LINE
  8
LAYER_1
 10
1.0366
 20
-3.6351
 11
1.687
 21
-3.6351
  0
ARC
  8
LAYER_1
 10
1.6868
 20
-3.6881
 40
0.053
 50
47.67834078
 51
89.83622616
  0
LINE
  8
LAYER_1
 10
1.7225
 20
-3.6489
 11
1.8649
 21
-3.7797
  0
ARC
  8
LAYER_1
 10
1.8294
 20
-3.8183
 40
0.0525
 50
317.3768813
 51
47.40785412
  0
ARC
  8
LAYER_1
 10
1.8294
 20
-3.8184
 40
0.0525
 50
227.4198293
 51
317.3713557
  0
LINE
  8
LAYER_1
 10
1.7939
 20
-3.857
 11
1.6666
 21
-3.7401
  0
LINE
  8
LAYER_1
 10
1.6666
 20
-3.7401
 11
1.0555
 21
-3.7401
  0
LINE
  8
LAYER_1
 10
1.0555
 20
-3.7401
 11
0.9127
 21
-3.8587
  0
ARC
  8
LAYER_1
 10
0.8791
 20
-3.818
 40
0.0528
 50
270.1515708
 51
309.5672634
  0
ARC
  8
LAYER_1
 10
5.1003
 20
-3.8178
 40
0.053
 50
220.0587015
 51
269.7988646
  0
ARC
  8
LAYER_1
 10
5.1001
 20
-3.8184
 40
0.0525
 50
129.7465984
 51
219.7387266
  0
LINE
  8
LAYER_1
 10
5.0665
 20
-3.778
 11
5.2239
 21
-3.6472
  0
ARC
  8
LAYER_1
 10
5.2577
 20
-3.6883
 40
0.0532
 50
90.19113724
 51
129.4186917
  0
LINE
  8
LAYER_1
 10
5.2575
 20
-3.6351
 11
5.9079
 21
-3.6351
  0
ARC
  8
LAYER_1
 10
5.9077
 20
-3.6881
 40
0.053
 50
47.67834078
 51
89.83622616
  0
LINE
  8
LAYER_1
 10
5.9434
 20
-3.6489
 11
6.0858
 21
-3.7797
  0
ARC
  8
LAYER_1
 10
6.0503
 20
-3.8183
 40
0.0525
 50
317.3626774
 51
47.42205801
  0
ARC
  8
LAYER_1
 10
6.0503
 20
-3.8183
 40
0.0525
 50
227.4521992
 51
317.3389858
  0
LINE
  8
LAYER_1
 10
6.0148
 20
-3.857
 11
5.8875
 21
-3.7401
  0
LINE
  8
LAYER_1
 10
5.8875
 20
-3.7401
 11
5.2764
 21
-3.7401
  0
LINE
  8
LAYER_1
 10
5.2764
 20
-3.7401
 11
5.1336
 21
-3.8587
  0
ARC
  8
LAYER_1
 10
5.1
 20
-3.818
 40
0.0528
 50
270.1515708
 51
309.5672634
  0
LINE
  8
LAYER_1
 10
2.7047
 20
-4.577
 11
2.0542
 21
-4.577
  0
ARC
  8
LAYER_1
 10
2.0544
 20
-4.5191
 40
0.0579
 50
227.4993532
 51
269.8149483
  0
LINE
  8
LAYER_1
 10
2.0153
 20
-4.5618
 11
1.873
 21
-4.431
  0
ARC
  8
LAYER_1
 10
1.9119
 20
-4.3886
 40
0.0575
 50
137.475196
 51
227.4610399
  0
ARC
  8
LAYER_1
 10
1.9118
 20
-4.3887
 40
0.0575
 50
47.3563302
 51
137.4331458
  0
LINE
  8
LAYER_1
 10
1.9508
 20
-4.3464
 11
2.0766
 21
-4.462
  0
LINE
  8
LAYER_1
 10
2.0766
 20
-4.462
 11
2.6839
 21
-4.462
  0
LINE
  8
LAYER_1
 10
2.6839
 20
-4.462
 11
2.8253
 21
-4.3445
  0
ARC
  8
LAYER_1
 10
2.8621
 20
-4.3887
 40
0.0575
 50
39.79044935
 51
129.7696725
  0
ARC
  8
LAYER_1
 10
2.8621
 20
-4.3887
 40
0.0575
 50
309.6728056
 51
39.74703197
  0
LINE
  8
LAYER_1
 10
2.8988
 20
-4.4329
 11
2.7414
 21
-4.5637
  0
ARC
  8
LAYER_1
 10
2.7045
 20
-4.5192
 40
0.0578
 50
270.1967387
 51
309.6440733
  0
LINE
  8
LAYER_1
 10
4.8452
 20
-4.577
 11
4.1947
 21
-4.577
  0
ARC
  8
LAYER_1
 10
4.1949
 20
-4.5191
 40
0.0579
 50
227.4993532
 51
269.8149483
  0
LINE
  8
LAYER_1
 10
4.1558
 20
-4.5618
 11
4.0134
 21
-4.431
  0
ARC
  8
LAYER_1
 10
4.0523
 20
-4.3887
 40
0.0575
 50
137.4216726
 51
227.373695
  0
ARC
  8
LAYER_1
 10
4.0523
 20
-4.3887
 40
0.0575
 50
47.39493713
 51
137.4004304
  0
LINE
  8
LAYER_1
 10
4.0912
 20
-4.3464
 11
4.2171
 21
-4.462
  0
LINE
  8
LAYER_1
 10
4.2171
 20
-4.462
 11
4.8244
 21
-4.462
  0
LINE
  8
LAYER_1
 10
4.8244
 20
-4.462
 11
4.9658
 21
-4.3445
  0
ARC
  8
LAYER_1
 10
5.0026
 20
-4.3887
 40
0.0575
 50
39.786822
 51
129.7732999
  0
ARC
  8
LAYER_1
 10
5.0026
 20
-4.3887
 40
0.0575
 50
309.6982611
 51
39.72157646
  0
LINE
  8
LAYER_1
 10
5.0393
 20
-4.4329
 11
4.8819
 21
-4.5637
  0
ARC
  8
LAYER_1
 10
4.845
 20
-4.5192
 40
0.0578
 50
270.1967387
 51
309.6440733
  0
LINE
  8
LAYER_1
 10
6.9806
 20
-4.577
 11
6.3301
 21
-4.577
  0
ARC
  8
LAYER_1
 10
6.3305
 20
-4.5187
 40
0.0583
 50
227.6730293
 51
269.6412723
  0
LINE
  8
LAYER_1
 10
6.2912
 20
-4.5618
 11
6.1489
 21
-4.431
  0
ARC
  8
LAYER_1
 10
6.1878
 20
-4.3886
 40
0.0575
 50
137.4937069
 51
227.442529
  0
ARC
  8
LAYER_1
 10
6.1877
 20
-4.3887
 40
0.0575
 50
47.35243717
 51
137.4370388
  0
LINE
  8
LAYER_1
 10
6.2267
 20
-4.3464
 11
6.3526
 21
-4.462
  0
LINE
  8
LAYER_1
 10
6.3526
 20
-4.462
 11
6.9599
 21
-4.462
  0
LINE
  8
LAYER_1
 10
6.9599
 20
-4.462
 11
7.1013
 21
-4.3445
  0
ARC
  8
LAYER_1
 10
7.1381
 20
-4.3887
 40
0.0575
 50
39.78930005
 51
129.7708218
  0
ARC
  8
LAYER_1
 10
7.138
 20
-4.3886
 40
0.0575
 50
309.7251223
 51
39.69471529
  0
LINE
  8
LAYER_1
 10
7.1748
 20
-4.4329
 11
7.0174
 21
-4.5637
  0
ARC
  8
LAYER_1
 10
6.9804
 20
-4.5188
 40
0.0582
 50
270.2101628
 51
309.5308707
  0
ARC
  8
LAYER_1
 10
2.9824
 20
-4.6444
 40
0.058
 50
219.8749595
 51
269.7227933
  0
ARC
  8
LAYER_1
 10
2.9821
 20
-4.6449
 40
0.0575
 50
129.8109503
 51
219.7363383
  0
LINE
  8
LAYER_1
 10
2.9453
 20
-4.6007
 11
3.1028
 21
-4.4699
  0
ARC
  8
LAYER_1
 10
3.1397
 20
-4.5144
 40
0.0578
 50
90.19673868
 51
129.6440732
  0
LINE
  8
LAYER_1
 10
3.1395
 20
-4.4566
 11
3.79
 21
-4.4566
  0
ARC
  8
LAYER_1
 10
3.7898
 20
-4.5145
 40
0.0579
 50
47.49935322
 51
89.81494829
  0
LINE
  8
LAYER_1
 10
3.8289
 20
-4.4718
 11
3.9712
 21
-4.6026
  0
ARC
  8
LAYER_1
 10
3.9323
 20
-4.645
 40
0.0575
 50
317.481601
 51
47.4546348
  0
ARC
  8
LAYER_1
 10
3.9324
 20
-4.6449
 40
0.0575
 50
227.3536653
 51
317.4358108
  0
LINE
  8
LAYER_1
 10
3.8934
 20
-4.6872
 11
3.7676
 21
-4.5716
  0
LINE
  8
LAYER_1
 10
3.7676
 20
-4.5716
 11
3.1603
 21
-4.5716
  0
LINE
  8
LAYER_1
 10
3.1603
 20
-4.5716
 11
3.0188
 21
-4.6891
  0
ARC
  8
LAYER_1
 10
2.9819
 20
-4.6446
 40
0.0578
 50
270.1830202
 51
309.6577918
  0
ARC
  8
LAYER_1
 10
0.8471
 20
-4.644
 40
0.0584
 50
220.062795
 51
269.6346568
  0
ARC
  8
LAYER_1
 10
0.8466
 20
-4.6449
 40
0.0575
 50
129.7267782
 51
219.6800557
  0
LINE
  8
LAYER_1
 10
0.8099
 20
-4.6007
 11
0.9673
 21
-4.4699
  0
ARC
  8
LAYER_1
 10
1.0042
 20
-4.5144
 40
0.0578
 50
90.19673868
 51
129.6440732
  0
LINE
  8
LAYER_1
 10
1.004
 20
-4.4566
 11
1.6545
 21
-4.4566
  0
ARC
  8
LAYER_1
 10
1.6543
 20
-4.5145
 40
0.0579
 50
47.49935322
 51
89.81494829
  0
LINE
  8
LAYER_1
 10
1.6934
 20
-4.4718
 11
1.8358
 21
-4.6026
  0
ARC
  8
LAYER_1
 10
1.7969
 20
-4.6449
 40
0.0575
 50
317.418909
 51
47.37645852
  0
ARC
  8
LAYER_1
 10
1.7969
 20
-4.6449
 40
0.0575
 50
227.3926247
 51
317.4027428
  0
LINE
  8
LAYER_1
 10
1.758
 20
-4.6872
 11
1.6321
 21
-4.5716
  0
LINE
  8
LAYER_1
 10
1.6321
 20
-4.5716
 11
1.0248
 21
-4.5716
  0
LINE
  8
LAYER_1
 10
1.0248
 20
-4.5716
 11
0.8834
 21
-4.6891
  0
ARC
  8
LAYER_1
 10
0.8465
 20
-4.6445
 40
0.0579
 50
270.2235974
 51
309.6172145
  0
ARC
  8
LAYER_1
 10
5.123
 20
-4.644
 40
0.0584
 50
220.062795
 51
269.6346568
  0
ARC
  8
LAYER_1
 10
5.1226
 20
-4.6449
 40
0.0575
 50
129.7504458
 51
219.656388
  0
LINE
  8
LAYER_1
 10
5.0858
 20
-4.6007
 11
5.2432
 21
-4.4699
  0
ARC
  8
LAYER_1
 10
5.2802
 20
-4.5146
 40
0.058
 50
90.1696496
 51
129.5713838
  0
LINE
  8
LAYER_1
 10
5.28
 20
-4.4566
 11
5.9304
 21
-4.4566
  0
ARC
  8
LAYER_1
 10
5.9302
 20
-4.5145
 40
0.0579
 50
47.49935322
 51
89.81494829
  0
LINE
  8
LAYER_1
 10
5.9693
 20
-4.4718
 11
6.1117
 21
-4.6026
  0
ARC
  8
LAYER_1
 10
6.0728
 20
-4.6449
 40
0.0575
 50
317.4053066
 51
47.39006094
  0
ARC
  8
LAYER_1
 10
6.0728
 20
-4.6449
 40
0.0575
 50
227.3873714
 51
317.4079962
  0
LINE
  8
LAYER_1
 10
6.0339
 20
-4.6872
 11
5.908
 21
-4.5716
  0
LINE
  8
LAYER_1
 10
5.908
 20
-4.5716
 11
5.3007
 21
-4.5716
  0
LINE
  8
LAYER_1
 10
5.3007
 20
-4.5716
 11
5.1593
 21
-4.6891
  0
ARC
  8
LAYER_1
 10
5.1224
 20
-4.6445
 40
0.0579
 50
270.2178795
 51
309.6229324
  0
LINE
  8
LAYER_1
 10
2.6922
 20
-5.4085
 11
2.0417
 21
-5.4085
  0
ARC
  8
LAYER_1
 10
2.0419
 20
-5.3452
 40
0.0633
 50
227.818555
 51
269.7981381
  0
LINE
  8
LAYER_1
 10
1.9994
 20
-5.3921
 11
1.8571
 21
-5.2613
  0
ARC
  8
LAYER_1
 10
1.8994
 20
-5.2152
 40
0.0625
 50
137.4757044
 51
227.4527147
  0
ARC
  8
LAYER_1
 10
1.8994
 20
-5.2153
 40
0.0625
 50
47.48236192
 51
137.4460571
  0
LINE
  8
LAYER_1
 10
1.9416
 20
-5.1692
 11
2.0661
 21
-5.2835
  0
LINE
  8
LAYER_1
 10
2.0661
 20
-5.2835
 11
2.6696
 21
-5.2835
  0
LINE
  8
LAYER_1
 10
2.6696
 20
-5.2835
 11
2.8096
 21
-5.1672
  0
ARC
  8
LAYER_1
 10
2.8496
 20
-5.2153
 40
0.0625
 50
39.72787098
 51
129.766006
  0
ARC
  8
LAYER_1
 10
2.8496
 20
-5.2152
 40
0.0625
 50
309.6710842
 51
39.68181067
  0
LINE
  8
LAYER_1
 10
2.8895
 20
-5.2633
 11
2.7321
 21
-5.3941
  0
ARC
  8
LAYER_1
 10
2.692
 20
-5.3455
 40
0.063
 50
270.1863842
 51
309.5028709
  0
LINE
  8
LAYER_1
 10
4.8477
 20
-5.4085
 11
4.1972
 21
-5.4085
  0
ARC
  8
LAYER_1
 10
4.1972
 20
-5.3457
 40
0.0628
 50
227.6270162
 51
269.9896769
  0
LINE
  8
LAYER_1
 10
4.1549
 20
-5.3921
 11
4.0125
 21
-5.2613
  0
ARC
  8
LAYER_1
 10
4.0548
 20
-5.2153
 40
0.0625
 50
137.4207489
 51
227.3781285
  0
ARC
  8
LAYER_1
 10
4.0549
 20
-5.2153
 40
0.0625
 50
47.47482677
 51
137.4535923
  0
LINE
  8
LAYER_1
 10
4.0971
 20
-5.1692
 11
4.2215
 21
-5.2835
  0
LINE
  8
LAYER_1
 10
4.2215
 20
-5.2835
 11
4.8251
 21
-5.2835
  0
LINE
  8
LAYER_1
 10
4.8251
 20
-5.2835
 11
4.9651
 21
-5.1672
  0
ARC
  8
LAYER_1
 10
5.005
 20
-5.2153
 40
0.0625
 50
39.7452757
 51
129.7367294
  0
ARC
  8
LAYER_1
 10
5.0051
 20
-5.2153
 40
0.0625
 50
309.7281044
 51
39.75390072
  0
LINE
  8
LAYER_1
 10
5.045
 20
-5.2633
 11
4.8876
 21
-5.3941
  0
ARC
  8
LAYER_1
 10
4.8475
 20
-5.3453
 40
0.0632
 50
270.2252267
 51
309.4640284
  0
LINE
  8
LAYER_1
 10
6.9981
 20
-5.4085
 11
6.3476
 21
-5.4085
  0
ARC
  8
LAYER_1
 10
6.3477
 20
-5.3457
 40
0.0628
 50
227.6211006
 51
269.9040988
  0
LINE
  8
LAYER_1
 10
6.3054
 20
-5.3921
 11
6.163
 21
-5.2613
  0
ARC
  8
LAYER_1
 10
6.2053
 20
-5.2153
 40
0.0625
 50
137.3915857
 51
227.4072918
  0
ARC
  8
LAYER_1
 10
6.2054
 20
-5.2153
 40
0.0625
 50
47.47744081
 51
137.4509782
  0
LINE
  8
LAYER_1
 10
6.2476
 20
-5.1692
 11
6.372
 21
-5.2835
  0
LINE
  8
LAYER_1
 10
6.372
 20
-5.2835
 11
6.9755
 21
-5.2835
  0
LINE
  8
LAYER_1
 10
6.9755
 20
-5.2835
 11
7.1156
 21
-5.1672
  0
ARC
  8
LAYER_1
 10
7.1552
 20
-5.2186
 40
0.0649
 50
41.84240113
 51
127.639604
  0
ARC
  8
LAYER_1
 10
7.1555
 20
-5.2152
 40
0.0625
 50
309.7498619
 51
39.73214323
  0
LINE
  8
LAYER_1
 10
7.1955
 20
-5.2633
 11
7.0381
 21
-5.3941
  0
ARC
  8
LAYER_1
 10
6.9979
 20
-5.3451
 40
0.0634
 50
270.2022128
 51
309.3955399
  0
ARC
  8
LAYER_1
 10
2.9749
 20
-5.4707
 40
0.0632
 50
220.0907714
 51
269.771149
  0
ARC
  8
LAYER_1
 10
2.9746
 20
-5.4715
 40
0.0625
 50
129.6619402
 51
219.6909547
  0
LINE
  8
LAYER_1
 10
2.9347
 20
-5.4234
 11
3.0921
 21
-5.2926
  0
ARC
  8
LAYER_1
 10
3.1322
 20
-5.3412
 40
0.063
 50
90.1863842
 51
129.5028709
  0
LINE
  8
LAYER_1
 10
3.132
 20
-5.2782
 11
3.7825
 21
-5.2782
  0
ARC
  8
LAYER_1
 10
3.7824
 20
-5.341
 40
0.0628
 50
47.62110055
 51
89.90409874
  0
LINE
  8
LAYER_1
 10
3.8247
 20
-5.2946
 11
3.9671
 21
-5.4254
  0
ARC
  8
LAYER_1
 10
3.9248
 20
-5.4715
 40
0.0625
 50
317.4807034
 51
47.44771566
  0
ARC
  8
LAYER_1
 10
3.9248
 20
-5.4714
 40
0.0625
 50
227.4377566
 51
317.4850942
  0
LINE
  8
LAYER_1
 10
3.8825
 20
-5.5175
 11
3.7581
 21
-5.4032
  0
LINE
  8
LAYER_1
 10
3.7581
 20
-5.4032
 11
3.1546
 21
-5.4032
  0
LINE
  8
LAYER_1
 10
3.1546
 20
-5.4032
 11
3.0145
 21
-5.5195
  0
ARC
  8
LAYER_1
 10
2.9744
 20
-5.471
 40
0.0629
 50
270.1369693
 51
309.5522859
  0
ARC
  8
LAYER_1
 10
0.8243
 20
-5.4711
 40
0.0628
 50
219.932912
 51
269.9290084
  0
ARC
  8
LAYER_1
 10
0.8241
 20
-5.4714
 40
0.0625
 50
129.7296601
 51
219.752345
  0
LINE
  8
LAYER_1
 10
0.7842
 20
-5.4234
 11
0.9416
 21
-5.2926
  0
ARC
  8
LAYER_1
 10
0.9817
 20
-5.3414
 40
0.0632
 50
90.2252267
 51
129.4640284
  0
LINE
  8
LAYER_1
 10
0.9815
 20
-5.2782
 11
1.632
 21
-5.2782
  0
ARC
  8
LAYER_1
 10
1.632
 20
-5.341
 40
0.0628
 50
47.62701619
 51
89.98967692
  0
LINE
  8
LAYER_1
 10
1.6743
 20
-5.2946
 11
1.8166
 21
-5.4254
  0
ARC
  8
LAYER_1
 10
1.7744
 20
-5.4714
 40
0.0625
 50
317.459512
 51
47.46890702
  0
ARC
  8
LAYER_1
 10
1.7743
 20
-5.4714
 40
0.0625
 50
227.465256
 51
317.4631631
  0
LINE
  8
LAYER_1
 10
1.7321
 20
-5.5175
 11
1.6076
 21
-5.4032
  0
LINE
  8
LAYER_1
 10
1.6076
 20
-5.4032
 11
1.0041
 21
-5.4032
  0
LINE
  8
LAYER_1
 10
1.0041
 20
-5.4032
 11
0.8641
 21
-5.5195
  0
ARC
  8
LAYER_1
 10
0.824
 20
-5.4709
 40
0.063
 50
270.1866885
 51
309.5025666
  0
ARC
  8
LAYER_1
 10
5.1302
 20
-5.4709
 40
0.063
 50
219.9859967
 51
269.8759237
  0
ARC
  8
LAYER_1
 10
5.13
 20
-5.4714
 40
0.0625
 50
129.7393311
 51
219.7426741
  0
LINE
  8
LAYER_1
 10
5.0901
 20
-5.4234
 11
5.2475
 21
-5.2926
  0
ARC
  8
LAYER_1
 10
5.2877
 20
-5.3416
 40
0.0634
 50
90.19430253
 51
129.4034501
  0
LINE
  8
LAYER_1
 10
5.2875
 20
-5.2782
 11
5.9379
 21
-5.2782
  0
ARC
  8
LAYER_1
 10
5.9379
 20
-5.341
 40
0.0628
 50
47.62701619
 51
89.98967692
  0
LINE
  8
LAYER_1
 10
5.9802
 20
-5.2946
 11
6.1226
 21
-5.4254
  0
ARC
  8
LAYER_1
 10
6.0803
 20
-5.4714
 40
0.0625
 50
317.4109142
 51
47.38796327
  0
ARC
  8
LAYER_1
 10
6.0801
 20
-5.4682
 40
0.0649
 50
229.5217413
 51
315.4066778
  0
LINE
  8
LAYER_1
 10
6.038
 20
-5.5175
 11
5.9136
 21
-5.4032
  0
LINE
  8
LAYER_1
 10
5.9136
 20
-5.4032
 11
5.31
 21
-5.4032
  0
LINE
  8
LAYER_1
 10
5.31
 20
-5.4032
 11
5.17
 21
-5.5195
  0
ARC
  8
LAYER_1
 10
5.1299
 20
-5.471
 40
0.0629
 50
270.1479583
 51
309.5412969
  0
LINE
  8
LAYER_1
 10
2.6972
 20
-6.2401
 11
2.0467
 21
-6.2401
  0
ARC
  8
LAYER_1
 10
2.0471
 20
-6.1719
 40
0.0682
 50
227.6522385
 51
269.701299
  0
LINE
  8
LAYER_1
 10
2.0011
 20
-6.2223
 11
1.8587
 21
-6.0915
  0
ARC
  8
LAYER_1
 10
1.9044
 20
-6.0418
 40
0.0675
 50
137.3856995
 51
227.4161654
  0
ARC
  8
LAYER_1
 10
1.9044
 20
-6.0418
 40
0.0675
 50
47.43113295
 51
137.3757647
  0
LINE
  8
LAYER_1
 10
1.95
 20
-5.9921
 11
2.073
 21
-6.1051
  0
LINE
  8
LAYER_1
 10
2.073
 20
-6.1051
 11
2.6728
 21
-6.1051
  0
LINE
  8
LAYER_1
 10
2.6728
 20
-6.1051
 11
2.8115
 21
-5.9899
  0
ARC
  8
LAYER_1
 10
2.8546
 20
-6.0418
 40
0.0675
 50
39.71584028
 51
129.6995678
  0
ARC
  8
LAYER_1
 10
2.8546
 20
-6.0418
 40
0.0675
 50
309.7171285
 51
39.69827957
  0
LINE
  8
LAYER_1
 10
2.8977
 20
-6.0937
 11
2.7403
 21
-6.2245
  0
ARC
  8
LAYER_1
 10
2.697
 20
-6.1722
 40
0.0679
 50
270.1598393
 51
309.6355011
  0
LINE
  8
LAYER_1
 10
4.8713
 20
-6.2401
 11
4.2208
 21
-6.2401
  0
ARC
  8
LAYER_1
 10
4.2213
 20
-6.1713
 40
0.0688
 50
227.8301325
 51
269.6083669
  0
LINE
  8
LAYER_1
 10
4.1751
 20
-6.2223
 11
4.0328
 21
-6.0915
  0
ARC
  8
LAYER_1
 10
4.0784
 20
-6.0418
 40
0.0675
 50
137.4536318
 51
227.4681339
  0
ARC
  8
LAYER_1
 10
4.0784
 20
-6.0418
 40
0.0675
 50
47.39652781
 51
137.4053371
  0
LINE
  8
LAYER_1
 10
4.1241
 20
-5.9921
 11
4.2471
 21
-6.1051
  0
LINE
  8
LAYER_1
 10
4.2471
 20
-6.1051
 11
4.8469
 21
-6.1051
  0
LINE
  8
LAYER_1
 10
4.8469
 20
-6.1051
 11
4.9855
 21
-5.9899
  0
ARC
  8
LAYER_1
 10
5.0287
 20
-6.0418
 40
0.0675
 50
39.70248599
 51
129.7239889
  0
ARC
  8
LAYER_1
 10
5.0287
 20
-6.0418
 40
0.0675
 50
309.7358623
 51
39.67954579
  0
LINE
  8
LAYER_1
 10
5.0718
 20
-6.0937
 11
4.9144
 21
-6.2245
  0
ARC
  8
LAYER_1
 10
4.8711
 20
-6.1721
 40
0.068
 50
270.2006554
 51
309.594685
  0
LINE
  8
LAYER_1
 10
7.0417
 20
-6.2401
 11
6.3913
 21
-6.2401
  0
ARC
  8
LAYER_1
 10
6.3916
 20
-6.1719
 40
0.0682
 50
227.6587725
 51
269.7797269
  0
LINE
  8
LAYER_1
 10
6.3456
 20
-6.2223
 11
6.2032
 21
-6.0915
  0
ARC
  8
LAYER_1
 10
6.2489
 20
-6.0418
 40
0.0675
 50
137.4057841
 51
227.3960808
  0
ARC
  8
LAYER_1
 10
6.2489
 20
-6.0418
 40
0.0675
 50
47.40344297
 51
137.3984219
  0
LINE
  8
LAYER_1
 10
6.2946
 20
-5.9921
 11
6.4176
 21
-6.1051
  0
LINE
  8
LAYER_1
 10
6.4176
 20
-6.1051
 11
7.0173
 21
-6.1051
  0
LINE
  8
LAYER_1
 10
7.0173
 20
-6.1051
 11
7.156
 21
-5.9899
  0
ARC
  8
LAYER_1
 10
7.1992
 20
-6.0418
 40
0.0675
 50
39.71241159
 51
129.7140633
  0
ARC
  8
LAYER_1
 10
7.1991
 20
-6.0418
 40
0.0675
 50
309.7565868
 51
39.65882128
  0
LINE
  8
LAYER_1
 10
7.2423
 20
-6.0937
 11
7.0849
 21
-6.2245
  0
ARC
  8
LAYER_1
 10
7.0415
 20
-6.1719
 40
0.0682
 50
270.178969
 51
309.5314598
  0
ARC
  8
LAYER_1
 10
2.9936
 20
-6.2973
 40
0.0682
 50
219.939441
 51
269.7008516
  0
ARC
  8
LAYER_1
 10
2.9932
 20
-6.298
 40
0.0675
 50
129.719735
 51
219.6956731
  0
LINE
  8
LAYER_1
 10
2.9501
 20
-6.2461
 11
3.1075
 21
-6.1153
  0
ARC
  8
LAYER_1
 10
3.1508
 20
-6.1676
 40
0.0679
 50
90.1598393
 51
129.6355011
  0
LINE
  8
LAYER_1
 10
3.1506
 20
-6.0997
 11
3.8011
 21
-6.0997
  0
ARC
  8
LAYER_1
 10
3.8007
 20
-6.1679
 40
0.0682
 50
47.65223852
 51
89.701299
  0
LINE
  8
LAYER_1
 10
3.8467
 20
-6.1175
 11
3.9891
 21
-6.2483
  0
ARC
  8
LAYER_1
 10
3.9434
 20
-6.298
 40
0.0675
 50
317.3868601
 51
47.41500481
  0
ARC
  8
LAYER_1
 10
3.9434
 20
-6.298
 40
0.0675
 50
227.4480716
 51
317.3588261
  0
LINE
  8
LAYER_1
 10
3.8978
 20
-6.3477
 11
3.7748
 21
-6.2347
  0
LINE
  8
LAYER_1
 10
3.7748
 20
-6.2347
 11
3.175
 21
-6.2347
  0
LINE
  8
LAYER_1
 10
3.175
 20
-6.2347
 11
3.0363
 21
-6.3499
  0
ARC
  8
LAYER_1
 10
2.993
 20
-6.2976
 40
0.0679
 50
270.1602142
 51
309.6351262
  0
ARC
  8
LAYER_1
 10
0.8296
 20
-6.2971
 40
0.0684
 50
220.040259
 51
269.684912
  0
ARC
  8
LAYER_1
 10
0.8291
 20
-6.298
 40
0.0675
 50
129.7281498
 51
219.6872582
  0
LINE
  8
LAYER_1
 10
0.786
 20
-6.2461
 11
0.9434
 21
-6.1153
  0
ARC
  8
LAYER_1
 10
0.9867
 20
-6.1677
 40
0.068
 50
90.20065536
 51
129.594685
  0
LINE
  8
LAYER_1
 10
0.9865
 20
-6.0997
 11
1.637
 21
-6.0997
  0
ARC
  8
LAYER_1
 10
1.6365
 20
-6.1685
 40
0.0688
 50
47.83013243
 51
89.60836691
  0
LINE
  8
LAYER_1
 10
1.6827
 20
-6.1175
 11
1.825
 21
-6.2483
  0
ARC
  8
LAYER_1
 10
1.7794
 20
-6.298
 40
0.0675
 50
317.4550849
 51
47.46668081
  0
ARC
  8
LAYER_1
 10
1.7794
 20
-6.298
 40
0.0675
 50
227.4125875
 51
317.3892774
  0
LINE
  8
LAYER_1
 10
1.7337
 20
-6.3477
 11
1.6107
 21
-6.2347
  0
LINE
  8
LAYER_1
 10
1.6107
 20
-6.2347
 11
1.0109
 21
-6.2347
  0
LINE
  8
LAYER_1
 10
1.0109
 20
-6.2347
 11
0.8723
 21
-6.3499
  0
ARC
  8
LAYER_1
 10
0.829
 20
-6.2976
 40
0.0679
 50
270.1602142
 51
309.6351262
  0
ARC
  8
LAYER_1
 10
5.164
 20
-6.2975
 40
0.068
 50
219.8878164
 51
269.7524761
  0
ARC
  8
LAYER_1
 10
5.1637
 20
-6.298
 40
0.0675
 50
129.7925645
 51
219.7424516
  0
LINE
  8
LAYER_1
 10
5.1205
 20
-6.2461
 11
5.2779
 21
-6.1153
  0
ARC
  8
LAYER_1
 10
5.3213
 20
-6.1679
 40
0.0682
 50
90.17896898
 51
129.5314597
  0
LINE
  8
LAYER_1
 10
5.3211
 20
-6.0997
 11
5.9715
 21
-6.0997
  0
ARC
  8
LAYER_1
 10
5.9712
 20
-6.1681
 40
0.0684
 50
47.70303547
 51
89.73546387
  0
LINE
  8
LAYER_1
 10
6.0172
 20
-6.1175
 11
6.1596
 21
-6.2483
  0
ARC
  8
LAYER_1
 10
6.1139
 20
-6.298
 40
0.0675
 50
317.4108671
 51
47.39099778
  0
ARC
  8
LAYER_1
 10
6.1139
 20
-6.298
 40
0.0675
 50
227.4171619
 51
317.3847031
  0
LINE
  8
LAYER_1
 10
6.0682
 20
-6.3477
 11
5.9452
 21
-6.2347
  0
LINE
  8
LAYER_1
 10
5.9452
 20
-6.2347
 11
5.3455
 21
-6.2347
  0
LINE
  8
LAYER_1
 10
5.3455
 20
-6.2347
 11
5.2068
 21
-6.3499
  0
ARC
  8
LAYER_1
 10
5.1635
 20
-6.2976
 40
0.0679
 50
270.1602142
 51
309.6351262
  0
LINE
  8
LAYER_1
 10
2.6675
 20
-7.0766
 11
2.0171
 21
-7.0766
  0
ARC
  8
LAYER_1
 10
2.0174
 20
-6.9981
 40
0.0785
 50
227.7433552
 51
269.7872366
  0
LINE
  8
LAYER_1
 10
1.9646
 20
-7.0562
 11
1.8223
 21
-6.9254
  0
ARC
  8
LAYER_1
 10
1.8747
 20
-6.8683
 40
0.0775
 50
137.4560566
 51
227.459468
  0
ARC
  8
LAYER_1
 10
1.8747
 20
-6.8684
 40
0.0775
 50
47.41907066
 51
137.3919925
  0
LINE
  8
LAYER_1
 10
1.9271
 20
-6.8113
 11
2.0472
 21
-6.9216
  0
LINE
  8
LAYER_1
 10
2.0472
 20
-6.9216
 11
2.6395
 21
-6.9216
  0
LINE
  8
LAYER_1
 10
2.6395
 20
-6.9216
 11
2.7754
 21
-6.8087
  0
ARC
  8
LAYER_1
 10
2.8249
 20
-6.8684
 40
0.0775
 50
39.74498451
 51
129.6767816
  0
ARC
  8
LAYER_1
 10
2.8249
 20
-6.8684
 40
0.0775
 50
309.6801587
 51
39.75123956
  0
LINE
  8
LAYER_1
 10
2.8744
 20
-6.928
 11
2.717
 21
-7.0588
  0
ARC
  8
LAYER_1
 10
2.6673
 20
-6.9982
 40
0.0784
 50
270.1794212
 51
309.3773387
  0
LINE
  8
LAYER_1
 10
4.878
 20
-7.0766
 11
4.2275
 21
-7.0766
  0
ARC
  8
LAYER_1
 10
4.2279
 20
-6.9981
 40
0.0785
 50
227.7355432
 51
269.7212389
  0
LINE
  8
LAYER_1
 10
4.1751
 20
-7.0562
 11
4.0327
 21
-6.9254
  0
ARC
  8
LAYER_1
 10
4.0852
 20
-6.8683
 40
0.0775
 50
137.409213
 51
227.4018502
  0
ARC
  8
LAYER_1
 10
4.0852
 20
-6.8684
 40
0.0775
 50
47.40585109
 51
137.4052121
  0
LINE
  8
LAYER_1
 10
4.1376
 20
-6.8113
 11
4.2577
 21
-6.9216
  0
LINE
  8
LAYER_1
 10
4.2577
 20
-6.9216
 11
4.85
 21
-6.9216
  0
LINE
  8
LAYER_1
 10
4.85
 20
-6.9216
 11
4.9858
 21
-6.8087
  0
ARC
  8
LAYER_1
 10
5.0353
 20
-6.8684
 40
0.0776
 50
39.72460415
 51
129.7067941
  0
ARC
  8
LAYER_1
 10
5.0354
 20
-6.8684
 40
0.0775
 50
309.7012985
 51
39.73009976
  0
LINE
  8
LAYER_1
 10
5.0849
 20
-6.928
 11
4.9275
 21
-7.0588
  0
ARC
  8
LAYER_1
 10
4.8778
 20
-6.9982
 40
0.0784
 50
270.1794212
 51
309.3773387
  0
LINE
  8
LAYER_1
 10
7.0885
 20
-7.0766
 11
6.438
 21
-7.0766
  0
ARC
  8
LAYER_1
 10
6.4385
 20
-6.9976
 40
0.079
 50
227.8822139
 51
269.6483779
  0
LINE
  8
LAYER_1
 10
6.3855
 20
-7.0562
 11
6.2432
 21
-6.9254
  0
ARC
  8
LAYER_1
 10
6.2956
 20
-6.8683
 40
0.0775
 50
137.4677941
 51
227.4477305
  0
ARC
  8
LAYER_1
 10
6.2956
 20
-6.8684
 40
0.0776
 50
47.40433785
 51
137.4023408
  0
LINE
  8
LAYER_1
 10
6.3481
 20
-6.8113
 11
6.4682
 21
-6.9216
  0
LINE
  8
LAYER_1
 10
6.4682
 20
-6.9216
 11
7.0605
 21
-6.9216
  0
LINE
  8
LAYER_1
 10
7.0605
 20
-6.9216
 11
7.1963
 21
-6.8087
  0
ARC
  8
LAYER_1
 10
7.2458
 20
-6.8684
 40
0.0776
 50
39.73135425
 51
129.700044
  0
ARC
  8
LAYER_1
 10
7.2459
 20
-6.8684
 40
0.0775
 50
309.7116051
 51
39.7197932
  0
LINE
  8
LAYER_1
 10
7.2954
 20
-6.928
 11
7.138
 21
-7.0588
  0
ARC
  8
LAYER_1
 10
7.0882
 20
-6.998
 40
0.0786
 50
270.2200427
 51
309.3367171
  0
ARC
  8
LAYER_1
 10
2.9805
 20
-7.1235
 40
0.0786
 50
220.0773413
 51
269.6684028
  0
ARC
  8
LAYER_1
 10
2.9799
 20
-7.1245
 40
0.0775
 50
129.7019303
 51
219.729468
  0
LINE
  8
LAYER_1
 10
2.9304
 20
-7.0649
 11
3.0878
 21
-6.9341
  0
ARC
  8
LAYER_1
 10
3.1375
 20
-6.9947
 40
0.0784
 50
90.17942115
 51
129.3773386
  0
LINE
  8
LAYER_1
 10
3.1373
 20
-6.9163
 11
3.7878
 21
-6.9163
  0
ARC
  8
LAYER_1
 10
3.7874
 20
-6.9948
 40
0.0785
 50
47.73554322
 51
89.72123892
  0
LINE
  8
LAYER_1
 10
3.8402
 20
-6.9367
 11
3.9826
 21
-7.0675
  0
ARC
  8
LAYER_1
 10
3.9301
 20
-7.1246
 40
0.0775
 50
317.4084317
 51
47.40263147
  0
ARC
  8
LAYER_1
 10
3.9301
 20
-7.1245
 40
0.0775
 50
227.4189903
 51
317.3920729
  0
LINE
  8
LAYER_1
 10
3.8777
 20
-7.1816
 11
3.7576
 21
-7.0713
  0
LINE
  8
LAYER_1
 10
3.7576
 20
-7.0713
 11
3.1653
 21
-7.0713
  0
LINE
  8
LAYER_1
 10
3.1653
 20
-7.0713
 11
3.0294
 21
-7.1842
  0
ARC
  8
LAYER_1
 10
2.9797
 20
-7.1242
 40
0.0779
 50
270.1956538
 51
309.6401299
  0
ARC
  8
LAYER_1
 10
0.77
 20
-7.1235
 40
0.0786
 50
220.0648867
 51
269.6069634
  0
ARC
  8
LAYER_1
 10
0.7695
 20
-7.1245
 40
0.0775
 50
129.7597811
 51
219.7756731
  0
LINE
  8
LAYER_1
 10
0.7199
 20
-7.0649
 11
0.8773
 21
-6.9341
  0
ARC
  8
LAYER_1
 10
0.9272
 20
-6.9951
 40
0.0788
 50
90.200443
 51
129.2827345
  0
LINE
  8
LAYER_1
 10
0.9269
 20
-6.9163
 11
1.5773
 21
-6.9163
  0
ARC
  8
LAYER_1
 10
1.577
 20
-6.9948
 40
0.0785
 50
47.74335513
 51
89.78723659
  0
LINE
  8
LAYER_1
 10
1.6298
 20
-6.9367
 11
1.7721
 21
-7.0675
  0
ARC
  8
LAYER_1
 10
1.7197
 20
-7.1246
 40
0.0775
 50
317.4638309
 51
47.45169368
  0
ARC
  8
LAYER_1
 10
1.7197
 20
-7.1245
 40
0.0775
 50
227.4172302
 51
317.393833
  0
LINE
  8
LAYER_1
 10
1.6673
 20
-7.1816
 11
1.5471
 21
-7.0713
  0
LINE
  8
LAYER_1
 10
1.5471
 20
-7.0713
 11
0.9549
 21
-7.0713
  0
LINE
  8
LAYER_1
 10
0.9549
 20
-7.0713
 11
0.819
 21
-7.1842
  0
ARC
  8
LAYER_1
 10
0.7693
 20
-7.124
 40
0.0781
 50
270.1755393
 51
309.5860795
  0
ARC
  8
LAYER_1
 10
5.1909
 20
-7.1235
 40
0.0786
 50
220.0648867
 51
269.6069634
  0
ARC
  8
LAYER_1
 10
5.1904
 20
-7.1245
 40
0.0775
 50
129.6842991
 51
219.7470991
  0
LINE
  8
LAYER_1
 10
5.1409
 20
-7.0649
 11
5.2983
 21
-6.9341
  0
ARC
  8
LAYER_1
 10
5.348
 20
-6.9947
 40
0.0784
 50
90.17942115
 51
129.3773386
  0
LINE
  8
LAYER_1
 10
5.3478
 20
-6.9163
 11
5.9983
 21
-6.9163
  0
ARC
  8
LAYER_1
 10
5.9979
 20
-6.9948
 40
0.0785
 50
47.73554322
 51
89.72123892
  0
LINE
  8
LAYER_1
 10
6.0507
 20
-6.9367
 11
6.193
 21
-7.0675
  0
ARC
  8
LAYER_1
 10
6.1406
 20
-7.1246
 40
0.0775
 50
317.4504924
 51
47.4650322
  0
ARC
  8
LAYER_1
 10
6.1406
 20
-7.1245
 40
0.0775
 50
227.4235457
 51
317.3875175
  0
LINE
  8
LAYER_1
 10
6.0882
 20
-7.1816
 11
5.9681
 21
-7.0713
  0
LINE
  8
LAYER_1
 10
5.9681
 20
-7.0713
 11
5.3758
 21
-7.0713
  0
LINE
  8
LAYER_1
 10
5.3758
 20
-7.0713
 11
5.2399
 21
-7.1842
  0
ARC
  8
LAYER_1
 10
5.1902
 20
-7.1241
 40
0.078
 50
270.1606599
 51
309.6009588
  0
LINE
  8
LAYER_2
 10
2.8181
 20
-1.9969
 11
2.1676
 21
-1.9969
  0
LINE
  8
LAYER_2
 10
2.1676
 20
-1.9969
 11
2.1524
 21
-1.991
  0
LINE
  8
LAYER_2
 10
2.1524
 20
-1.991
 11
2.01
 21
-1.8602
  0
ARC
  8
LAYER_2
 10
2.0266
 20
-1.8436
 40
0.0234
 50
139.5904456
 51
225.091508
  0
ARC
  8
LAYER_2
 10
2.0253
 20
-1.845
 40
0.0234
 50
49.59044559
 51
135.091508
  0
LINE
  8
LAYER_2
 10
2.0405
 20
-1.8271
 11
2.1764
 21
-1.9519
  0
LINE
  8
LAYER_2
 10
2.1764
 20
-1.9519
 11
2.81
 21
-1.9519
  0
LINE
  8
LAYER_2
 10
2.81
 20
-1.9519
 11
2.9611
 21
-1.8263
  0
ARC
  8
LAYER_2
 10
2.9753
 20
-1.8448
 40
0.0234
 50
41.67307006
 51
127.5145056
  0
ARC
  8
LAYER_2
 10
2.9741
 20
-1.8436
 40
0.0235
 50
312.1428737
 51
37.40308561
  0
LINE
  8
LAYER_2
 10
2.9899
 20
-1.861
 11
2.8325
 21
-1.9917
  0
LINE
  8
LAYER_2
 10
2.8325
 20
-1.9917
 11
2.8181
 21
-1.9969
  0
LINE
  8
LAYER_2
 10
4.8135
 20
-1.9969
 11
4.1631
 21
-1.9969
  0
LINE
  8
LAYER_2
 10
4.1631
 20
-1.9969
 11
4.1479
 21
-1.991
  0
LINE
  8
LAYER_2
 10
4.1479
 20
-1.991
 11
4.0055
 21
-1.8602
  0
ARC
  8
LAYER_2
 10
4.0219
 20
-1.8435
 40
0.0234
 50
139.5777944
 51
225.4638614
  0
ARC
  8
LAYER_2
 10
4.0207
 20
-1.8449
 40
0.0234
 50
49.53499203
 51
135.1469615
  0
LINE
  8
LAYER_2
 10
4.0359
 20
-1.8271
 11
4.1718
 21
-1.9519
  0
LINE
  8
LAYER_2
 10
4.1718
 20
-1.9519
 11
4.8054
 21
-1.9519
  0
LINE
  8
LAYER_2
 10
4.8054
 20
-1.9519
 11
4.9566
 21
-1.8263
  0
ARC
  8
LAYER_2
 10
4.9708
 20
-1.8449
 40
0.0234
 50
41.78091717
 51
127.4066585
  0
ARC
  8
LAYER_2
 10
4.9697
 20
-1.8435
 40
0.0234
 50
311.7809172
 51
37.40665848
  0
LINE
  8
LAYER_2
 10
4.9853
 20
-1.861
 11
4.8279
 21
-1.9917
  0
LINE
  8
LAYER_2
 10
4.8279
 20
-1.9917
 11
4.8135
 21
-1.9969
  0
LINE
  8
LAYER_2
 10
6.804
 20
-1.9969
 11
6.1535
 21
-1.9969
  0
LINE
  8
LAYER_2
 10
6.1535
 20
-1.9969
 11
6.1383
 21
-1.991
  0
LINE
  8
LAYER_2
 10
6.1383
 20
-1.991
 11
5.9959
 21
-1.8602
  0
ARC
  8
LAYER_2
 10
6.0125
 20
-1.8436
 40
0.0234
 50
139.5904456
 51
225.091508
  0
ARC
  8
LAYER_2
 10
6.0112
 20
-1.8449
 40
0.0234
 50
49.55638729
 51
135.1255662
  0
LINE
  8
LAYER_2
 10
6.0264
 20
-1.8271
 11
6.1623
 21
-1.9519
  0
LINE
  8
LAYER_2
 10
6.1623
 20
-1.9519
 11
6.7959
 21
-1.9519
  0
LINE
  8
LAYER_2
 10
6.7959
 20
-1.9519
 11
6.947
 21
-1.8263
  0
ARC
  8
LAYER_2
 10
6.9612
 20
-1.8448
 40
0.0234
 50
41.67307006
 51
127.5145056
  0
ARC
  8
LAYER_2
 10
6.96
 20
-1.8436
 40
0.0235
 50
312.1428737
 51
37.40308561
  0
LINE
  8
LAYER_2
 10
6.9758
 20
-1.861
 11
6.8184
 21
-1.9917
  0
LINE
  8
LAYER_2
 10
6.8184
 20
-1.9917
 11
6.804
 21
-1.9969
  0
LINE
  8
LAYER_2
 10
3.0255
 20
-2.1223
 11
3.0082
 21
-2.1142
  0
ARC
  8
LAYER_2
 10
3.0266
 20
-2.0999
 40
0.0233
 50
131.7578985
 51
217.7880608
  0
LINE
  8
LAYER_2
 10
3.0111
 20
-2.0825
 11
3.1685
 21
-1.9518
  0
LINE
  8
LAYER_2
 10
3.1685
 20
-1.9518
 11
3.1829
 21
-1.9466
  0
LINE
  8
LAYER_2
 10
3.1829
 20
-1.9466
 11
3.8334
 21
-1.9466
  0
LINE
  8
LAYER_2
 10
3.8334
 20
-1.9466
 11
3.8486
 21
-1.9525
  0
LINE
  8
LAYER_2
 10
3.8486
 20
-1.9525
 11
3.9909
 21
-2.0833
  0
ARC
  8
LAYER_2
 10
3.9745
 20
-2.1
 40
0.0234
 50
319.5777944
 51
45.46386139
  0
ARC
  8
LAYER_2
 10
3.9757
 20
-2.0986
 40
0.0234
 50
229.5563873
 51
315.1255663
  0
LINE
  8
LAYER_2
 10
3.9605
 20
-2.1164
 11
3.8246
 21
-1.9916
  0
LINE
  8
LAYER_2
 10
3.8246
 20
-1.9916
 11
3.191
 21
-1.9916
  0
LINE
  8
LAYER_2
 10
3.191
 20
-1.9916
 11
3.0399
 21
-2.1172
  0
LINE
  8
LAYER_2
 10
3.0399
 20
-2.1172
 11
3.0255
 21
-2.1223
  0
LINE
  8
LAYER_2
 10
1.03
 20
-2.1223
 11
1.0127
 21
-2.1142
  0
ARC
  8
LAYER_2
 10
1.0314
 20
-2.0999
 40
0.0235
 50
132.1428736
 51
217.4030857
  0
LINE
  8
LAYER_2
 10
1.0156
 20
-2.0825
 11
1.1731
 21
-1.9518
  0
LINE
  8
LAYER_2
 10
1.1731
 20
-1.9518
 11
1.1874
 21
-1.9466
  0
LINE
  8
LAYER_2
 10
1.1874
 20
-1.9466
 11
1.8379
 21
-1.9466
  0
LINE
  8
LAYER_2
 10
1.8379
 20
-1.9466
 11
1.8531
 21
-1.9525
  0
LINE
  8
LAYER_2
 10
1.8531
 20
-1.9525
 11
1.9955
 21
-2.0833
  0
ARC
  8
LAYER_2
 10
1.9789
 20
-2.0999
 40
0.0234
 50
319.5904456
 51
45.09150796
  0
ARC
  8
LAYER_2
 10
1.9802
 20
-2.0985
 40
0.0234
 50
229.5904456
 51
315.091508
  0
LINE
  8
LAYER_2
 10
1.965
 20
-2.1164
 11
1.8291
 21
-1.9916
  0
LINE
  8
LAYER_2
 10
1.8291
 20
-1.9916
 11
1.1956
 21
-1.9916
  0
LINE
  8
LAYER_2
 10
1.1956
 20
-1.9916
 11
1.0444
 21
-2.1172
  0
LINE
  8
LAYER_2
 10
1.0444
 20
-2.1172
 11
1.03
 21
-2.1223
  0
LINE
  8
LAYER_2
 10
5.016
 20
-2.1223
 11
4.9986
 21
-2.1142
  0
ARC
  8
LAYER_2
 10
5.0172
 20
-2.1
 40
0.0234
 50
131.7809171
 51
217.4066585
  0
LINE
  8
LAYER_2
 10
5.0016
 20
-2.0825
 11
5.159
 21
-1.9518
  0
LINE
  8
LAYER_2
 10
5.159
 20
-1.9518
 11
5.1733
 21
-1.9466
  0
LINE
  8
LAYER_2
 10
5.1733
 20
-1.9466
 11
5.8238
 21
-1.9466
  0
LINE
  8
LAYER_2
 10
5.8238
 20
-1.9466
 11
5.839
 21
-1.9525
  0
LINE
  8
LAYER_2
 10
5.839
 20
-1.9525
 11
5.9814
 21
-2.0833
  0
ARC
  8
LAYER_2
 10
5.9648
 20
-2.0999
 40
0.0234
 50
319.5904456
 51
45.09150796
  0
ARC
  8
LAYER_2
 10
5.9661
 20
-2.0985
 40
0.0234
 50
229.5904456
 51
315.091508
  0
LINE
  8
LAYER_2
 10
5.9509
 20
-2.1164
 11
5.815
 21
-1.9916
  0
LINE
  8
LAYER_2
 10
5.815
 20
-1.9916
 11
5.1815
 21
-1.9916
  0
LINE
  8
LAYER_2
 10
5.1815
 20
-1.9916
 11
5.0303
 21
-2.1172
  0
LINE
  8
LAYER_2
 10
5.0303
 20
-2.1172
 11
5.016
 21
-2.1223
  0
LINE
  8
LAYER_2
 10
2.7898
 20
-2.847
 11
2.1394
 21
-2.847
  0
LINE
  8
LAYER_2
 10
2.1394
 20
-2.847
 11
2.1208
 21
-2.8398
  0
LINE
  8
LAYER_2
 10
2.1208
 20
-2.8398
 11
1.9784
 21
-2.709
  0
ARC
  8
LAYER_2
 10
1.9985
 20
-2.6887
 40
0.0286
 50
139.4508113
 51
225.259811
  0
ARC
  8
LAYER_2
 10
1.9971
 20
-2.6901
 40
0.0285
 50
49.37314404
 51
135.3496053
  0
LINE
  8
LAYER_2
 10
2.0156
 20
-2.6685
 11
2.1501
 21
-2.792
  0
LINE
  8
LAYER_2
 10
2.1501
 20
-2.792
 11
2.7799
 21
-2.792
  0
LINE
  8
LAYER_2
 10
2.7799
 20
-2.792
 11
2.9297
 21
-2.6676
  0
ARC
  8
LAYER_2
 10
2.9471
 20
-2.6902
 40
0.0285
 50
41.75567132
 51
127.6152373
  0
ARC
  8
LAYER_2
 10
2.9458
 20
-2.6886
 40
0.0285
 50
311.7811976
 51
37.58971111
  0
LINE
  8
LAYER_2
 10
2.9648
 20
-2.7099
 11
2.8074
 21
-2.8407
  0
LINE
  8
LAYER_2
 10
2.8074
 20
-2.8407
 11
2.7898
 21
-2.847
  0
LINE
  8
LAYER_2
 10
4.8103
 20
-2.847
 11
4.1598
 21
-2.847
  0
LINE
  8
LAYER_2
 10
4.1598
 20
-2.847
 11
4.1412
 21
-2.8398
  0
LINE
  8
LAYER_2
 10
4.1412
 20
-2.8398
 11
3.9989
 21
-2.709
  0
ARC
  8
LAYER_2
 10
4.0191
 20
-2.6886
 40
0.0287
 50
139.7653771
 51
225.2392958
  0
ARC
  8
LAYER_2
 10
4.0175
 20
-2.6902
 40
0.0286
 50
49.45081134
 51
135.2598109
  0
LINE
  8
LAYER_2
 10
4.0361
 20
-2.6685
 11
4.1705
 21
-2.792
  0
LINE
  8
LAYER_2
 10
4.1705
 20
-2.792
 11
4.8004
 21
-2.792
  0
LINE
  8
LAYER_2
 10
4.8004
 20
-2.792
 11
4.9501
 21
-2.6676
  0
ARC
  8
LAYER_2
 10
4.9676
 20
-2.6903
 40
0.0287
 50
41.88805068
 51
127.5100963
  0
ARC
  8
LAYER_2
 10
4.9663
 20
-2.6886
 40
0.0285
 50
311.7811976
 51
37.58971111
  0
LINE
  8
LAYER_2
 10
4.9853
 20
-2.7099
 11
4.8279
 21
-2.8407
  0
LINE
  8
LAYER_2
 10
4.8279
 20
-2.8407
 11
4.8103
 21
-2.847
  0
LINE
  8
LAYER_2
 10
6.8208
 20
-2.847
 11
6.1703
 21
-2.847
  0
LINE
  8
LAYER_2
 10
6.1703
 20
-2.847
 11
6.1517
 21
-2.8398
  0
LINE
  8
LAYER_2
 10
6.1517
 20
-2.8398
 11
6.0093
 21
-2.709
  0
ARC
  8
LAYER_2
 10
6.0294
 20
-2.6887
 40
0.0286
 50
139.4508113
 51
225.259811
  0
ARC
  8
LAYER_2
 10
6.028
 20
-2.6901
 40
0.0285
 50
49.37314404
 51
135.3496053
  0
LINE
  8
LAYER_2
 10
6.0465
 20
-2.6685
 11
6.181
 21
-2.792
  0
LINE
  8
LAYER_2
 10
6.181
 20
-2.792
 11
6.8108
 21
-2.792
  0
LINE
  8
LAYER_2
 10
6.8108
 20
-2.792
 11
6.9606
 21
-2.6676
  0
ARC
  8
LAYER_2
 10
6.978
 20
-2.6902
 40
0.0285
 50
41.75567132
 51
127.6152373
  0
ARC
  8
LAYER_2
 10
6.9767
 20
-2.6886
 40
0.0285
 50
311.7811976
 51
37.58971111
  0
LINE
  8
LAYER_2
 10
6.9957
 20
-2.7099
 11
6.8383
 21
-2.8407
  0
LINE
  8
LAYER_2
 10
6.8383
 20
-2.8407
 11
6.8208
 21
-2.847
  0
ARC
  8
LAYER_2
 10
3.0074
 20
-2.9446
 40
0.0278
 50
220.1158606
 51
269.8207651
  0
ARC
  8
LAYER_2
 10
3.0087
 20
-2.9451
 40
0.0285
 50
131.7556713
 51
217.6152374
  0
LINE
  8
LAYER_2
 10
2.9897
 20
-2.9238
 11
3.1471
 21
-2.793
  0
LINE
  8
LAYER_2
 10
3.1471
 20
-2.793
 11
3.1647
 21
-2.7866
  0
LINE
  8
LAYER_2
 10
3.1647
 20
-2.7866
 11
3.8151
 21
-2.7866
  0
LINE
  8
LAYER_2
 10
3.8151
 20
-2.7866
 11
3.8337
 21
-2.7939
  0
LINE
  8
LAYER_2
 10
3.8337
 20
-2.7939
 11
3.9761
 21
-2.9247
  0
ARC
  8
LAYER_2
 10
3.9561
 20
-2.945
 40
0.0285
 50
319.3731441
 51
45.34960526
  0
ARC
  8
LAYER_2
 10
3.9574
 20
-2.9434
 40
0.0286
 50
229.6879615
 51
315.3295936
  0
LINE
  8
LAYER_2
 10
3.9389
 20
-2.9652
 11
3.8044
 21
-2.8416
  0
LINE
  8
LAYER_2
 10
3.8044
 20
-2.8416
 11
3.1746
 21
-2.8416
  0
LINE
  8
LAYER_2
 10
3.1746
 20
-2.8416
 11
3.0248
 21
-2.9661
  0
LINE
  8
LAYER_2
 10
3.0248
 20
-2.9661
 11
3.0073
 21
-2.9724
  0
ARC
  8
LAYER_2
 10
0.9921
 20
-2.944
 40
0.0284
 50
220.6034749
 51
269.3331509
  0
ARC
  8
LAYER_2
 10
0.9932
 20
-2.9451
 40
0.0285
 50
131.7556713
 51
217.6152374
  0
LINE
  8
LAYER_2
 10
0.9742
 20
-2.9238
 11
1.1316
 21
-2.793
  0
LINE
  8
LAYER_2
 10
1.1316
 20
-2.793
 11
1.1492
 21
-2.7866
  0
LINE
  8
LAYER_2
 10
1.1492
 20
-2.7866
 11
1.7997
 21
-2.7866
  0
LINE
  8
LAYER_2
 10
1.7997
 20
-2.7866
 11
1.8183
 21
-2.7939
  0
LINE
  8
LAYER_2
 10
1.8183
 20
-2.7939
 11
1.9606
 21
-2.9247
  0
ARC
  8
LAYER_2
 10
1.9405
 20
-2.945
 40
0.0286
 50
319.6879615
 51
45.32959359
  0
ARC
  8
LAYER_2
 10
1.9419
 20
-2.9433
 40
0.0287
 50
229.7653772
 51
315.2392957
  0
LINE
  8
LAYER_2
 10
1.9234
 20
-2.9652
 11
1.7889
 21
-2.8416
  0
LINE
  8
LAYER_2
 10
1.7889
 20
-2.8416
 11
1.1591
 21
-2.8416
  0
LINE
  8
LAYER_2
 10
1.1591
 20
-2.8416
 11
1.0094
 21
-2.9661
  0
LINE
  8
LAYER_2
 10
1.0094
 20
-2.9661
 11
0.9918
 21
-2.9724
  0
ARC
  8
LAYER_2
 10
5.0229
 20
-2.9446
 40
0.0278
 50
220.1071828
 51
269.6214121
  0
ARC
  8
LAYER_2
 10
5.024
 20
-2.945
 40
0.0284
 50
131.7339156
 51
217.9306243
  0
LINE
  8
LAYER_2
 10
5.0051
 20
-2.9238
 11
5.1625
 21
-2.793
  0
LINE
  8
LAYER_2
 10
5.1625
 20
-2.793
 11
5.1801
 21
-2.7866
  0
LINE
  8
LAYER_2
 10
5.1801
 20
-2.7866
 11
5.8306
 21
-2.7866
  0
LINE
  8
LAYER_2
 10
5.8306
 20
-2.7866
 11
5.8492
 21
-2.7939
  0
LINE
  8
LAYER_2
 10
5.8492
 20
-2.7939
 11
5.9915
 21
-2.9247
  0
ARC
  8
LAYER_2
 10
5.9715
 20
-2.945
 40
0.0285
 50
319.5066711
 51
45.51088401
  0
ARC
  8
LAYER_2
 10
5.9728
 20
-2.9434
 40
0.0286
 50
229.5842628
 51
315.4204101
  0
LINE
  8
LAYER_2
 10
5.9543
 20
-2.9652
 11
5.8199
 21
-2.8416
  0
LINE
  8
LAYER_2
 10
5.8199
 20
-2.8416
 11
5.19
 21
-2.8416
  0
LINE
  8
LAYER_2
 10
5.19
 20
-2.8416
 11
5.0403
 21
-2.9661
  0
LINE
  8
LAYER_2
 10
5.0403
 20
-2.9661
 11
5.0227
 21
-2.9724
  0
LINE
  8
LAYER_2
 10
2.7965
 20
-3.6971
 11
2.1461
 21
-3.6971
  0
LINE
  8
LAYER_2
 10
2.1461
 20
-3.6971
 11
2.1241
 21
-3.6885
  0
LINE
  8
LAYER_2
 10
2.1241
 20
-3.6885
 11
1.9817
 21
-3.5577
  0
ARC
  8
LAYER_2
 10
2.0054
 20
-3.5337
 40
0.0337
 50
139.4181383
 51
225.3225966
  0
ARC
  8
LAYER_2
 10
2.0038
 20
-3.5355
 40
0.0337
 50
49.41813837
 51
135.3225965
  0
LINE
  8
LAYER_2
 10
2.0257
 20
-3.5099
 11
2.1587
 21
-3.6321
  0
LINE
  8
LAYER_2
 10
2.1587
 20
-3.6321
 11
2.7848
 21
-3.6321
  0
LINE
  8
LAYER_2
 10
2.7848
 20
-3.6321
 11
2.9332
 21
-3.5088
  0
ARC
  8
LAYER_2
 10
2.9538
 20
-3.5354
 40
0.0337
 50
41.77459815
 51
127.7235123
  0
ARC
  8
LAYER_2
 10
2.9521
 20
-3.5336
 40
0.0338
 50
311.8764822
 51
37.64443039
  0
LINE
  8
LAYER_2
 10
2.9747
 20
-3.5588
 11
2.8173
 21
-3.6896
  0
LINE
  8
LAYER_2
 10
2.8173
 20
-3.6896
 11
2.7965
 21
-3.6971
  0
LINE
  8
LAYER_2
 10
4.832
 20
-3.6971
 11
4.1815
 21
-3.6971
  0
LINE
  8
LAYER_2
 10
4.1815
 20
-3.6971
 11
4.1595
 21
-3.6885
  0
LINE
  8
LAYER_2
 10
4.1595
 20
-3.6885
 11
4.0172
 21
-3.5577
  0
ARC
  8
LAYER_2
 10
4.041
 20
-3.5337
 40
0.0338
 50
139.6842598
 51
225.3056801
  0
ARC
  8
LAYER_2
 10
4.0392
 20
-3.5355
 40
0.0337
 50
49.42212933
 51
135.3186056
  0
LINE
  8
LAYER_2
 10
4.0611
 20
-3.5099
 11
4.1942
 21
-3.6321
  0
LINE
  8
LAYER_2
 10
4.1942
 20
-3.6321
 11
4.8202
 21
-3.6321
  0
LINE
  8
LAYER_2
 10
4.8202
 20
-3.6321
 11
4.9686
 21
-3.5088
  0
ARC
  8
LAYER_2
 10
4.9892
 20
-3.5356
 40
0.0338
 50
41.87648223
 51
127.6444304
  0
ARC
  8
LAYER_2
 10
4.9876
 20
-3.5336
 40
0.0338
 50
311.8764822
 51
37.64443039
  0
LINE
  8
LAYER_2
 10
5.0102
 20
-3.5588
 11
4.8527
 21
-3.6896
  0
LINE
  8
LAYER_2
 10
4.8527
 20
-3.6896
 11
4.832
 21
-3.6971
  0
LINE
  8
LAYER_2
 10
6.8625
 20
-3.6971
 11
6.212
 21
-3.6971
  0
LINE
  8
LAYER_2
 10
6.212
 20
-3.6971
 11
6.19
 21
-3.6885
  0
LINE
  8
LAYER_2
 10
6.19
 20
-3.6885
 11
6.0476
 21
-3.5577
  0
ARC
  8
LAYER_2
 10
6.0713
 20
-3.5337
 40
0.0337
 50
139.4181383
 51
225.3225966
  0
ARC
  8
LAYER_2
 10
6.0697
 20
-3.5355
 40
0.0337
 50
49.41813837
 51
135.3225965
  0
LINE
  8
LAYER_2
 10
6.0916
 20
-3.5099
 11
6.2246
 21
-3.6321
  0
LINE
  8
LAYER_2
 10
6.2246
 20
-3.6321
 11
6.8507
 21
-3.6321
  0
LINE
  8
LAYER_2
 10
6.8507
 20
-3.6321
 11
6.9991
 21
-3.5088
  0
ARC
  8
LAYER_2
 10
7.0197
 20
-3.5356
 40
0.0338
 50
41.87648223
 51
127.6444304
  0
ARC
  8
LAYER_2
 10
7.018
 20
-3.5336
 40
0.0339
 50
311.897101
 51
37.37574785
  0
LINE
  8
LAYER_2
 10
7.0406
 20
-3.5588
 11
6.8832
 21
-3.6896
  0
LINE
  8
LAYER_2
 10
6.8832
 20
-3.6896
 11
6.8625
 21
-3.6971
  0
ARC
  8
LAYER_2
 10
3.0193
 20
-3.7892
 40
0.0334
 50
220.4773666
 51
269.5388428
  0
ARC
  8
LAYER_2
 10
3.0208
 20
-3.7902
 40
0.0339
 50
131.897101
 51
217.3757479
  0
LINE
  8
LAYER_2
 10
2.9982
 20
-3.765
 11
3.1556
 21
-3.6342
  0
LINE
  8
LAYER_2
 10
3.1556
 20
-3.6342
 11
3.1763
 21
-3.6267
  0
LINE
  8
LAYER_2
 10
3.1763
 20
-3.6267
 11
3.8268
 21
-3.6267
  0
LINE
  8
LAYER_2
 10
3.8268
 20
-3.6267
 11
3.8488
 21
-3.6353
  0
LINE
  8
LAYER_2
 10
3.8488
 20
-3.6353
 11
3.9911
 21
-3.7661
  0
ARC
  8
LAYER_2
 10
3.9674
 20
-3.7901
 40
0.0337
 50
319.5481506
 51
45.4417893
  0
ARC
  8
LAYER_2
 10
3.9691
 20
-3.7883
 40
0.0337
 50
229.4221294
 51
315.3186056
  0
LINE
  8
LAYER_2
 10
3.9472
 20
-3.8139
 11
3.8141
 21
-3.6917
  0
LINE
  8
LAYER_2
 10
3.8141
 20
-3.6917
 11
3.1881
 21
-3.6917
  0
LINE
  8
LAYER_2
 10
3.1881
 20
-3.6917
 11
3.0397
 21
-3.815
  0
LINE
  8
LAYER_2
 10
3.0397
 20
-3.815
 11
3.019
 21
-3.8225
  0
ARC
  8
LAYER_2
 10
0.9887
 20
-3.7896
 40
0.0329
 50
220.1141862
 51
269.7266258
  0
ARC
  8
LAYER_2
 10
0.9903
 20
-3.7902
 40
0.0338
 50
131.8764822
 51
217.6444304
  0
LINE
  8
LAYER_2
 10
0.9677
 20
-3.765
 11
1.1251
 21
-3.6342
  0
LINE
  8
LAYER_2
 10
1.1251
 20
-3.6342
 11
1.1459
 21
-3.6267
  0
LINE
  8
LAYER_2
 10
1.1459
 20
-3.6267
 11
1.7963
 21
-3.6267
  0
LINE
  8
LAYER_2
 10
1.7963
 20
-3.6267
 11
1.8183
 21
-3.6353
  0
LINE
  8
LAYER_2
 10
1.8183
 20
-3.6353
 11
1.9607
 21
-3.7661
  0
ARC
  8
LAYER_2
 10
1.937
 20
-3.7901
 40
0.0337
 50
319.4181384
 51
45.32259656
  0
ARC
  8
LAYER_2
 10
1.9386
 20
-3.7883
 40
0.0337
 50
229.4181384
 51
315.3225966
  0
LINE
  8
LAYER_2
 10
1.9167
 20
-3.8139
 11
1.7837
 21
-3.6917
  0
LINE
  8
LAYER_2
 10
1.7837
 20
-3.6917
 11
1.1576
 21
-3.6917
  0
LINE
  8
LAYER_2
 10
1.1576
 20
-3.6917
 11
1.0092
 21
-3.815
  0
LINE
  8
LAYER_2
 10
1.0092
 20
-3.815
 11
0.9885
 21
-3.8225
  0
ARC
  8
LAYER_2
 10
5.0546
 20
-3.7896
 40
0.0329
 50
220.1141862
 51
269.7266258
  0
ARC
  8
LAYER_2
 10
5.0562
 20
-3.7902
 40
0.0338
 50
131.8764822
 51
217.6444304
  0
LINE
  8
LAYER_2
 10
5.0336
 20
-3.765
 11
5.191
 21
-3.6342
  0
LINE
  8
LAYER_2
 10
5.191
 20
-3.6342
 11
5.2118
 21
-3.6267
  0
LINE
  8
LAYER_2
 10
5.2118
 20
-3.6267
 11
5.8623
 21
-3.6267
  0
LINE
  8
LAYER_2
 10
5.8623
 20
-3.6267
 11
5.8842
 21
-3.6353
  0
LINE
  8
LAYER_2
 10
5.8842
 20
-3.6353
 11
6.0266
 21
-3.7661
  0
ARC
  8
LAYER_2
 10
6.0028
 20
-3.7901
 40
0.0338
 50
319.6842598
 51
45.30568004
  0
ARC
  8
LAYER_2
 10
6.0046
 20
-3.7882
 40
0.0338
 50
229.4892278
 51
315.2412129
  0
LINE
  8
LAYER_2
 10
5.9826
 20
-3.8139
 11
5.8496
 21
-3.6917
  0
LINE
  8
LAYER_2
 10
5.8496
 20
-3.6917
 11
5.2235
 21
-3.6917
  0
LINE
  8
LAYER_2
 10
5.2235
 20
-3.6917
 11
5.0752
 21
-3.815
  0
LINE
  8
LAYER_2
 10
5.0752
 20
-3.815
 11
5.0544
 21
-3.8225
  0
LINE
  8
LAYER_2
 10
2.7699
 20
-4.5472
 11
2.1194
 21
-4.5472
  0
LINE
  8
LAYER_2
 10
2.1194
 20
-4.5472
 11
2.094
 21
-4.5373
  0
LINE
  8
LAYER_2
 10
2.094
 20
-4.5373
 11
1.9517
 21
-4.4065
  0
ARC
  8
LAYER_2
 10
1.977
 20
-4.3789
 40
0.0375
 50
137.4734707
 51
227.4962523
  0
ARC
  8
LAYER_2
 10
1.977
 20
-4.3788
 40
0.0375
 50
47.32254716
 51
137.4313544
  0
LINE
  8
LAYER_2
 10
2.0024
 20
-4.3513
 11
2.134
 21
-4.4722
  0
LINE
  8
LAYER_2
 10
2.134
 20
-4.4722
 11
2.7563
 21
-4.4722
  0
LINE
  8
LAYER_2
 10
2.7563
 20
-4.4722
 11
2.9033
 21
-4.35
  0
ARC
  8
LAYER_2
 10
2.9272
 20
-4.3789
 40
0.0375
 50
39.72598825
 51
129.6699404
  0
ARC
  8
LAYER_2
 10
2.9273
 20
-4.3789
 40
0.0375
 50
309.6756024
 51
39.72032623
  0
LINE
  8
LAYER_2
 10
2.9512
 20
-4.4077
 11
2.7938
 21
-4.5385
  0
LINE
  8
LAYER_2
 10
2.7938
 20
-4.5385
 11
2.7699
 21
-4.5472
  0
LINE
  8
LAYER_2
 10
4.8253
 20
-4.5472
 11
4.1749
 21
-4.5472
  0
LINE
  8
LAYER_2
 10
4.1749
 20
-4.5472
 11
4.1495
 21
-4.5373
  0
LINE
  8
LAYER_2
 10
4.1495
 20
-4.5373
 11
4.0071
 21
-4.4065
  0
ARC
  8
LAYER_2
 10
4.0325
 20
-4.3789
 40
0.0375
 50
137.3849017
 51
227.3689999
  0
ARC
  8
LAYER_2
 10
4.0325
 20
-4.3788
 40
0.0375
 50
47.3215304
 51
137.4323712
  0
LINE
  8
LAYER_2
 10
4.0579
 20
-4.3513
 11
4.1895
 21
-4.4722
  0
LINE
  8
LAYER_2
 10
4.1895
 20
-4.4722
 11
4.8118
 21
-4.4722
  0
LINE
  8
LAYER_2
 10
4.8118
 20
-4.4722
 11
4.9588
 21
-4.35
  0
ARC
  8
LAYER_2
 10
4.9828
 20
-4.3788
 40
0.0375
 50
39.68634951
 51
129.7095791
  0
ARC
  8
LAYER_2
 10
4.9827
 20
-4.3788
 40
0.0375
 50
309.7217079
 51
39.67422073
  0
LINE
  8
LAYER_2
 10
5.0067
 20
-4.4077
 11
4.8493
 21
-4.5385
  0
LINE
  8
LAYER_2
 10
4.8493
 20
-4.5385
 11
4.8253
 21
-4.5472
  0
LINE
  8
LAYER_2
 10
6.8808
 20
-4.5472
 11
6.2303
 21
-4.5472
  0
LINE
  8
LAYER_2
 10
6.2303
 20
-4.5472
 11
6.2049
 21
-4.5373
  0
LINE
  8
LAYER_2
 10
6.2049
 20
-4.5373
 11
6.0626
 21
-4.4065
  0
ARC
  8
LAYER_2
 10
6.088
 20
-4.3788
 40
0.0375
 50
137.4947212
 51
227.4750019
  0
ARC
  8
LAYER_2
 10
6.088
 20
-4.3808
 40
0.0389
 50
49.33484277
 51
135.4190588
  0
LINE
  8
LAYER_2
 10
6.1133
 20
-4.3513
 11
6.2449
 21
-4.4722
  0
LINE
  8
LAYER_2
 10
6.2449
 20
-4.4722
 11
6.8672
 21
-4.4722
  0
LINE
  8
LAYER_2
 10
6.8672
 20
-4.4722
 11
7.0142
 21
-4.35
  0
ARC
  8
LAYER_2
 10
7.0382
 20
-4.3788
 40
0.0375
 50
39.6949764
 51
129.7009522
  0
ARC
  8
LAYER_2
 10
7.0382
 20
-4.3789
 40
0.0375
 50
309.8253019
 51
39.78584031
  0
LINE
  8
LAYER_2
 10
7.0622
 20
-4.4077
 11
6.9048
 21
-4.5385
  0
LINE
  8
LAYER_2
 10
6.9048
 20
-4.5385
 11
6.8808
 21
-4.5472
  0
ARC
  8
LAYER_2
 10
3.0026
 20
-4.6345
 40
0.0381
 50
220.0498723
 51
269.5478804
  0
ARC
  8
LAYER_2
 10
3.0023
 20
-4.6351
 40
0.0375
 50
129.7251442
 51
219.6707845
  0
LINE
  8
LAYER_2
 10
2.9783
 20
-4.6062
 11
3.1357
 21
-4.4754
  0
LINE
  8
LAYER_2
 10
3.1357
 20
-4.4754
 11
3.1597
 21
-4.4668
  0
LINE
  8
LAYER_2
 10
3.1597
 20
-4.4668
 11
3.8101
 21
-4.4668
  0
LINE
  8
LAYER_2
 10
3.8101
 20
-4.4668
 11
3.8355
 21
-4.4767
  0
LINE
  8
LAYER_2
 10
3.8355
 20
-4.4767
 11
3.9779
 21
-4.6074
  0
ARC
  8
LAYER_2
 10
3.9525
 20
-4.635
 40
0.0375
 50
317.3758802
 51
47.37802145
  0
ARC
  8
LAYER_2
 10
3.9525
 20
-4.6351
 40
0.0375
 50
227.467845
 51
317.5018781
  0
LINE
  8
LAYER_2
 10
3.9271
 20
-4.6627
 11
3.7955
 21
-4.5418
  0
LINE
  8
LAYER_2
 10
3.7955
 20
-4.5418
 11
3.1732
 21
-4.5418
  0
LINE
  8
LAYER_2
 10
3.1732
 20
-4.5418
 11
3.0262
 21
-4.6639
  0
LINE
  8
LAYER_2
 10
3.0262
 20
-4.6639
 11
3.0023
 21
-4.6726
  0
ARC
  8
LAYER_2
 10
0.952
 20
-4.6349
 40
0.0377
 50
219.7696103
 51
269.6749453
  0
ARC
  8
LAYER_2
 10
0.9518
 20
-4.635
 40
0.0375
 50
129.8235229
 51
219.7876193
  0
LINE
  8
LAYER_2
 10
0.9278
 20
-4.6062
 11
1.0853
 21
-4.4754
  0
LINE
  8
LAYER_2
 10
1.0853
 20
-4.4754
 11
1.1092
 21
-4.4668
  0
LINE
  8
LAYER_2
 10
1.1092
 20
-4.4668
 11
1.7597
 21
-4.4668
  0
LINE
  8
LAYER_2
 10
1.7597
 20
-4.4668
 11
1.785
 21
-4.4767
  0
LINE
  8
LAYER_2
 10
1.785
 20
-4.4767
 11
1.9274
 21
-4.6074
  0
ARC
  8
LAYER_2
 10
1.902
 20
-4.6351
 40
0.0375
 50
317.4962996
 51
47.47342348
  0
ARC
  8
LAYER_2
 10
1.9021
 20
-4.6351
 40
0.0375
 50
227.4638878
 51
317.5058353
  0
LINE
  8
LAYER_2
 10
1.8767
 20
-4.6627
 11
1.7451
 21
-4.5418
  0
LINE
  8
LAYER_2
 10
1.7451
 20
-4.5418
 11
1.1228
 21
-4.5418
  0
LINE
  8
LAYER_2
 10
1.1228
 20
-4.5418
 11
0.9758
 21
-4.6639
  0
LINE
  8
LAYER_2
 10
0.9758
 20
-4.6639
 11
0.9518
 21
-4.6726
  0
ARC
  8
LAYER_2
 10
5.0629
 20
-4.6348
 40
0.0378
 50
219.7760642
 51
269.8216885
  0
ARC
  8
LAYER_2
 10
5.0627
 20
-4.635
 40
0.0375
 50
129.6909124
 51
219.7050163
  0
LINE
  8
LAYER_2
 10
5.0388
 20
-4.6062
 11
5.1962
 21
-4.4754
  0
LINE
  8
LAYER_2
 10
5.1962
 20
-4.4754
 11
5.2201
 21
-4.4668
  0
LINE
  8
LAYER_2
 10
5.2201
 20
-4.4668
 11
5.8706
 21
-4.4668
  0
LINE
  8
LAYER_2
 10
5.8706
 20
-4.4668
 11
5.896
 21
-4.4767
  0
LINE
  8
LAYER_2
 10
5.896
 20
-4.4767
 11
6.0383
 21
-4.6074
  0
ARC
  8
LAYER_2
 10
6.013
 20
-4.635
 40
0.0375
 50
317.4816546
 51
47.48806851
  0
ARC
  8
LAYER_2
 10
6.0129
 20
-4.6331
 40
0.039
 50
229.5644681
 51
315.405255
  0
LINE
  8
LAYER_2
 10
5.9876
 20
-4.6627
 11
5.856
 21
-4.5418
  0
LINE
  8
LAYER_2
 10
5.856
 20
-4.5418
 11
5.2337
 21
-4.5418
  0
LINE
  8
LAYER_2
 10
5.2337
 20
-4.5418
 11
5.0867
 21
-4.6639
  0
LINE
  8
LAYER_2
 10
5.0867
 20
-4.6639
 11
5.0628
 21
-4.6726
  0
LINE
  8
LAYER_2
 10
2.7599
 20
-5.3972
 11
2.1094
 21
-5.3972
  0
ARC
  8
LAYER_2
 10
2.1097
 20
-5.3538
 40
0.0434
 50
227.8843468
 51
269.6146422
  0
LINE
  8
LAYER_2
 10
2.0806
 20
-5.386
 11
1.9383
 21
-5.2552
  0
ARC
  8
LAYER_2
 10
1.967
 20
-5.2239
 40
0.0425
 50
137.5286845
 51
227.4338451
  0
ARC
  8
LAYER_2
 10
1.9671
 20
-5.224
 40
0.0426
 50
47.49753013
 51
137.4567526
  0
LINE
  8
LAYER_2
 10
1.9958
 20
-5.1926
 11
2.126
 21
-5.3122
  0
LINE
  8
LAYER_2
 10
2.126
 20
-5.3122
 11
2.7445
 21
-5.3122
  0
LINE
  8
LAYER_2
 10
2.7445
 20
-5.3122
 11
2.8901
 21
-5.1913
  0
ARC
  8
LAYER_2
 10
2.9173
 20
-5.2239
 40
0.0425
 50
39.69418691
 51
129.813471
  0
ARC
  8
LAYER_2
 10
2.9173
 20
-5.2239
 40
0.0425
 50
309.6750217
 51
39.62520057
  0
LINE
  8
LAYER_2
 10
2.9444
 20
-5.2566
 11
2.787
 21
-5.3874
  0
ARC
  8
LAYER_2
 10
2.7598
 20
-5.3544
 40
0.0428
 50
270.1928923
 51
309.5694819
  0
LINE
  8
LAYER_2
 10
4.8353
 20
-5.3972
 11
4.1849
 21
-5.3972
  0
ARC
  8
LAYER_2
 10
4.1849
 20
-5.3545
 40
0.0427
 50
227.5512866
 51
269.9477024
  0
LINE
  8
LAYER_2
 10
4.1561
 20
-5.386
 11
4.0137
 21
-5.2552
  0
ARC
  8
LAYER_2
 10
4.0425
 20
-5.2239
 40
0.0425
 50
137.4417418
 51
227.3301462
  0
ARC
  8
LAYER_2
 10
4.0426
 20
-5.224
 40
0.0426
 50
47.50820675
 51
137.446076
  0
LINE
  8
LAYER_2
 10
4.0713
 20
-5.1926
 11
4.2014
 21
-5.3122
  0
LINE
  8
LAYER_2
 10
4.2014
 20
-5.3122
 11
4.82
 21
-5.3122
  0
LINE
  8
LAYER_2
 10
4.82
 20
-5.3122
 11
4.9656
 21
-5.1913
  0
ARC
  8
LAYER_2
 10
4.9928
 20
-5.2239
 40
0.0425
 50
39.72928204
 51
129.7609283
  0
ARC
  8
LAYER_2
 10
4.9927
 20
-5.2239
 40
0.0425
 50
309.7554364
 51
39.73477395
  0
LINE
  8
LAYER_2
 10
5.0199
 20
-5.2566
 11
4.8625
 21
-5.3874
  0
ARC
  8
LAYER_2
 10
4.8352
 20
-5.3542
 40
0.043
 50
270.1919019
 51
309.4356846
  0
LINE
  8
LAYER_2
 10
6.9108
 20
-5.3972
 11
6.2603
 21
-5.3972
  0
ARC
  8
LAYER_2
 10
6.2604
 20
-5.3545
 40
0.0427
 50
227.5485206
 51
269.8156549
  0
LINE
  8
LAYER_2
 10
6.2316
 20
-5.386
 11
6.0892
 21
-5.2552
  0
ARC
  8
LAYER_2
 10
6.118
 20
-5.2239
 40
0.0425
 50
137.4147649
 51
227.3571231
  0
ARC
  8
LAYER_2
 10
6.118
 20
-5.224
 40
0.0425
 50
47.55566842
 51
137.4068612
  0
LINE
  8
LAYER_2
 10
6.1467
 20
-5.1926
 11
6.2769
 21
-5.3122
  0
LINE
  8
LAYER_2
 10
6.2769
 20
-5.3122
 11
6.8954
 21
-5.3122
  0
LINE
  8
LAYER_2
 10
6.8954
 20
-5.3122
 11
7.041
 21
-5.1913
  0
ARC
  8
LAYER_2
 10
7.0682
 20
-5.2239
 40
0.0425
 50
39.69999128
 51
129.8076667
  0
ARC
  8
LAYER_2
 10
7.0682
 20
-5.2239
 40
0.0425
 50
309.6436892
 51
39.65653307
  0
LINE
  8
LAYER_2
 10
7.0953
 20
-5.2566
 11
6.9379
 21
-5.3874
  0
ARC
  8
LAYER_2
 10
6.9107
 20
-5.3544
 40
0.0428
 50
270.1928923
 51
309.5694819
  0
ARC
  8
LAYER_2
 10
3.0025
 20
-5.4796
 40
0.043
 50
220.0865851
 51
269.7645763
  0
ARC
  8
LAYER_2
 10
3.0023
 20
-5.4801
 40
0.0425
 50
129.7217217
 51
219.7859363
  0
LINE
  8
LAYER_2
 10
2.9751
 20
-5.4474
 11
3.1325
 21
-5.3167
  0
ARC
  8
LAYER_2
 10
3.1598
 20
-5.3499
 40
0.043
 50
90.18890435
 51
129.4386821
  0
LINE
  8
LAYER_2
 10
3.1597
 20
-5.3069
 11
3.8101
 21
-5.3069
  0
ARC
  8
LAYER_2
 10
3.8101
 20
-5.3499
 40
0.043
 50
47.88251737
 51
89.96249437
  0
LINE
  8
LAYER_2
 10
3.8389
 20
-5.318
 11
3.9813
 21
-5.4488
  0
ARC
  8
LAYER_2
 10
3.9525
 20
-5.4801
 40
0.0425
 50
317.3953179
 51
47.36863939
  0
ARC
  8
LAYER_2
 10
3.9525
 20
-5.4801
 40
0.0425
 50
227.3914942
 51
317.3724631
  0
LINE
  8
LAYER_2
 10
3.9237
 20
-5.5114
 11
3.7936
 21
-5.3918
  0
LINE
  8
LAYER_2
 10
3.7936
 20
-5.3918
 11
3.175
 21
-5.3918
  0
LINE
  8
LAYER_2
 10
3.175
 20
-5.3918
 11
3.0294
 21
-5.5128
  0
LINE
  8
LAYER_2
 10
3.0294
 20
-5.5128
 11
3.0023
 21
-5.5226
  0
ARC
  8
LAYER_2
 10
0.932
 20
-5.4796
 40
0.043
 50
220.0865851
 51
269.7645763
  0
ARC
  8
LAYER_2
 10
0.9318
 20
-5.4801
 40
0.0425
 50
129.7594642
 51
219.7481937
  0
LINE
  8
LAYER_2
 10
0.9046
 20
-5.4474
 11
1.0621
 21
-5.3167
  0
ARC
  8
LAYER_2
 10
1.0893
 20
-5.3497
 40
0.0428
 50
90.19289224
 51
129.5694819
  0
LINE
  8
LAYER_2
 10
1.0892
 20
-5.3069
 11
1.7397
 21
-5.3069
  0
ARC
  8
LAYER_2
 10
1.7398
 20
-5.3493
 40
0.0424
 50
47.56757794
 51
90.14351026
  0
LINE
  8
LAYER_2
 10
1.7684
 20
-5.318
 11
1.9108
 21
-5.4488
  0
ARC
  8
LAYER_2
 10
1.882
 20
-5.4801
 40
0.0425
 50
317.3630599
 51
47.40089737
  0
ARC
  8
LAYER_2
 10
1.882
 20
-5.4801
 40
0.0425
 50
227.455693
 51
317.3161951
  0
LINE
  8
LAYER_2
 10
1.8533
 20
-5.5114
 11
1.7231
 21
-5.3918
  0
LINE
  8
LAYER_2
 10
1.7231
 20
-5.3918
 11
1.1046
 21
-5.3918
  0
LINE
  8
LAYER_2
 10
1.1046
 20
-5.3918
 11
0.959
 21
-5.5128
  0
LINE
  8
LAYER_2
 10
0.959
 20
-5.5128
 11
0.9318
 21
-5.5226
  0
ARC
  8
LAYER_2
 10
5.0831
 20
-5.4792
 40
0.0434
 50
220.3636674
 51
269.6216729
  0
ARC
  8
LAYER_2
 10
5.0827
 20
-5.4801
 40
0.0425
 50
129.6331811
 51
219.6848004
  0
LINE
  8
LAYER_2
 10
5.0556
 20
-5.4474
 11
5.213
 21
-5.3167
  0
ARC
  8
LAYER_2
 10
5.2402
 20
-5.3497
 40
0.0428
 50
90.19289224
 51
129.5694819
  0
LINE
  8
LAYER_2
 10
5.2401
 20
-5.3069
 11
5.8906
 21
-5.3069
  0
ARC
  8
LAYER_2
 10
5.8906
 20
-5.3499
 40
0.043
 50
47.90320146
 51
89.94181029
  0
LINE
  8
LAYER_2
 10
5.9194
 20
-5.318
 11
6.0617
 21
-5.4488
  0
ARC
  8
LAYER_2
 10
6.0329
 20
-5.4802
 40
0.0425
 50
317.4918264
 51
47.46245634
  0
ARC
  8
LAYER_2
 10
6.033
 20
-5.4801
 40
0.0426
 50
227.4134476
 51
317.3505098
  0
LINE
  8
LAYER_2
 10
6.0042
 20
-5.5114
 11
5.874
 21
-5.3918
  0
LINE
  8
LAYER_2
 10
5.874
 20
-5.3918
 11
5.2555
 21
-5.3918
  0
LINE
  8
LAYER_2
 10
5.2555
 20
-5.3918
 11
5.1099
 21
-5.5128
  0
LINE
  8
LAYER_2
 10
5.1099
 20
-5.5128
 11
5.0828
 21
-5.5226
  0
LINE
  8
LAYER_2
 10
2.7499
 20
-6.2473
 11
2.0994
 21
-6.2473
  0
ARC
  8
LAYER_2
 10
2.0996
 20
-6.1994
 40
0.0479
 50
227.6661468
 51
269.7811701
  0
LINE
  8
LAYER_2
 10
2.0673
 20
-6.2348
 11
1.9249
 21
-6.104
  0
ARC
  8
LAYER_2
 10
1.957
 20
-6.0691
 40
0.0475
 50
137.3788659
 51
227.4001256
  0
ARC
  8
LAYER_2
 10
1.9571
 20
-6.069
 40
0.0475
 50
47.46828555
 51
137.4811756
  0
LINE
  8
LAYER_2
 10
1.9892
 20
-6.034
 11
2.1179
 21
-6.1523
  0
LINE
  8
LAYER_2
 10
2.1179
 20
-6.1523
 11
2.7327
 21
-6.1523
  0
LINE
  8
LAYER_2
 10
2.7327
 20
-6.1523
 11
2.8769
 21
-6.0325
  0
ARC
  8
LAYER_2
 10
2.907
 20
-6.0715
 40
0.0493
 50
41.76532312
 51
127.6450794
  0
ARC
  8
LAYER_2
 10
2.9073
 20
-6.0691
 40
0.0475
 50
309.7024744
 51
39.70792812
  0
LINE
  8
LAYER_2
 10
2.9376
 20
-6.1056
 11
2.7802
 21
-6.2363
  0
ARC
  8
LAYER_2
 10
2.7497
 20
-6.1996
 40
0.0477
 50
270.2132787
 51
309.6921915
  0
LINE
  8
LAYER_2
 10
4.8403
 20
-6.2473
 11
4.1898
 21
-6.2473
  0
ARC
  8
LAYER_2
 10
4.1902
 20
-6.1988
 40
0.0485
 50
227.9168592
 51
269.5304576
  0
LINE
  8
LAYER_2
 10
4.1577
 20
-6.2348
 11
4.0154
 21
-6.104
  0
ARC
  8
LAYER_2
 10
4.0475
 20
-6.069
 40
0.0475
 50
137.4717652
 51
227.4776959
  0
ARC
  8
LAYER_2
 10
4.0475
 20
-6.069
 40
0.0475
 50
47.4805158
 51
137.4689453
  0
LINE
  8
LAYER_2
 10
4.0796
 20
-6.034
 11
4.2084
 21
-6.1523
  0
LINE
  8
LAYER_2
 10
4.2084
 20
-6.1523
 11
4.8232
 21
-6.1523
  0
LINE
  8
LAYER_2
 10
4.8232
 20
-6.1523
 11
4.9674
 21
-6.0325
  0
ARC
  8
LAYER_2
 10
4.9978
 20
-6.069
 40
0.0475
 50
39.67943341
 51
129.7309691
  0
ARC
  8
LAYER_2
 10
4.9977
 20
-6.069
 40
0.0475
 50
309.7328629
 51
39.67753962
  0
LINE
  8
LAYER_2
 10
5.0281
 20
-6.1056
 11
4.8707
 21
-6.2363
  0
ARC
  8
LAYER_2
 10
4.8401
 20
-6.1993
 40
0.048
 50
270.1991781
 51
309.585336
  0
LINE
  8
LAYER_2
 10
6.9308
 20
-6.2473
 11
6.2803
 21
-6.2473
  0
ARC
  8
LAYER_2
 10
6.2805
 20
-6.1994
 40
0.0479
 50
227.6661468
 51
269.7811701
  0
LINE
  8
LAYER_2
 10
6.2482
 20
-6.2348
 11
6.1058
 21
-6.104
  0
ARC
  8
LAYER_2
 10
6.138
 20
-6.069
 40
0.0475
 50
137.3956089
 51
227.3833826
  0
ARC
  8
LAYER_2
 10
6.1381
 20
-6.0717
 40
0.0494
 50
49.6611547
 51
135.2883064
  0
LINE
  8
LAYER_2
 10
6.1701
 20
-6.034
 11
6.2988
 21
-6.1523
  0
LINE
  8
LAYER_2
 10
6.2988
 20
-6.1523
 11
6.9136
 21
-6.1523
  0
LINE
  8
LAYER_2
 10
6.9136
 20
-6.1523
 11
7.0578
 21
-6.0325
  0
ARC
  8
LAYER_2
 10
7.0882
 20
-6.069
 40
0.0475
 50
39.66278366
 51
129.7476189
  0
ARC
  8
LAYER_2
 10
7.0882
 20
-6.0691
 40
0.0475
 50
309.6758652
 51
39.73453733
  0
LINE
  8
LAYER_2
 10
7.1185
 20
-6.1056
 11
6.9611
 21
-6.2363
  0
ARC
  8
LAYER_2
 10
6.9306
 20
-6.1996
 40
0.0477
 50
270.195008
 51
309.7104622
  0
ARC
  8
LAYER_2
 10
3.0025
 20
-6.3246
 40
0.0481
 50
220.1327065
 51
269.7820971
  0
ARC
  8
LAYER_2
 10
3.0023
 20
-6.3253
 40
0.0475
 50
129.7188056
 51
219.691597
  0
LINE
  8
LAYER_2
 10
2.9719
 20
-6.2887
 11
3.1293
 21
-6.1579
  0
ARC
  8
LAYER_2
 10
3.1599
 20
-6.1949
 40
0.048
 50
90.19872691
 51
129.5857872
  0
LINE
  8
LAYER_2
 10
3.1597
 20
-6.1469
 11
3.8101
 21
-6.1469
  0
ARC
  8
LAYER_2
 10
3.8098
 20
-6.1955
 40
0.0486
 50
47.95332352
 51
89.61437572
  0
LINE
  8
LAYER_2
 10
3.8423
 20
-6.1594
 11
3.9846
 21
-6.2902
  0
ARC
  8
LAYER_2
 10
3.9525
 20
-6.3252
 40
0.0475
 50
317.4828804
 51
47.46658079
  0
ARC
  8
LAYER_2
 10
3.9525
 20
-6.3252
 40
0.0475
 50
227.4758885
 51
317.4735727
  0
LINE
  8
LAYER_2
 10
3.9204
 20
-6.3602
 11
3.7916
 21
-6.2419
  0
LINE
  8
LAYER_2
 10
3.7916
 20
-6.2419
 11
3.1768
 21
-6.2419
  0
LINE
  8
LAYER_2
 10
3.1768
 20
-6.2419
 11
3.0326
 21
-6.3617
  0
ARC
  8
LAYER_2
 10
3.0021
 20
-6.325
 40
0.0477
 50
270.1883427
 51
309.7171274
  0
ARC
  8
LAYER_2
 10
0.912
 20
-6.3247
 40
0.048
 50
220.0676448
 51
269.7268185
  0
ARC
  8
LAYER_2
 10
0.9118
 20
-6.3252
 40
0.0475
 50
129.8009935
 51
219.7792614
  0
LINE
  8
LAYER_2
 10
0.8814
 20
-6.2887
 11
1.0389
 21
-6.1579
  0
ARC
  8
LAYER_2
 10
1.0694
 20
-6.1946
 40
0.0477
 50
90.19500794
 51
129.7104621
  0
LINE
  8
LAYER_2
 10
1.0692
 20
-6.1469
 11
1.7197
 21
-6.1469
  0
ARC
  8
LAYER_2
 10
1.7193
 20
-6.1954
 40
0.0485
 50
47.91685923
 51
89.53045762
  0
LINE
  8
LAYER_2
 10
1.7518
 20
-6.1594
 11
1.8942
 21
-6.2902
  0
ARC
  8
LAYER_2
 10
1.862
 20
-6.3252
 40
0.0475
 50
317.4089232
 51
47.37006818
  0
ARC
  8
LAYER_2
 10
1.862
 20
-6.3252
 40
0.0475
 50
227.4744471
 51
317.4750141
  0
LINE
  8
LAYER_2
 10
1.8299
 20
-6.3602
 11
1.7012
 21
-6.2419
  0
LINE
  8
LAYER_2
 10
1.7012
 20
-6.2419
 11
1.0864
 21
-6.2419
  0
LINE
  8
LAYER_2
 10
1.0864
 20
-6.2419
 11
0.9422
 21
-6.3617
  0
ARC
  8
LAYER_2
 10
0.9116
 20
-6.3247
 40
0.048
 50
270.1918302
 51
309.592684
  0
ARC
  8
LAYER_2
 10
5.0929
 20
-6.3247
 40
0.048
 50
220.0765639
 51
269.8382397
  0
ARC
  8
LAYER_2
 10
5.0927
 20
-6.3252
 40
0.0475
 50
129.6899647
 51
219.7204378
  0
LINE
  8
LAYER_2
 10
5.0624
 20
-6.2887
 11
5.2198
 21
-6.1579
  0
ARC
  8
LAYER_2
 10
5.2503
 20
-6.1946
 40
0.0477
 50
90.19500794
 51
129.7104621
  0
LINE
  8
LAYER_2
 10
5.2501
 20
-6.1469
 11
5.9006
 21
-6.1469
  0
ARC
  8
LAYER_2
 10
5.9004
 20
-6.1948
 40
0.0479
 50
47.66614676
 51
89.78117008
  0
LINE
  8
LAYER_2
 10
5.9327
 20
-6.1594
 11
6.0751
 21
-6.2902
  0
ARC
  8
LAYER_2
 10
6.043
 20
-6.3251
 40
0.0475
 50
317.3874037
 51
47.39158775
  0
ARC
  8
LAYER_2
 10
6.0429
 20
-6.3252
 40
0.0475
 50
227.4560034
 51
317.4934578
  0
LINE
  8
LAYER_2
 10
6.0108
 20
-6.3602
 11
5.8821
 21
-6.2419
  0
LINE
  8
LAYER_2
 10
5.8821
 20
-6.2419
 11
5.2673
 21
-6.2419
  0
LINE
  8
LAYER_2
 10
5.2673
 20
-6.2419
 11
5.1231
 21
-6.3617
  0
ARC
  8
LAYER_2
 10
5.0926
 20
-6.325
 40
0.0477
 50
270.1883427
 51
309.7171274
  0
LINE
  8
LAYER_2
 10
2.6662
 20
-7.1199
 11
2.0158
 21
-7.1199
  0
ARC
  8
LAYER_2
 10
2.0163
 20
-7.0436
 40
0.0763
 50
227.7665794
 51
269.6453506
  0
LINE
  8
LAYER_2
 10
1.965
 20
-7.1001
 11
1.8227
 21
-6.9693
  0
ARC
  8
LAYER_2
 10
1.8734
 20
-6.9141
 40
0.075
 50
137.4150694
 51
227.4467473
  0
ARC
  8
LAYER_2
 10
1.8735
 20
-6.9141
 40
0.075
 50
47.43770868
 51
137.424108
  0
LINE
  8
LAYER_2
 10
1.9242
 20
-6.8588
 11
2.045
 21
-6.9699
  0
LINE
  8
LAYER_2
 10
2.045
 20
-6.9699
 11
2.6392
 21
-6.9699
  0
LINE
  8
LAYER_2
 10
2.6392
 20
-6.9699
 11
2.7757
 21
-6.8564
  0
ARC
  8
LAYER_2
 10
2.8236
 20
-6.9141
 40
0.075
 50
39.77294513
 51
129.730581
  0
ARC
  8
LAYER_2
 10
2.8236
 20
-6.9141
 40
0.075
 50
309.7340804
 51
39.77932083
  0
LINE
  8
LAYER_2
 10
2.8716
 20
-6.9718
 11
2.7142
 21
-7.1026
  0
ARC
  8
LAYER_2
 10
2.6659
 20
-7.0438
 40
0.0761
 50
270.2257404
 51
309.4142752
  0
LINE
  8
LAYER_2
 10
4.8667
 20
-7.1199
 11
4.2162
 21
-7.1199
  0
ARC
  8
LAYER_2
 10
4.2166
 20
-7.0442
 40
0.0757
 50
227.6123267
 51
269.7231471
  0
LINE
  8
LAYER_2
 10
4.1655
 20
-7.1001
 11
4.0231
 21
-6.9693
  0
ARC
  8
LAYER_2
 10
4.0739
 20
-6.9141
 40
0.075
 50
137.3688848
 51
227.3850169
  0
ARC
  8
LAYER_2
 10
4.0739
 20
-6.9141
 40
0.075
 50
47.47868266
 51
137.3877194
  0
LINE
  8
LAYER_2
 10
4.1246
 20
-6.8588
 11
4.2455
 21
-6.9699
  0
LINE
  8
LAYER_2
 10
4.2455
 20
-6.9699
 11
4.8396
 21
-6.9699
  0
LINE
  8
LAYER_2
 10
4.8396
 20
-6.9699
 11
4.9762
 21
-6.8564
  0
ARC
  8
LAYER_2
 10
5.0241
 20
-6.9141
 40
0.075
 50
39.77958789
 51
129.7239382
  0
ARC
  8
LAYER_2
 10
5.0241
 20
-6.9141
 40
0.075
 50
309.6676257
 51
39.7382781
  0
LINE
  8
LAYER_2
 10
5.072
 20
-6.9718
 11
4.9146
 21
-7.1026
  0
ARC
  8
LAYER_2
 10
4.8664
 20
-7.044
 40
0.0759
 50
270.2474489
 51
309.4688584
  0
LINE
  8
LAYER_2
 10
7.0672
 20
-7.1199
 11
6.4167
 21
-7.1199
  0
ARC
  8
LAYER_2
 10
6.4171
 20
-7.0442
 40
0.0757
 50
227.6123267
 51
269.7231471
  0
LINE
  8
LAYER_2
 10
6.366
 20
-7.1001
 11
6.2236
 21
-6.9693
  0
ARC
  8
LAYER_2
 10
6.2743
 20
-6.9141
 40
0.075
 50
137.4277205
 51
227.4340962
  0
ARC
  8
LAYER_2
 10
6.2744
 20
-6.9141
 40
0.075
 50
47.43851491
 51
137.4233017
  0
LINE
  8
LAYER_2
 10
6.3251
 20
-6.8588
 11
6.4459
 21
-6.9699
  0
LINE
  8
LAYER_2
 10
6.4459
 20
-6.9699
 11
7.0401
 21
-6.9699
  0
LINE
  8
LAYER_2
 10
7.0401
 20
-6.9699
 11
7.1766
 21
-6.8564
  0
ARC
  8
LAYER_2
 10
7.2246
 20
-6.9141
 40
0.0751
 50
39.76395957
 51
129.7494416
  0
ARC
  8
LAYER_2
 10
7.2246
 20
-6.9141
 40
0.075
 50
309.6848839
 51
39.72101986
  0
LINE
  8
LAYER_2
 10
7.2725
 20
-6.9718
 11
7.1151
 21
-7.1026
  0
ARC
  8
LAYER_2
 10
7.0669
 20
-7.044
 40
0.0759
 50
270.2590025
 51
309.4573048
  0
ARC
  8
LAYER_2
 10
2.974
 20
-7.1696
 40
0.0757
 50
219.9456734
 51
269.738188
  0
ARC
  8
LAYER_2
 10
2.9737
 20
-7.1703
 40
0.075
 50
129.7590775
 51
219.7444486
  0
LINE
  8
LAYER_2
 10
2.9257
 20
-7.1126
 11
3.0831
 21
-6.9818
  0
ARC
  8
LAYER_2
 10
3.1313
 20
-7.0403
 40
0.0758
 50
90.14907142
 51
129.4909441
  0
LINE
  8
LAYER_2
 10
3.1311
 20
-6.9645
 11
3.7815
 21
-6.9645
  0
ARC
  8
LAYER_2
 10
3.7813
 20
-7.0402
 40
0.0757
 50
47.58724278
 51
89.82468709
  0
LINE
  8
LAYER_2
 10
3.8323
 20
-6.9843
 11
3.9746
 21
-7.115
  0
ARC
  8
LAYER_2
 10
3.9239
 20
-7.1702
 40
0.075
 50
317.4124844
 51
47.44933231
  0
ARC
  8
LAYER_2
 10
3.9239
 20
-7.1703
 40
0.075
 50
227.4018882
 51
317.4599285
  0
LINE
  8
LAYER_2
 10
3.8731
 20
-7.2255
 11
3.7523
 21
-7.1145
  0
LINE
  8
LAYER_2
 10
3.7523
 20
-7.1145
 11
3.1582
 21
-7.1145
  0
LINE
  8
LAYER_2
 10
3.1582
 20
-7.1145
 11
3.0216
 21
-7.228
  0
ARC
  8
LAYER_2
 10
2.9735
 20
-7.1697
 40
0.0756
 50
270.1817719
 51
309.5345355
  0
ARC
  8
LAYER_2
 10
0.7735
 20
-7.1696
 40
0.0757
 50
219.9456734
 51
269.738188
  0
ARC
  8
LAYER_2
 10
0.7732
 20
-7.1703
 40
0.075
 50
129.6961772
 51
219.6997515
  0
LINE
  8
LAYER_2
 10
0.7253
 20
-7.1126
 11
0.8827
 21
-6.9818
  0
ARC
  8
LAYER_2
 10
0.9308
 20
-7.0401
 40
0.0756
 50
90.16920315
 51
129.5471042
  0
LINE
  8
LAYER_2
 10
0.9306
 20
-6.9645
 11
1.5811
 21
-6.9645
  0
ARC
  8
LAYER_2
 10
1.581
 20
-7.0396
 40
0.0751
 50
47.43283539
 51
89.90263833
  0
LINE
  8
LAYER_2
 10
1.6318
 20
-6.9843
 11
1.7742
 21
-7.115
  0
ARC
  8
LAYER_2
 10
1.7234
 20
-7.1703
 40
0.075
 50
317.4468199
 51
47.41499675
  0
ARC
  8
LAYER_2
 10
1.7235
 20
-7.1703
 40
0.075
 50
227.4186082
 51
317.4432085
  0
LINE
  8
LAYER_2
 10
1.6727
 20
-7.2255
 11
1.5518
 21
-7.1145
  0
LINE
  8
LAYER_2
 10
1.5518
 20
-7.1145
 11
0.9577
 21
-7.1145
  0
LINE
  8
LAYER_2
 10
0.9577
 20
-7.1145
 11
0.8211
 21
-7.228
  0
ARC
  8
LAYER_2
 10
0.773
 20
-7.1697
 40
0.0756
 50
270.1817719
 51
309.5345355
  0
ARC
  8
LAYER_2
 10
5.1746
 20
-7.1693
 40
0.076
 50
220.0308306
 51
269.7293413
  0
ARC
  8
LAYER_2
 10
5.1741
 20
-7.1703
 40
0.075
 50
129.7088249
 51
219.6871037
  0
LINE
  8
LAYER_2
 10
5.1262
 20
-7.1126
 11
5.2836
 21
-6.9818
  0
ARC
  8
LAYER_2
 10
5.3317
 20
-7.0401
 40
0.0756
 50
90.18294445
 51
129.5333629
  0
LINE
  8
LAYER_2
 10
5.3315
 20
-6.9645
 11
5.982
 21
-6.9645
  0
ARC
  8
LAYER_2
 10
5.9819
 20
-7.0396
 40
0.0751
 50
47.43283539
 51
89.90263833
  0
LINE
  8
LAYER_2
 10
6.0327
 20
-6.9843
 11
6.1751
 21
-7.115
  0
ARC
  8
LAYER_2
 10
6.1243
 20
-7.1703
 40
0.075
 50
317.4341777
 51
47.42763893
  0
ARC
  8
LAYER_2
 10
6.1244
 20
-7.1703
 40
0.075
 50
227.3987419
 51
317.4630748
  0
LINE
  8
LAYER_2
 10
6.0736
 20
-7.2255
 11
5.9528
 21
-7.1145
  0
LINE
  8
LAYER_2
 10
5.9528
 20
-7.1145
 11
5.3586
 21
-7.1145
  0
LINE
  8
LAYER_2
 10
5.3586
 20
-7.1145
 11
5.2221
 21
-7.228
  0
ARC
  8
LAYER_2
 10
5.1739
 20
-7.1695
 40
0.0758
 50
270.2363572
 51
309.4799502
  0
INSERT
  8
LAYER_3
  2
AIGNBL03010002
 10
0
 20
0
 30
0
  0
INSERT
  8
LAYER_3
  2
AIGNBL03010003
 10
0
 20
0
 30
0
  0
LINE
  8
LAYER_3
 10
2.8041
 20
-3.7326
 11
2.1536
 21
-3.7326
  0
LINE
  8
LAYER_3
 10
2.1536
 20
-3.7326
 11
2.1333
 21
-3.7247
  0
LINE
  8
LAYER_3
 10
2.1333
 20
-3.7247
 11
1.991
 21
-3.5939
  0
ARC
  8
LAYER_3
 10
2.013
 20
-3.5717
 40
0.0312
 50
139.5761352
 51
225.2856815
  0
ARC
  8
LAYER_3
 10
2.0114
 20
-3.5735
 40
0.0312
 50
49.57613519
 51
135.2856815
  0
LINE
  8
LAYER_3
 10
2.0316
 20
-3.5497
 11
2.1653
 21
-3.6726
  0
LINE
  8
LAYER_3
 10
2.1653
 20
-3.6726
 11
2.7933
 21
-3.6726
  0
LINE
  8
LAYER_3
 10
2.7933
 20
-3.6726
 11
2.9423
 21
-3.5488
  0
ARC
  8
LAYER_3
 10
2.9614
 20
-3.5735
 40
0.0312
 50
41.78147211
 51
127.6831336
  0
ARC
  8
LAYER_3
 10
2.9599
 20
-3.5717
 40
0.0312
 50
311.8649707
 51
37.57481059
  0
LINE
  8
LAYER_3
 10
2.9807
 20
-3.5949
 11
2.8233
 21
-3.7257
  0
LINE
  8
LAYER_3
 10
2.8233
 20
-3.7257
 11
2.8041
 21
-3.7326
  0
LINE
  8
LAYER_3
 10
4.8211
 20
-3.7326
 11
4.1706
 21
-3.7326
  0
LINE
  8
LAYER_3
 10
4.1706
 20
-3.7326
 11
4.1503
 21
-3.7247
  0
LINE
  8
LAYER_3
 10
4.1503
 20
-3.7247
 11
4.008
 21
-3.5939
  0
ARC
  8
LAYER_3
 10
4.03
 20
-3.5717
 40
0.0312
 50
139.5761352
 51
225.2856815
  0
ARC
  8
LAYER_3
 10
4.0284
 20
-3.5735
 40
0.0312
 50
49.57690027
 51
135.2849164
  0
LINE
  8
LAYER_3
 10
4.0486
 20
-3.5497
 11
4.1823
 21
-3.6726
  0
LINE
  8
LAYER_3
 10
4.1823
 20
-3.6726
 11
4.8102
 21
-3.6726
  0
LINE
  8
LAYER_3
 10
4.8102
 20
-3.6726
 11
4.9593
 21
-3.5488
  0
ARC
  8
LAYER_3
 10
4.9784
 20
-3.5735
 40
0.0312
 50
41.78147211
 51
127.6831336
  0
ARC
  8
LAYER_3
 10
4.9769
 20
-3.5717
 40
0.0312
 50
311.8649707
 51
37.57481059
  0
LINE
  8
LAYER_3
 10
4.9977
 20
-3.5949
 11
4.8403
 21
-3.7257
  0
LINE
  8
LAYER_3
 10
4.8403
 20
-3.7257
 11
4.8211
 21
-3.7326
  0
LINE
  8
LAYER_3
 10
6.8416
 20
-3.7326
 11
6.1911
 21
-3.7326
  0
LINE
  8
LAYER_3
 10
6.1911
 20
-3.7326
 11
6.1708
 21
-3.7247
  0
LINE
  8
LAYER_3
 10
6.1708
 20
-3.7247
 11
6.0284
 21
-3.5939
  0
ARC
  8
LAYER_3
 10
6.0504
 20
-3.5717
 40
0.0312
 50
139.5761352
 51
225.2856815
  0
ARC
  8
LAYER_3
 10
6.0488
 20
-3.5735
 40
0.0312
 50
49.57613519
 51
135.2856815
  0
LINE
  8
LAYER_3
 10
6.069
 20
-3.5497
 11
6.2028
 21
-3.6726
  0
LINE
  8
LAYER_3
 10
6.2028
 20
-3.6726
 11
6.8307
 21
-3.6726
  0
LINE
  8
LAYER_3
 10
6.8307
 20
-3.6726
 11
6.9798
 21
-3.5488
  0
ARC
  8
LAYER_3
 10
6.9988
 20
-3.5733
 40
0.031
 50
41.66533533
 51
127.7744459
  0
ARC
  8
LAYER_3
 10
6.9974
 20
-3.5717
 40
0.0311
 50
311.7073212
 51
37.73246008
  0
LINE
  8
LAYER_3
 10
7.0181
 20
-3.5949
 11
6.8607
 21
-3.7257
  0
LINE
  8
LAYER_3
 10
6.8607
 20
-3.7257
 11
6.8416
 21
-3.7326
  0
ARC
  8
LAYER_3
 10
3.0182
 20
-3.8277
 40
0.0303
 50
220.0923811
 51
269.6013847
  0
ARC
  8
LAYER_3
 10
3.0197
 20
-3.8281
 40
0.0312
 50
131.7814721
 51
217.6831337
  0
LINE
  8
LAYER_3
 10
2.9989
 20
-3.8049
 11
3.1563
 21
-3.6742
  0
LINE
  8
LAYER_3
 10
3.1563
 20
-3.6742
 11
3.1754
 21
-3.6672
  0
LINE
  8
LAYER_3
 10
3.1754
 20
-3.6672
 11
3.8259
 21
-3.6672
  0
LINE
  8
LAYER_3
 10
3.8259
 20
-3.6672
 11
3.8462
 21
-3.6751
  0
LINE
  8
LAYER_3
 10
3.8462
 20
-3.6751
 11
3.9886
 21
-3.8059
  0
ARC
  8
LAYER_3
 10
3.9666
 20
-3.8281
 40
0.0312
 50
319.5761352
 51
45.28568147
  0
ARC
  8
LAYER_3
 10
3.9682
 20
-3.8264
 40
0.0312
 50
229.5752851
 51
315.2865316
  0
LINE
  8
LAYER_3
 10
3.948
 20
-3.8501
 11
3.8142
 21
-3.7272
  0
LINE
  8
LAYER_3
 10
3.8142
 20
-3.7272
 11
3.1863
 21
-3.7272
  0
LINE
  8
LAYER_3
 10
3.1863
 20
-3.7272
 11
3.0372
 21
-3.8511
  0
LINE
  8
LAYER_3
 10
3.0372
 20
-3.8511
 11
3.018
 21
-3.858
  0
ARC
  8
LAYER_3
 10
1.0012
 20
-3.8277
 40
0.0303
 50
220.0923811
 51
269.6013847
  0
ARC
  8
LAYER_3
 10
1.0027
 20
-3.8281
 40
0.0312
 50
131.7814721
 51
217.6831337
  0
LINE
  8
LAYER_3
 10
0.9819
 20
-3.8049
 11
1.1393
 21
-3.6742
  0
LINE
  8
LAYER_3
 10
1.1393
 20
-3.6742
 11
1.1584
 21
-3.6672
  0
LINE
  8
LAYER_3
 10
1.1584
 20
-3.6672
 11
1.8089
 21
-3.6672
  0
LINE
  8
LAYER_3
 10
1.8089
 20
-3.6672
 11
1.8292
 21
-3.6751
  0
LINE
  8
LAYER_3
 10
1.8292
 20
-3.6751
 11
1.9716
 21
-3.8059
  0
ARC
  8
LAYER_3
 10
1.9496
 20
-3.8281
 40
0.0312
 50
319.5761352
 51
45.28568147
  0
ARC
  8
LAYER_3
 10
1.9512
 20
-3.8264
 40
0.0312
 50
229.5752851
 51
315.2865316
  0
LINE
  8
LAYER_3
 10
1.931
 20
-3.8501
 11
1.7972
 21
-3.7272
  0
LINE
  8
LAYER_3
 10
1.7972
 20
-3.7272
 11
1.1693
 21
-3.7272
  0
LINE
  8
LAYER_3
 10
1.1693
 20
-3.7272
 11
1.0202
 21
-3.8511
  0
LINE
  8
LAYER_3
 10
1.0202
 20
-3.8511
 11
1.001
 21
-3.858
  0
ARC
  8
LAYER_3
 10
5.0389
 20
-3.8271
 40
0.0309
 50
220.5350063
 51
269.3497628
  0
ARC
  8
LAYER_3
 10
5.0402
 20
-3.8282
 40
0.0313
 50
131.9389106
 51
217.5256951
  0
LINE
  8
LAYER_3
 10
5.0193
 20
-3.8049
 11
5.1768
 21
-3.6742
  0
LINE
  8
LAYER_3
 10
5.1768
 20
-3.6742
 11
5.1959
 21
-3.6672
  0
LINE
  8
LAYER_3
 10
5.1959
 20
-3.6672
 11
5.8464
 21
-3.6672
  0
LINE
  8
LAYER_3
 10
5.8464
 20
-3.6672
 11
5.8667
 21
-3.6751
  0
LINE
  8
LAYER_3
 10
5.8667
 20
-3.6751
 11
6.009
 21
-3.8059
  0
ARC
  8
LAYER_3
 10
5.987
 20
-3.8281
 40
0.0312
 50
319.5761352
 51
45.28568147
  0
ARC
  8
LAYER_3
 10
5.9886
 20
-3.8263
 40
0.0312
 50
229.5761352
 51
315.2856815
  0
LINE
  8
LAYER_3
 10
5.9684
 20
-3.8501
 11
5.8347
 21
-3.7272
  0
LINE
  8
LAYER_3
 10
5.8347
 20
-3.7272
 11
5.2068
 21
-3.7272
  0
LINE
  8
LAYER_3
 10
5.2068
 20
-3.7272
 11
5.0577
 21
-3.8511
  0
LINE
  8
LAYER_3
 10
5.0577
 20
-3.8511
 11
5.0385
 21
-3.858
  0
LINE
  8
LAYER_3
 10
2.7868
 20
-4.5604
 11
2.1363
 21
-4.5604
  0
LINE
  8
LAYER_3
 10
2.1363
 20
-4.5604
 11
2.1127
 21
-4.5512
  0
LINE
  8
LAYER_3
 10
2.1127
 20
-4.5512
 11
1.9703
 21
-4.4204
  0
ARC
  8
LAYER_3
 10
1.9958
 20
-4.3946
 40
0.0363
 50
139.5377401
 51
225.3306299
  0
ARC
  8
LAYER_3
 10
1.9941
 20
-4.3965
 40
0.0363
 50
49.46664459
 51
135.391902
  0
LINE
  8
LAYER_3
 10
2.0177
 20
-4.3689
 11
2.15
 21
-4.4904
  0
LINE
  8
LAYER_3
 10
2.15
 20
-4.4904
 11
2.7742
 21
-4.4904
  0
LINE
  8
LAYER_3
 10
2.7742
 20
-4.4904
 11
2.9218
 21
-4.3677
  0
ARC
  8
LAYER_3
 10
2.944
 20
-4.3966
 40
0.0364
 50
41.81993543
 51
127.5188192
  0
ARC
  8
LAYER_3
 10
2.9423
 20
-4.3945
 40
0.0364
 50
311.9439817
 51
37.62524699
  0
LINE
  8
LAYER_3
 10
2.9666
 20
-4.4216
 11
2.8092
 21
-4.5523
  0
LINE
  8
LAYER_3
 10
2.8092
 20
-4.5523
 11
2.7868
 21
-4.5604
  0
LINE
  8
LAYER_3
 10
4.8373
 20
-4.5604
 11
4.1868
 21
-4.5604
  0
LINE
  8
LAYER_3
 10
4.1868
 20
-4.5604
 11
4.1631
 21
-4.5512
  0
LINE
  8
LAYER_3
 10
4.1631
 20
-4.5512
 11
4.0208
 21
-4.4204
  0
ARC
  8
LAYER_3
 10
4.0462
 20
-4.3946
 40
0.0362
 50
139.4075457
 51
225.4608242
  0
ARC
  8
LAYER_3
 10
4.0445
 20
-4.3964
 40
0.0362
 50
49.40754574
 51
135.4608242
  0
LINE
  8
LAYER_3
 10
4.0681
 20
-4.3689
 11
4.2004
 21
-4.4904
  0
LINE
  8
LAYER_3
 10
4.2004
 20
-4.4904
 11
4.8246
 21
-4.4904
  0
LINE
  8
LAYER_3
 10
4.8246
 20
-4.4904
 11
4.9723
 21
-4.3677
  0
ARC
  8
LAYER_3
 10
4.9945
 20
-4.3966
 40
0.0364
 50
41.83018739
 51
127.5085672
  0
ARC
  8
LAYER_3
 10
4.9928
 20
-4.3945
 40
0.0364
 50
311.9439817
 51
37.62524699
  0
LINE
  8
LAYER_3
 10
5.0171
 20
-4.4216
 11
4.8596
 21
-4.5523
  0
LINE
  8
LAYER_3
 10
4.8596
 20
-4.5523
 11
4.8373
 21
-4.5604
  0
LINE
  8
LAYER_3
 10
6.8777
 20
-4.5604
 11
6.2273
 21
-4.5604
  0
LINE
  8
LAYER_3
 10
6.2273
 20
-4.5604
 11
6.2036
 21
-4.5512
  0
LINE
  8
LAYER_3
 10
6.2036
 20
-4.5512
 11
6.0612
 21
-4.4204
  0
ARC
  8
LAYER_3
 10
6.0869
 20
-4.3946
 40
0.0364
 50
139.664175
 51
225.2041949
  0
ARC
  8
LAYER_3
 10
6.085
 20
-4.3965
 40
0.0364
 50
49.47344032
 51
135.3851063
  0
LINE
  8
LAYER_3
 10
6.1086
 20
-4.3689
 11
6.2409
 21
-4.4904
  0
LINE
  8
LAYER_3
 10
6.2409
 20
-4.4904
 11
6.8651
 21
-4.4904
  0
LINE
  8
LAYER_3
 10
6.8651
 20
-4.4904
 11
7.0128
 21
-4.3677
  0
ARC
  8
LAYER_3
 10
7.035
 20
-4.3966
 40
0.0364
 50
41.84062874
 51
127.4981259
  0
ARC
  8
LAYER_3
 10
7.0332
 20
-4.3945
 40
0.0364
 50
311.8406288
 51
37.49812589
  0
LINE
  8
LAYER_3
 10
7.0575
 20
-4.4216
 11
6.9001
 21
-4.5523
  0
LINE
  8
LAYER_3
 10
6.9001
 20
-4.5523
 11
6.8777
 21
-4.5604
  0
ARC
  8
LAYER_3
 10
3.0244
 20
-4.6504
 40
0.0354
 50
220.1076307
 51
269.6954462
  0
ARC
  8
LAYER_3
 10
3.0261
 20
-4.651
 40
0.0364
 50
131.9368452
 51
217.6323834
  0
LINE
  8
LAYER_3
 10
3.0018
 20
-4.6239
 11
3.1593
 21
-4.4931
  0
LINE
  8
LAYER_3
 10
3.1593
 20
-4.4931
 11
3.1816
 21
-4.485
  0
LINE
  8
LAYER_3
 10
3.1816
 20
-4.485
 11
3.8321
 21
-4.485
  0
LINE
  8
LAYER_3
 10
3.8321
 20
-4.485
 11
3.8558
 21
-4.4943
  0
LINE
  8
LAYER_3
 10
3.8558
 20
-4.4943
 11
3.9981
 21
-4.6251
  0
ARC
  8
LAYER_3
 10
3.9727
 20
-4.6509
 40
0.0362
 50
319.3988626
 51
45.46950733
  0
ARC
  8
LAYER_3
 10
3.9744
 20
-4.6491
 40
0.0362
 50
229.4075458
 51
315.4608242
  0
LINE
  8
LAYER_3
 10
3.9508
 20
-4.6766
 11
3.8184
 21
-4.555
  0
LINE
  8
LAYER_3
 10
3.8184
 20
-4.555
 11
3.1943
 21
-4.555
  0
LINE
  8
LAYER_3
 10
3.1943
 20
-4.555
 11
3.0466
 21
-4.6778
  0
LINE
  8
LAYER_3
 10
3.0466
 20
-4.6778
 11
3.0242
 21
-4.6858
  0
ARC
  8
LAYER_3
 10
0.9739
 20
-4.6504
 40
0.0354
 50
220.1133246
 51
269.8528884
  0
ARC
  8
LAYER_3
 10
0.9757
 20
-4.651
 40
0.0364
 50
131.8301874
 51
217.5085673
  0
LINE
  8
LAYER_3
 10
0.9514
 20
-4.6239
 11
1.1088
 21
-4.4931
  0
LINE
  8
LAYER_3
 10
1.1088
 20
-4.4931
 11
1.1311
 21
-4.485
  0
LINE
  8
LAYER_3
 10
1.1311
 20
-4.485
 11
1.7816
 21
-4.485
  0
LINE
  8
LAYER_3
 10
1.7816
 20
-4.485
 11
1.8053
 21
-4.4943
  0
LINE
  8
LAYER_3
 10
1.8053
 20
-4.4943
 11
1.9477
 21
-4.6251
  0
ARC
  8
LAYER_3
 10
1.9221
 20
-4.6509
 40
0.0363
 50
319.4084321
 51
45.22836999
  0
ARC
  8
LAYER_3
 10
1.9239
 20
-4.6491
 40
0.0362
 50
229.3988626
 51
315.4695073
  0
LINE
  8
LAYER_3
 10
1.9003
 20
-4.6766
 11
1.768
 21
-4.555
  0
LINE
  8
LAYER_3
 10
1.768
 20
-4.555
 11
1.1438
 21
-4.555
  0
LINE
  8
LAYER_3
 10
1.1438
 20
-4.555
 11
0.9961
 21
-4.6778
  0
LINE
  8
LAYER_3
 10
0.9961
 20
-4.6778
 11
0.9738
 21
-4.6858
  0
ARC
  8
LAYER_3
 10
5.0649
 20
-4.6504
 40
0.0354
 50
220.1076307
 51
269.6954462
  0
ARC
  8
LAYER_3
 10
5.0666
 20
-4.651
 40
0.0364
 50
131.9368452
 51
217.6323834
  0
LINE
  8
LAYER_3
 10
5.0423
 20
-4.6239
 11
5.1997
 21
-4.4931
  0
LINE
  8
LAYER_3
 10
5.1997
 20
-4.4931
 11
5.2221
 21
-4.485
  0
LINE
  8
LAYER_3
 10
5.2221
 20
-4.485
 11
5.8726
 21
-4.485
  0
LINE
  8
LAYER_3
 10
5.8726
 20
-4.485
 11
5.8962
 21
-4.4943
  0
LINE
  8
LAYER_3
 10
5.8962
 20
-4.4943
 11
6.0386
 21
-4.6251
  0
ARC
  8
LAYER_3
 10
6.0131
 20
-4.6509
 40
0.0363
 50
319.5306467
 51
45.33772326
  0
ARC
  8
LAYER_3
 10
6.0148
 20
-4.649
 40
0.0363
 50
229.4666446
 51
315.3919021
  0
LINE
  8
LAYER_3
 10
5.9912
 20
-4.6766
 11
5.8589
 21
-4.555
  0
LINE
  8
LAYER_3
 10
5.8589
 20
-4.555
 11
5.2347
 21
-4.555
  0
LINE
  8
LAYER_3
 10
5.2347
 20
-4.555
 11
5.0871
 21
-4.6778
  0
LINE
  8
LAYER_3
 10
5.0871
 20
-4.6778
 11
5.0647
 21
-4.6858
  0
LINE
  8
LAYER_3
 10
2.7704
 20
-5.3982
 11
2.1199
 21
-5.3982
  0
ARC
  8
LAYER_3
 10
2.1198
 20
-5.3586
 40
0.0396
 50
227.3012817
 51
270.1977073
  0
LINE
  8
LAYER_3
 10
2.0929
 20
-5.3877
 11
1.9505
 21
-5.2569
  0
ARC
  8
LAYER_3
 10
1.9776
 20
-5.2274
 40
0.04
 50
137.4442006
 51
227.4204809
  0
ARC
  8
LAYER_3
 10
1.9776
 20
-5.2275
 40
0.04
 50
47.44534645
 51
137.4193351
  0
LINE
  8
LAYER_3
 10
2.0046
 20
-5.198
 11
2.1355
 21
-5.3183
  0
LINE
  8
LAYER_3
 10
2.1355
 20
-5.3183
 11
2.7559
 21
-5.3183
  0
LINE
  8
LAYER_3
 10
2.7559
 20
-5.3183
 11
2.9022
 21
-5.1967
  0
ARC
  8
LAYER_3
 10
2.9278
 20
-5.2274
 40
0.04
 50
39.66732988
 51
129.7972758
  0
ARC
  8
LAYER_3
 10
2.9278
 20
-5.2274
 40
0.04
 50
309.7860418
 51
39.65995656
  0
LINE
  8
LAYER_3
 10
2.9534
 20
-5.2582
 11
2.7959
 21
-5.389
  0
LINE
  8
LAYER_3
 10
2.7959
 20
-5.389
 11
2.7704
 21
-5.3982
  0
LINE
  8
LAYER_3
 10
4.8437
 20
-5.3982
 11
4.1932
 21
-5.3982
  0
ARC
  8
LAYER_3
 10
4.1931
 20
-5.3586
 40
0.0396
 50
227.3012817
 51
270.1977073
  0
LINE
  8
LAYER_3
 10
4.1662
 20
-5.3877
 11
4.0238
 21
-5.2569
  0
ARC
  8
LAYER_3
 10
4.0508
 20
-5.2275
 40
0.04
 50
137.4294914
 51
227.4351902
  0
ARC
  8
LAYER_3
 10
4.0508
 20
-5.2274
 40
0.04
 50
47.43228291
 51
137.4323986
  0
LINE
  8
LAYER_3
 10
4.0779
 20
-5.198
 11
4.2088
 21
-5.3183
  0
LINE
  8
LAYER_3
 10
4.2088
 20
-5.3183
 11
4.8292
 21
-5.3183
  0
LINE
  8
LAYER_3
 10
4.8292
 20
-5.3183
 11
4.9755
 21
-5.1967
  0
ARC
  8
LAYER_3
 10
5.0011
 20
-5.2274
 40
0.04
 50
39.71070509
 51
129.7352932
  0
ARC
  8
LAYER_3
 10
5.0011
 20
-5.2275
 40
0.04
 50
309.8528614
 51
39.79498527
  0
LINE
  8
LAYER_3
 10
5.0267
 20
-5.2582
 11
4.8692
 21
-5.389
  0
LINE
  8
LAYER_3
 10
4.8692
 20
-5.389
 11
4.8437
 21
-5.3982
  0
LINE
  8
LAYER_3
 10
6.9041
 20
-5.3982
 11
6.2537
 21
-5.3982
  0
ARC
  8
LAYER_3
 10
6.2537
 20
-5.3579
 40
0.0403
 50
227.6693945
 51
269.9725021
  0
LINE
  8
LAYER_3
 10
6.2266
 20
-5.3877
 11
6.0843
 21
-5.2569
  0
ARC
  8
LAYER_3
 10
6.1113
 20
-5.2275
 40
0.04
 50
137.3951078
 51
227.4695737
  0
ARC
  8
LAYER_3
 10
6.1114
 20
-5.2296
 40
0.0415
 50
49.53776089
 51
135.3269206
  0
LINE
  8
LAYER_3
 10
6.1384
 20
-5.198
 11
6.2693
 21
-5.3183
  0
LINE
  8
LAYER_3
 10
6.2693
 20
-5.3183
 11
6.8897
 21
-5.3183
  0
LINE
  8
LAYER_3
 10
6.8897
 20
-5.3183
 11
7.036
 21
-5.1967
  0
ARC
  8
LAYER_3
 10
7.0616
 20
-5.2274
 40
0.04
 50
39.71299515
 51
129.7330032
  0
ARC
  8
LAYER_3
 10
7.0616
 20
-5.2275
 40
0.04
 50
309.721921
 51
39.72407732
  0
LINE
  8
LAYER_3
 10
7.0871
 20
-5.2582
 11
6.9297
 21
-5.389
  0
LINE
  8
LAYER_3
 10
6.9297
 20
-5.389
 11
6.9041
 21
-5.3982
  0
ARC
  8
LAYER_3
 10
3.0081
 20
-5.483
 40
0.0407
 50
220.0611562
 51
269.5186804
  0
ARC
  8
LAYER_3
 10
3.0078
 20
-5.4837
 40
0.04
 50
129.7761544
 51
219.6698439
  0
LINE
  8
LAYER_3
 10
2.9822
 20
-5.4529
 11
3.1396
 21
-5.3221
  0
LINE
  8
LAYER_3
 10
3.1396
 20
-5.3221
 11
3.1652
 21
-5.3129
  0
LINE
  8
LAYER_3
 10
3.1652
 20
-5.3129
 11
3.8157
 21
-5.3129
  0
ARC
  8
LAYER_3
 10
3.8158
 20
-5.3525
 40
0.0396
 50
47.3012817
 51
90.19770727
  0
LINE
  8
LAYER_3
 10
3.8427
 20
-5.3234
 11
3.9851
 21
-5.4542
  0
ARC
  8
LAYER_3
 10
3.958
 20
-5.4837
 40
0.04
 50
317.4495326
 51
47.41514898
  0
ARC
  8
LAYER_3
 10
3.9581
 20
-5.4837
 40
0.04
 50
227.4173814
 51
317.4473002
  0
LINE
  8
LAYER_3
 10
3.931
 20
-5.5131
 11
3.8001
 21
-5.3929
  0
LINE
  8
LAYER_3
 10
3.8001
 20
-5.3929
 11
3.1797
 21
-5.3929
  0
LINE
  8
LAYER_3
 10
3.1797
 20
-5.3929
 11
3.0334
 21
-5.5144
  0
LINE
  8
LAYER_3
 10
3.0334
 20
-5.5144
 11
3.0078
 21
-5.5237
  0
ARC
  8
LAYER_3
 10
0.9477
 20
-5.483
 40
0.0407
 50
220.0611562
 51
269.5186804
  0
ARC
  8
LAYER_3
 10
0.9473
 20
-5.4836
 40
0.04
 50
129.7137385
 51
219.7322599
  0
LINE
  8
LAYER_3
 10
0.9218
 20
-5.4529
 11
1.0792
 21
-5.3221
  0
LINE
  8
LAYER_3
 10
1.0792
 20
-5.3221
 11
1.1047
 21
-5.3129
  0
LINE
  8
LAYER_3
 10
1.1047
 20
-5.3129
 11
1.7552
 21
-5.3129
  0
ARC
  8
LAYER_3
 10
1.7552
 20
-5.3532
 40
0.0403
 50
47.66939447
 51
89.97250212
  0
LINE
  8
LAYER_3
 10
1.7823
 20
-5.3234
 11
1.9246
 21
-5.4542
  0
ARC
  8
LAYER_3
 10
1.8976
 20
-5.4836
 40
0.04
 50
317.410968
 51
47.45371357
  0
ARC
  8
LAYER_3
 10
1.8976
 20
-5.4837
 40
0.04
 50
227.4157365
 51
317.4489451
  0
LINE
  8
LAYER_3
 10
1.8705
 20
-5.5131
 11
1.7396
 21
-5.3929
  0
LINE
  8
LAYER_3
 10
1.7396
 20
-5.3929
 11
1.1192
 21
-5.3929
  0
LINE
  8
LAYER_3
 10
1.1192
 20
-5.3929
 11
0.9729
 21
-5.5144
  0
LINE
  8
LAYER_3
 10
0.9729
 20
-5.5144
 11
0.9474
 21
-5.5237
  0
ARC
  8
LAYER_3
 10
5.0814
 20
-5.483
 40
0.0407
 50
220.0611562
 51
269.5186804
  0
ARC
  8
LAYER_3
 10
5.0811
 20
-5.4837
 40
0.04
 50
129.7665046
 51
219.6794937
  0
LINE
  8
LAYER_3
 10
5.0555
 20
-5.4529
 11
5.2129
 21
-5.3221
  0
LINE
  8
LAYER_3
 10
5.2129
 20
-5.3221
 11
5.2385
 21
-5.3129
  0
LINE
  8
LAYER_3
 10
5.2385
 20
-5.3129
 11
5.889
 21
-5.3129
  0
ARC
  8
LAYER_3
 10
5.8889
 20
-5.3531
 40
0.0402
 50
47.65550427
 51
89.8434847
  0
LINE
  8
LAYER_3
 10
5.916
 20
-5.3234
 11
6.0584
 21
-5.4542
  0
ARC
  8
LAYER_3
 10
6.0313
 20
-5.4837
 40
0.04
 50
317.4538515
 51
47.41083009
  0
ARC
  8
LAYER_3
 10
6.0313
 20
-5.4836
 40
0.04
 50
227.4401562
 51
317.4245254
  0
LINE
  8
LAYER_3
 10
6.0043
 20
-5.5131
 11
5.8734
 21
-5.3929
  0
LINE
  8
LAYER_3
 10
5.8734
 20
-5.3929
 11
5.2529
 21
-5.3929
  0
LINE
  8
LAYER_3
 10
5.2529
 20
-5.3929
 11
5.1066
 21
-5.5144
  0
LINE
  8
LAYER_3
 10
5.1066
 20
-5.5144
 11
5.0811
 21
-5.5237
  0
LINE
  8
LAYER_3
 10
2.6529
 20
-7.0689
 11
2.0024
 21
-7.0689
  0
ARC
  8
LAYER_3
 10
2.0026
 20
-7.0134
 40
0.0555
 50
227.6237678
 51
269.7860564
  0
LINE
  8
LAYER_3
 10
1.9652
 20
-7.0544
 11
1.8228
 21
-6.9236
  0
ARC
  8
LAYER_3
 10
1.86
 20
-6.8831
 40
0.055
 50
137.4535323
 51
227.4103676
  0
ARC
  8
LAYER_3
 10
1.86
 20
-6.8831
 40
0.055
 50
47.4061416
 51
137.4577583
  0
LINE
  8
LAYER_3
 10
1.8972
 20
-6.8426
 11
2.0238
 21
-6.9589
  0
LINE
  8
LAYER_3
 10
2.0238
 20
-6.9589
 11
2.633
 21
-6.9589
  0
LINE
  8
LAYER_3
 10
2.633
 20
-6.9589
 11
2.7751
 21
-6.8408
  0
ARC
  8
LAYER_3
 10
2.8103
 20
-6.8831
 40
0.055
 50
39.75040076
 51
129.7807566
  0
ARC
  8
LAYER_3
 10
2.8103
 20
-6.8831
 40
0.055
 50
309.6701307
 51
39.71441458
  0
LINE
  8
LAYER_3
 10
2.8454
 20
-6.9254
 11
2.688
 21
-7.0562
  0
ARC
  8
LAYER_3
 10
2.6527
 20
-7.0135
 40
0.0554
 50
270.2080583
 51
309.5745567
  0
LINE
  8
LAYER_3
 10
4.7733
 20
-7.0689
 11
4.1229
 21
-7.0689
  0
ARC
  8
LAYER_3
 10
4.1231
 20
-7.0134
 40
0.0555
 50
227.6237678
 51
269.7860564
  0
LINE
  8
LAYER_3
 10
4.0857
 20
-7.0544
 11
3.9433
 21
-6.9236
  0
ARC
  8
LAYER_3
 10
3.9805
 20
-6.8831
 40
0.055
 50
137.4310444
 51
227.4328554
  0
ARC
  8
LAYER_3
 10
3.9805
 20
-6.883
 40
0.055
 50
47.39350517
 51
137.4703947
  0
LINE
  8
LAYER_3
 10
4.0177
 20
-6.8426
 11
4.1443
 21
-6.9589
  0
LINE
  8
LAYER_3
 10
4.1443
 20
-6.9589
 11
4.7535
 21
-6.9589
  0
LINE
  8
LAYER_3
 10
4.7535
 20
-6.9589
 11
4.8956
 21
-6.8408
  0
ARC
  8
LAYER_3
 10
4.9307
 20
-6.8831
 40
0.055
 50
39.77752862
 51
129.7401784
  0
ARC
  8
LAYER_3
 10
4.9308
 20
-6.8831
 40
0.055
 50
309.7262072
 51
39.80495016
  0
LINE
  8
LAYER_3
 10
4.9659
 20
-6.9254
 11
4.8085
 21
-7.0562
  0
ARC
  8
LAYER_3
 10
4.7731
 20
-7.0133
 40
0.0556
 50
270.1838742
 51
309.4945524
  0
LINE
  8
LAYER_3
 10
6.8891
 20
-7.0689
 11
6.2387
 21
-7.0689
  0
ARC
  8
LAYER_3
 10
6.2389
 20
-7.0134
 40
0.0555
 50
227.6237678
 51
269.7860564
  0
LINE
  8
LAYER_3
 10
6.2015
 20
-7.0544
 11
6.0591
 21
-6.9236
  0
ARC
  8
LAYER_3
 10
6.0963
 20
-6.8831
 40
0.055
 50
137.4404864
 51
227.4234135
  0
ARC
  8
LAYER_3
 10
6.0963
 20
-6.883
 40
0.0549
 50
47.37586785
 51
137.488032
  0
LINE
  8
LAYER_3
 10
6.1335
 20
-6.8426
 11
6.2601
 21
-6.9589
  0
LINE
  8
LAYER_3
 10
6.2601
 20
-6.9589
 11
6.8693
 21
-6.9589
  0
LINE
  8
LAYER_3
 10
6.8693
 20
-6.9589
 11
7.0114
 21
-6.8408
  0
ARC
  8
LAYER_3
 10
7.0466
 20
-6.8831
 40
0.055
 50
39.7499628
 51
129.7811946
  0
ARC
  8
LAYER_3
 10
7.0466
 20
-6.8831
 40
0.055
 50
309.6754638
 51
39.70908142
  0
LINE
  8
LAYER_3
 10
7.0817
 20
-6.9254
 11
6.9243
 21
-7.0562
  0
ARC
  8
LAYER_3
 10
6.8889
 20
-7.0133
 40
0.0556
 50
270.1838742
 51
309.4945524
  0
ARC
  8
LAYER_3
 10
2.9206
 20
-7.1389
 40
0.0554
 50
219.8730887
 51
269.737711
  0
ARC
  8
LAYER_3
 10
2.9203
 20
-7.1393
 40
0.055
 50
129.7685319
 51
219.7491751
  0
LINE
  8
LAYER_3
 10
2.8851
 20
-7.097
 11
3.0425
 21
-6.9662
  0
ARC
  8
LAYER_3
 10
3.0779
 20
-7.0091
 40
0.0556
 50
90.18387419
 51
129.4945524
  0
LINE
  8
LAYER_3
 10
3.0777
 20
-6.9535
 11
3.7281
 21
-6.9535
  0
ARC
  8
LAYER_3
 10
3.7278
 20
-7.0096
 40
0.0561
 50
47.8581363
 51
89.65567885
  0
LINE
  8
LAYER_3
 10
3.7654
 20
-6.968
 11
3.9077
 21
-7.0988
  0
ARC
  8
LAYER_3
 10
3.8705
 20
-7.1393
 40
0.055
 50
317.4223584
 51
47.4415415
  0
ARC
  8
LAYER_3
 10
3.8705
 20
-7.1393
 40
0.055
 50
227.446288
 51
317.4176119
  0
LINE
  8
LAYER_3
 10
3.8333
 20
-7.1798
 11
3.7067
 21
-7.0635
  0
LINE
  8
LAYER_3
 10
3.7067
 20
-7.0635
 11
3.0975
 21
-7.0635
  0
LINE
  8
LAYER_3
 10
3.0975
 20
-7.0635
 11
2.9554
 21
-7.1816
  0
ARC
  8
LAYER_3
 10
2.9201
 20
-7.1389
 40
0.0554
 50
270.195774
 51
309.5868409
  0
ARC
  8
LAYER_3
 10
0.8002
 20
-7.1386
 40
0.0557
 50
220.0058938
 51
269.6049059
  0
ARC
  8
LAYER_3
 10
0.7998
 20
-7.1393
 40
0.055
 50
129.6782079
 51
219.6927007
  0
LINE
  8
LAYER_3
 10
0.7647
 20
-7.097
 11
0.9221
 21
-6.9662
  0
ARC
  8
LAYER_3
 10
0.9574
 20
-7.0089
 40
0.0554
 50
90.20421559
 51
129.5783993
  0
LINE
  8
LAYER_3
 10
0.9572
 20
-6.9535
 11
1.6077
 21
-6.9535
  0
ARC
  8
LAYER_3
 10
1.6073
 20
-7.0095
 40
0.056
 50
47.8123583
 51
89.59746594
  0
LINE
  8
LAYER_3
 10
1.6449
 20
-6.968
 11
1.7872
 21
-7.0988
  0
ARC
  8
LAYER_3
 10
1.75
 20
-7.1393
 40
0.055
 50
317.3967893
 51
47.46711056
  0
ARC
  8
LAYER_3
 10
1.75
 20
-7.1393
 40
0.055
 50
227.4240943
 51
317.4398057
  0
LINE
  8
LAYER_3
 10
1.7128
 20
-7.1798
 11
1.5862
 21
-7.0635
  0
LINE
  8
LAYER_3
 10
1.5862
 20
-7.0635
 11
0.9771
 21
-7.0635
  0
LINE
  8
LAYER_3
 10
0.9771
 20
-7.0635
 11
0.835
 21
-7.1816
  0
ARC
  8
LAYER_3
 10
0.7996
 20
-7.1386
 40
0.0557
 50
270.2024161
 51
309.4760105
  0
ARC
  8
LAYER_3
 10
5.0392
 20
-7.1384
 40
0.0559
 50
220.0721089
 51
269.6428397
  0
ARC
  8
LAYER_3
 10
5.0388
 20
-7.1393
 40
0.055
 50
129.7084751
 51
219.6624335
  0
LINE
  8
LAYER_3
 10
5.0037
 20
-7.097
 11
5.1611
 21
-6.9662
  0
ARC
  8
LAYER_3
 10
5.1965
 20
-7.0091
 40
0.0556
 50
90.18387419
 51
129.4945524
  0
LINE
  8
LAYER_3
 10
5.1963
 20
-6.9535
 11
5.8467
 21
-6.9535
  0
ARC
  8
LAYER_3
 10
5.8465
 20
-7.009
 40
0.0555
 50
47.62376782
 51
89.78605642
  0
LINE
  8
LAYER_3
 10
5.8839
 20
-6.968
 11
6.0263
 21
-7.0988
  0
ARC
  8
LAYER_3
 10
5.9891
 20
-7.1393
 40
0.055
 50
317.4373371
 51
47.42656283
  0
ARC
  8
LAYER_3
 10
5.9891
 20
-7.1393
 40
0.055
 50
227.4008753
 51
317.4630246
  0
LINE
  8
LAYER_3
 10
5.9519
 20
-7.1798
 11
5.8253
 21
-7.0635
  0
LINE
  8
LAYER_3
 10
5.8253
 20
-7.0635
 11
5.2161
 21
-7.0635
  0
LINE
  8
LAYER_3
 10
5.2161
 20
-7.0635
 11
5.074
 21
-7.1816
  0
ARC
  8
LAYER_3
 10
5.0387
 20
-7.1389
 40
0.0554
 50
270.195774
 51
309.5868409
  0
LINE
  8
LAYER_3
 10
2.7476
 20
-6.2361
 11
2.0971
 21
-6.2361
  0
ARC
  8
LAYER_3
 10
2.0973
 20
-6.1858
 40
0.0503
 50
227.5255516
 51
269.8099221
  0
LINE
  8
LAYER_3
 10
2.0633
 20
-6.2229
 11
1.9209
 21
-6.0921
  0
ARC
  8
LAYER_3
 10
1.9547
 20
-6.0553
 40
0.05
 50
137.4275679
 51
227.4319593
  0
ARC
  8
LAYER_3
 10
1.9548
 20
-6.0553
 40
0.0501
 50
47.4493073
 51
137.4102199
  0
LINE
  8
LAYER_3
 10
1.9886
 20
-6.0184
 11
2.1166
 21
-6.1361
  0
LINE
  8
LAYER_3
 10
2.1166
 20
-6.1361
 11
2.7295
 21
-6.1361
  0
LINE
  8
LAYER_3
 10
2.7295
 20
-6.1361
 11
2.873
 21
-6.0168
  0
ARC
  8
LAYER_3
 10
2.9049
 20
-6.0553
 40
0.05
 50
39.75130741
 51
129.6984176
  0
ARC
  8
LAYER_3
 10
2.905
 20
-6.0553
 40
0.05
 50
309.7017747
 51
39.74795038
  0
LINE
  8
LAYER_3
 10
2.9369
 20
-6.0937
 11
2.7795
 21
-6.2245
  0
ARC
  8
LAYER_3
 10
2.7474
 20
-6.1859
 40
0.0502
 50
270.2126324
 51
309.7535807
  0
LINE
  8
LAYER_3
 10
4.8493
 20
-6.2361
 11
4.1989
 21
-6.2361
  0
ARC
  8
LAYER_3
 10
4.1992
 20
-6.1853
 40
0.0508
 50
227.7553402
 51
269.6947199
  0
LINE
  8
LAYER_3
 10
4.165
 20
-6.2229
 11
4.0227
 21
-6.0921
  0
ARC
  8
LAYER_3
 10
4.0565
 20
-6.0553
 40
0.05
 50
137.3956965
 51
227.4638307
  0
ARC
  8
LAYER_3
 10
4.0565
 20
-6.0553
 40
0.05
 50
47.48366342
 51
137.3827387
  0
LINE
  8
LAYER_3
 10
4.0903
 20
-6.0184
 11
4.2183
 21
-6.1361
  0
LINE
  8
LAYER_3
 10
4.2183
 20
-6.1361
 11
4.8313
 21
-6.1361
  0
LINE
  8
LAYER_3
 10
4.8313
 20
-6.1361
 11
4.9748
 21
-6.0168
  0
ARC
  8
LAYER_3
 10
5.0067
 20
-6.0553
 40
0.05
 50
39.74224929
 51
129.7074758
  0
ARC
  8
LAYER_3
 10
5.0067
 20
-6.0552
 40
0.05
 50
309.7305664
 51
39.71915866
  0
LINE
  8
LAYER_3
 10
5.0387
 20
-6.0937
 11
4.8813
 21
-6.2245
  0
ARC
  8
LAYER_3
 10
4.8491
 20
-6.1857
 40
0.0504
 50
270.1938516
 51
309.6573098
  0
LINE
  8
LAYER_3
 10
6.9498
 20
-6.2361
 11
6.2993
 21
-6.2361
  0
ARC
  8
LAYER_3
 10
6.2995
 20
-6.1858
 40
0.0503
 50
227.5255516
 51
269.8099221
  0
LINE
  8
LAYER_3
 10
6.2655
 20
-6.2229
 11
6.1232
 21
-6.0921
  0
ARC
  8
LAYER_3
 10
6.157
 20
-6.0553
 40
0.05
 50
137.3811423
 51
227.4783849
  0
ARC
  8
LAYER_3
 10
6.157
 20
-6.0553
 40
0.05
 50
47.51991305
 51
137.346489
  0
LINE
  8
LAYER_3
 10
6.1908
 20
-6.0184
 11
6.3188
 21
-6.1361
  0
LINE
  8
LAYER_3
 10
6.3188
 20
-6.1361
 11
6.9317
 21
-6.1361
  0
LINE
  8
LAYER_3
 10
6.9317
 20
-6.1361
 11
7.0753
 21
-6.0168
  0
ARC
  8
LAYER_3
 10
7.1072
 20
-6.0553
 40
0.05
 50
39.77124273
 51
129.6784823
  0
ARC
  8
LAYER_3
 10
7.1072
 20
-6.0552
 40
0.05
 50
309.7415408
 51
39.70818424
  0
LINE
  8
LAYER_3
 10
7.1392
 20
-6.0937
 11
6.9818
 21
-6.2245
  0
ARC
  8
LAYER_3
 10
6.9496
 20
-6.1857
 40
0.0504
 50
270.1938516
 51
309.6573098
  0
ARC
  8
LAYER_3
 10
3.0054
 20
-6.3107
 40
0.0508
 50
220.0816887
 51
269.5590735
  0
ARC
  8
LAYER_3
 10
3.005
 20
-6.3115
 40
0.05
 50
129.7469773
 51
219.7027478
  0
LINE
  8
LAYER_3
 10
2.973
 20
-6.273
 11
3.1304
 21
-6.1422
  0
ARC
  8
LAYER_3
 10
3.1626
 20
-6.1815
 40
0.0508
 50
90.19842769
 51
129.3359096
  0
LINE
  8
LAYER_3
 10
3.1624
 20
-6.1307
 11
3.8129
 21
-6.1307
  0
ARC
  8
LAYER_3
 10
3.8127
 20
-6.181
 40
0.0503
 50
47.5255516
 51
89.80992212
  0
LINE
  8
LAYER_3
 10
3.8467
 20
-6.1439
 11
3.989
 21
-6.2746
  0
ARC
  8
LAYER_3
 10
3.9552
 20
-6.3114
 40
0.05
 50
317.3810752
 51
47.47845201
  0
ARC
  8
LAYER_3
 10
3.9552
 20
-6.3115
 40
0.05
 50
227.465809
 51
317.4005932
  0
LINE
  8
LAYER_3
 10
3.9214
 20
-6.3483
 11
3.7934
 21
-6.2307
  0
LINE
  8
LAYER_3
 10
3.7934
 20
-6.2307
 11
3.1804
 21
-6.2307
  0
LINE
  8
LAYER_3
 10
3.1804
 20
-6.2307
 11
3.0369
 21
-6.3499
  0
ARC
  8
LAYER_3
 10
3.0048
 20
-6.3114
 40
0.0501
 50
270.175535
 51
309.790678
  0
ARC
  8
LAYER_3
 10
0.8932
 20
-6.3107
 40
0.0508
 50
220.0816887
 51
269.5590735
  0
ARC
  8
LAYER_3
 10
0.8928
 20
-6.3115
 40
0.05
 50
129.7515368
 51
219.6981883
  0
LINE
  8
LAYER_3
 10
0.8608
 20
-6.273
 11
1.0182
 21
-6.1422
  0
ARC
  8
LAYER_3
 10
1.0504
 20
-6.1815
 40
0.0508
 50
90.19842769
 51
129.3359096
  0
LINE
  8
LAYER_3
 10
1.0502
 20
-6.1307
 11
1.7007
 21
-6.1307
  0
ARC
  8
LAYER_3
 10
1.7005
 20
-6.181
 40
0.0503
 50
47.5255516
 51
89.80992212
  0
LINE
  8
LAYER_3
 10
1.7345
 20
-6.1439
 11
1.8768
 21
-6.2746
  0
ARC
  8
LAYER_3
 10
1.843
 20
-6.3114
 40
0.05
 50
317.3819879
 51
47.47753927
  0
ARC
  8
LAYER_3
 10
1.843
 20
-6.3115
 40
0.05
 50
227.4602405
 51
317.4061616
  0
LINE
  8
LAYER_3
 10
1.8092
 20
-6.3483
 11
1.6812
 21
-6.2307
  0
LINE
  8
LAYER_3
 10
1.6812
 20
-6.2307
 11
1.0682
 21
-6.2307
  0
LINE
  8
LAYER_3
 10
1.0682
 20
-6.2307
 11
0.9247
 21
-6.3499
  0
ARC
  8
LAYER_3
 10
0.8926
 20
-6.3114
 40
0.0501
 50
270.175535
 51
309.790678
  0
ARC
  8
LAYER_3
 10
5.1071
 20
-6.3108
 40
0.0507
 50
220.024598
 51
269.6161642
  0
ARC
  8
LAYER_3
 10
5.1067
 20
-6.3114
 40
0.05
 50
129.7104188
 51
219.7393063
  0
LINE
  8
LAYER_3
 10
5.0748
 20
-6.273
 11
5.2322
 21
-6.1422
  0
ARC
  8
LAYER_3
 10
5.2644
 20
-6.1815
 40
0.0508
 50
90.19842769
 51
129.3359096
  0
LINE
  8
LAYER_3
 10
5.2642
 20
-6.1307
 11
5.9146
 21
-6.1307
  0
ARC
  8
LAYER_3
 10
5.9145
 20
-6.1809
 40
0.0502
 50
47.48841658
 51
89.84705715
  0
LINE
  8
LAYER_3
 10
5.9484
 20
-6.1439
 11
6.0908
 21
-6.2746
  0
ARC
  8
LAYER_3
 10
6.057
 20
-6.3114
 40
0.05
 50
317.4167156
 51
47.44281163
  0
ARC
  8
LAYER_3
 10
6.057
 20
-6.3115
 40
0.05
 50
227.4683721
 51
317.39803
  0
LINE
  8
LAYER_3
 10
6.0232
 20
-6.3483
 11
5.8951
 21
-6.2307
  0
LINE
  8
LAYER_3
 10
5.8951
 20
-6.2307
 11
5.2822
 21
-6.2307
  0
LINE
  8
LAYER_3
 10
5.2822
 20
-6.2307
 11
5.1387
 21
-6.3499
  0
ARC
  8
LAYER_3
 10
5.1066
 20
-6.3114
 40
0.0501
 50
270.2016906
 51
309.7645225
  0
LINE
  8
LAYER_4
 10
2.8532
 20
-2.2071
 11
2.2027
 21
-2.2071
  0
LINE
  8
LAYER_4
 10
2.2027
 20
-2.2071
 11
2.1959
 21
-2.2045
  0
LINE
  8
LAYER_4
 10
2.1959
 20
-2.2045
 11
2.0536
 21
-2.0737
  0
ARC
  8
LAYER_4
 10
2.0609
 20
-2.0663
 40
0.0104
 50
139.2732029
 51
225.5658155
  0
ARC
  8
LAYER_4
 10
2.0603
 20
-2.0669
 40
0.0104
 50
49.2194324
 51
134.8423961
  0
LINE
  8
LAYER_4
 10
2.0671
 20
-2.059
 11
2.2066
 21
-2.1871
  0
LINE
  8
LAYER_4
 10
2.2066
 20
-2.1871
 11
2.8496
 21
-2.1871
  0
LINE
  8
LAYER_4
 10
2.8496
 20
-2.1871
 11
3.0042
 21
-2.0586
  0
ARC
  8
LAYER_4
 10
3.0105
 20
-2.067
 40
0.0105
 50
42.56259788
 51
126.9020078
  0
ARC
  8
LAYER_4
 10
3.01
 20
-2.0662
 40
0.0104
 50
311.9160308
 51
37.54857494
  0
LINE
  8
LAYER_4
 10
3.017
 20
-2.074
 11
2.8596
 21
-2.2048
  0
LINE
  8
LAYER_4
 10
2.8596
 20
-2.2048
 11
2.8532
 21
-2.2071
  0
LINE
  8
LAYER_4
 10
4.8036
 20
-2.2071
 11
4.1532
 21
-2.2071
  0
LINE
  8
LAYER_4
 10
4.1532
 20
-2.2071
 11
4.1464
 21
-2.2045
  0
LINE
  8
LAYER_4
 10
4.1464
 20
-2.2045
 11
4.004
 21
-2.0737
  0
ARC
  8
LAYER_4
 10
4.0115
 20
-2.0663
 40
0.0105
 50
139.972911
 51
224.8661074
  0
ARC
  8
LAYER_4
 10
4.0108
 20
-2.0669
 40
0.0105
 50
49.22999127
 51
134.8032565
  0
LINE
  8
LAYER_4
 10
4.0176
 20
-2.059
 11
4.1571
 21
-2.1871
  0
LINE
  8
LAYER_4
 10
4.1571
 20
-2.1871
 11
4.8
 21
-2.1871
  0
LINE
  8
LAYER_4
 10
4.8
 20
-2.1871
 11
4.9547
 21
-2.0586
  0
ARC
  8
LAYER_4
 10
4.961
 20
-2.0668
 40
0.0103
 50
41.90023538
 51
127.4895454
  0
ARC
  8
LAYER_4
 10
4.9606
 20
-2.0663
 40
0.0103
 50
311.2934763
 51
38.17112947
  0
LINE
  8
LAYER_4
 10
4.9674
 20
-2.074
 11
4.81
 21
-2.2048
  0
LINE
  8
LAYER_4
 10
4.81
 20
-2.2048
 11
4.8036
 21
-2.2071
  0
LINE
  8
LAYER_4
 10
6.7491
 20
-2.2071
 11
6.0986
 21
-2.2071
  0
LINE
  8
LAYER_4
 10
6.0986
 20
-2.2071
 11
6.0919
 21
-2.2045
  0
LINE
  8
LAYER_4
 10
6.0919
 20
-2.2045
 11
5.9495
 21
-2.0737
  0
ARC
  8
LAYER_4
 10
5.957
 20
-2.0663
 40
0.0105
 50
139.9429322
 51
224.8960862
  0
ARC
  8
LAYER_4
 10
5.9563
 20
-2.0669
 40
0.0105
 50
49.22999127
 51
134.8032565
  0
LINE
  8
LAYER_4
 10
5.9631
 20
-2.059
 11
6.1025
 21
-2.1871
  0
LINE
  8
LAYER_4
 10
6.1025
 20
-2.1871
 11
6.7455
 21
-2.1871
  0
LINE
  8
LAYER_4
 10
6.7455
 20
-2.1871
 11
6.9001
 21
-2.0586
  0
ARC
  8
LAYER_4
 10
6.9064
 20
-2.0669
 40
0.0104
 50
41.91603079
 51
127.5485749
  0
ARC
  8
LAYER_4
 10
6.9061
 20
-2.0663
 40
0.0103
 50
311.3241901
 51
38.14041567
  0
LINE
  8
LAYER_4
 10
6.9129
 20
-2.074
 11
6.7555
 21
-2.2048
  0
LINE
  8
LAYER_4
 10
6.7555
 20
-2.2048
 11
6.7491
 21
-2.2071
  0
LINE
  8
LAYER_4
 10
3.0356
 20
-2.3325
 11
3.0279
 21
-2.3289
  0
ARC
  8
LAYER_4
 10
3.036
 20
-2.3225
 40
0.0103
 50
131.3526435
 51
218.1119622
  0
LINE
  8
LAYER_4
 10
3.0292
 20
-2.3148
 11
3.1866
 21
-2.184
  0
LINE
  8
LAYER_4
 10
3.1866
 20
-2.184
 11
3.193
 21
-2.1817
  0
LINE
  8
LAYER_4
 10
3.193
 20
-2.1817
 11
3.8435
 21
-2.1817
  0
LINE
  8
LAYER_4
 10
3.8435
 20
-2.1817
 11
3.8502
 21
-2.1844
  0
LINE
  8
LAYER_4
 10
3.8502
 20
-2.1844
 11
3.9926
 21
-2.3151
  0
ARC
  8
LAYER_4
 10
3.9851
 20
-2.3225
 40
0.0105
 50
319.9729111
 51
44.86610737
  0
ARC
  8
LAYER_4
 10
3.9858
 20
-2.3218
 40
0.0105
 50
229.9729111
 51
314.8661074
  0
LINE
  8
LAYER_4
 10
3.979
 20
-2.3299
 11
3.8396
 21
-2.2017
  0
LINE
  8
LAYER_4
 10
3.8396
 20
-2.2017
 11
3.1966
 21
-2.2017
  0
LINE
  8
LAYER_4
 10
3.1966
 20
-2.2017
 11
3.042
 21
-2.3302
  0
LINE
  8
LAYER_4
 10
3.042
 20
-2.3302
 11
3.0356
 21
-2.3325
  0
LINE
  8
LAYER_4
 10
1.0962
 20
-2.3281
 11
1.0885
 21
-2.3245
  0
ARC
  8
LAYER_4
 10
1.0967
 20
-2.3182
 40
0.0103
 50
131.9002354
 51
217.4895454
  0
LINE
  8
LAYER_4
 10
1.0898
 20
-2.3105
 11
1.2472
 21
-2.1797
  0
LINE
  8
LAYER_4
 10
1.2472
 20
-2.1797
 11
1.2536
 21
-2.1774
  0
LINE
  8
LAYER_4
 10
1.2536
 20
-2.1774
 11
1.9041
 21
-2.1774
  0
LINE
  8
LAYER_4
 10
1.9041
 20
-2.1774
 11
1.9108
 21
-2.18
  0
LINE
  8
LAYER_4
 10
1.9108
 20
-2.18
 11
2.0532
 21
-2.3108
  0
ARC
  8
LAYER_4
 10
2.0458
 20
-2.3182
 40
0.0104
 50
319.9224425
 51
44.95085396
  0
ARC
  8
LAYER_4
 10
2.0464
 20
-2.3177
 40
0.0103
 50
229.3904977
 51
315.4827988
  0
LINE
  8
LAYER_4
 10
2.0397
 20
-2.3255
 11
1.9002
 21
-2.1974
  0
LINE
  8
LAYER_4
 10
1.9002
 20
-2.1974
 11
1.2572
 21
-2.1974
  0
LINE
  8
LAYER_4
 10
1.2572
 20
-2.1974
 11
1.1026
 21
-2.3258
  0
LINE
  8
LAYER_4
 10
1.1026
 20
-2.3258
 11
1.0962
 21
-2.3281
  0
LINE
  8
LAYER_4
 10
4.986
 20
-2.3325
 11
4.9784
 21
-2.3289
  0
ARC
  8
LAYER_4
 10
4.9865
 20
-2.3225
 40
0.0103
 50
131.3219062
 51
218.1426996
  0
LINE
  8
LAYER_4
 10
4.9797
 20
-2.3148
 11
5.1371
 21
-2.184
  0
LINE
  8
LAYER_4
 10
5.1371
 20
-2.184
 11
5.1435
 21
-2.1817
  0
LINE
  8
LAYER_4
 10
5.1435
 20
-2.1817
 11
5.7939
 21
-2.1817
  0
LINE
  8
LAYER_4
 10
5.7939
 20
-2.1817
 11
5.8007
 21
-2.1844
  0
LINE
  8
LAYER_4
 10
5.8007
 20
-2.1844
 11
5.9431
 21
-2.3151
  0
ARC
  8
LAYER_4
 10
5.9356
 20
-2.3225
 40
0.0105
 50
319.9729111
 51
44.86610737
  0
ARC
  8
LAYER_4
 10
5.9363
 20
-2.3218
 40
0.0105
 50
229.9729111
 51
314.8661074
  0
LINE
  8
LAYER_4
 10
5.9295
 20
-2.3299
 11
5.79
 21
-2.2017
  0
LINE
  8
LAYER_4
 10
5.79
 20
-2.2017
 11
5.1471
 21
-2.2017
  0
LINE
  8
LAYER_4
 10
5.1471
 20
-2.2017
 11
4.9924
 21
-2.3302
  0
LINE
  8
LAYER_4
 10
4.9924
 20
-2.3302
 11
4.986
 21
-2.3325
  0
LINE
  8
LAYER_4
 10
2.8461
 20
-3.1593
 11
2.1957
 21
-3.1593
  0
LINE
  8
LAYER_4
 10
2.1957
 20
-3.1593
 11
2.1855
 21
-3.1554
  0
LINE
  8
LAYER_4
 10
2.1855
 20
-3.1554
 11
2.0432
 21
-3.0246
  0
ARC
  8
LAYER_4
 10
2.0542
 20
-3.0135
 40
0.0156
 50
139.5327408
 51
225.3290759
  0
ARC
  8
LAYER_4
 10
2.0534
 20
-3.0144
 40
0.0156
 50
49.53274083
 51
135.3290758
  0
LINE
  8
LAYER_4
 10
2.0635
 20
-3.0025
 11
2.2015
 21
-3.1293
  0
LINE
  8
LAYER_4
 10
2.2015
 20
-3.1293
 11
2.8407
 21
-3.1293
  0
LINE
  8
LAYER_4
 10
2.8407
 20
-3.1293
 11
2.994
 21
-3.002
  0
ARC
  8
LAYER_4
 10
3.0035
 20
-3.0143
 40
0.0155
 50
41.58714357
 51
127.5834523
  0
ARC
  8
LAYER_4
 10
3.0028
 20
-3.0135
 40
0.0156
 50
311.6549149
 51
37.51568097
  0
LINE
  8
LAYER_4
 10
3.0131
 20
-3.0251
 11
2.8557
 21
-3.1559
  0
LINE
  8
LAYER_4
 10
2.8557
 20
-3.1559
 11
2.8461
 21
-3.1593
  0
LINE
  8
LAYER_4
 10
4.7956
 20
-3.1593
 11
4.1452
 21
-3.1593
  0
LINE
  8
LAYER_4
 10
4.1452
 20
-3.1593
 11
4.135
 21
-3.1554
  0
LINE
  8
LAYER_4
 10
4.135
 20
-3.1554
 11
3.9927
 21
-3.0246
  0
ARC
  8
LAYER_4
 10
4.0037
 20
-3.0135
 40
0.0156
 50
139.5327408
 51
225.3290759
  0
ARC
  8
LAYER_4
 10
4.0029
 20
-3.0144
 40
0.0156
 50
49.53274083
 51
135.3290758
  0
LINE
  8
LAYER_4
 10
4.013
 20
-3.0025
 11
4.151
 21
-3.1293
  0
LINE
  8
LAYER_4
 10
4.151
 20
-3.1293
 11
4.7902
 21
-3.1293
  0
LINE
  8
LAYER_4
 10
4.7902
 20
-3.1293
 11
4.9435
 21
-3.002
  0
ARC
  8
LAYER_4
 10
4.953
 20
-3.0143
 40
0.0155
 50
41.58714357
 51
127.5834523
  0
ARC
  8
LAYER_4
 10
4.9523
 20
-3.0135
 40
0.0156
 50
311.6549149
 51
37.51568097
  0
LINE
  8
LAYER_4
 10
4.9626
 20
-3.0251
 11
4.8052
 21
-3.1559
  0
LINE
  8
LAYER_4
 10
4.8052
 20
-3.1559
 11
4.7956
 21
-3.1593
  0
LINE
  8
LAYER_4
 10
6.7611
 20
-3.1593
 11
6.1107
 21
-3.1593
  0
LINE
  8
LAYER_4
 10
6.1107
 20
-3.1593
 11
6.1005
 21
-3.1554
  0
LINE
  8
LAYER_4
 10
6.1005
 20
-3.1554
 11
5.9582
 21
-3.0246
  0
ARC
  8
LAYER_4
 10
5.9689
 20
-3.0135
 40
0.0154
 50
138.9764063
 51
225.8854104
  0
ARC
  8
LAYER_4
 10
5.9683
 20
-3.0142
 40
0.0154
 50
49.24830714
 51
135.6365235
  0
LINE
  8
LAYER_4
 10
5.9784
 20
-3.0025
 11
6.1165
 21
-3.1293
  0
LINE
  8
LAYER_4
 10
6.1165
 20
-3.1293
 11
6.7557
 21
-3.1293
  0
LINE
  8
LAYER_4
 10
6.7557
 20
-3.1293
 11
6.9089
 21
-3.002
  0
ARC
  8
LAYER_4
 10
6.9184
 20
-3.0144
 40
0.0156
 50
41.71474518
 51
127.5066313
  0
ARC
  8
LAYER_4
 10
6.9178
 20
-3.0135
 40
0.0156
 50
311.6549149
 51
37.51568097
  0
LINE
  8
LAYER_4
 10
6.9281
 20
-3.0251
 11
6.7707
 21
-3.1559
  0
LINE
  8
LAYER_4
 10
6.7707
 20
-3.1559
 11
6.7611
 21
-3.1593
  0
LINE
  8
LAYER_4
 10
3.0301
 20
-3.2847
 11
3.0186
 21
-3.2793
  0
ARC
  8
LAYER_4
 10
3.031
 20
-3.2698
 40
0.0156
 50
132.1701055
 51
217.5389782
  0
LINE
  8
LAYER_4
 10
3.0205
 20
-3.2582
 11
3.1779
 21
-3.1274
  0
LINE
  8
LAYER_4
 10
3.1779
 20
-3.1274
 11
3.1875
 21
-3.124
  0
LINE
  8
LAYER_4
 10
3.1875
 20
-3.124
 11
3.838
 21
-3.124
  0
LINE
  8
LAYER_4
 10
3.838
 20
-3.124
 11
3.8481
 21
-3.1279
  0
LINE
  8
LAYER_4
 10
3.8481
 20
-3.1279
 11
3.9905
 21
-3.2587
  0
ARC
  8
LAYER_4
 10
3.9795
 20
-3.2698
 40
0.0156
 50
319.5327408
 51
45.32907583
  0
ARC
  8
LAYER_4
 10
3.9803
 20
-3.2689
 40
0.0156
 50
229.5327409
 51
315.3290758
  0
LINE
  8
LAYER_4
 10
3.9702
 20
-3.2808
 11
3.8322
 21
-3.154
  0
LINE
  8
LAYER_4
 10
3.8322
 20
-3.154
 11
3.193
 21
-3.154
  0
LINE
  8
LAYER_4
 10
3.193
 20
-3.154
 11
3.0397
 21
-3.2813
  0
LINE
  8
LAYER_4
 10
3.0397
 20
-3.2813
 11
3.0301
 21
-3.2847
  0
LINE
  8
LAYER_4
 10
1.0731
 20
-3.2847
 11
1.0616
 21
-3.2793
  0
ARC
  8
LAYER_4
 10
1.0738
 20
-3.2698
 40
0.0155
 50
131.7666854
 51
217.9423983
  0
LINE
  8
LAYER_4
 10
1.0635
 20
-3.2582
 11
1.2209
 21
-3.1274
  0
LINE
  8
LAYER_4
 10
1.2209
 20
-3.1274
 11
1.2305
 21
-3.124
  0
LINE
  8
LAYER_4
 10
1.2305
 20
-3.124
 11
1.881
 21
-3.124
  0
LINE
  8
LAYER_4
 10
1.881
 20
-3.124
 11
1.8911
 21
-3.1279
  0
LINE
  8
LAYER_4
 10
1.8911
 20
-3.1279
 11
2.0335
 21
-3.2587
  0
ARC
  8
LAYER_4
 10
2.0225
 20
-3.2698
 40
0.0156
 50
319.5327408
 51
45.32907583
  0
ARC
  8
LAYER_4
 10
2.0233
 20
-3.2689
 40
0.0156
 50
229.5327409
 51
315.3290758
  0
LINE
  8
LAYER_4
 10
2.0132
 20
-3.2808
 11
1.8751
 21
-3.154
  0
LINE
  8
LAYER_4
 10
1.8751
 20
-3.154
 11
1.2359
 21
-3.154
  0
LINE
  8
LAYER_4
 10
1.2359
 20
-3.154
 11
1.0827
 21
-3.2813
  0
LINE
  8
LAYER_4
 10
1.0827
 20
-3.2813
 11
1.0731
 21
-3.2847
  0
LINE
  8
LAYER_4
 10
4.9881
 20
-3.2847
 11
4.9765
 21
-3.2793
  0
ARC
  8
LAYER_4
 10
4.9888
 20
-3.2698
 40
0.0156
 50
131.6549148
 51
217.515681
  0
LINE
  8
LAYER_4
 10
4.9785
 20
-3.2582
 11
5.1359
 21
-3.1274
  0
LINE
  8
LAYER_4
 10
5.1359
 20
-3.1274
 11
5.1455
 21
-3.124
  0
LINE
  8
LAYER_4
 10
5.1455
 20
-3.124
 11
5.7959
 21
-3.124
  0
LINE
  8
LAYER_4
 10
5.7959
 20
-3.124
 11
5.8061
 21
-3.1279
  0
LINE
  8
LAYER_4
 10
5.8061
 20
-3.1279
 11
5.9484
 21
-3.2587
  0
ARC
  8
LAYER_4
 10
5.9376
 20
-3.2698
 40
0.0155
 50
319.1062175
 51
45.75559913
  0
ARC
  8
LAYER_4
 10
5.9382
 20
-3.2689
 40
0.0156
 50
229.5327409
 51
315.3290758
  0
LINE
  8
LAYER_4
 10
5.9281
 20
-3.2808
 11
5.7901
 21
-3.154
  0
LINE
  8
LAYER_4
 10
5.7901
 20
-3.154
 11
5.1509
 21
-3.154
  0
LINE
  8
LAYER_4
 10
5.1509
 20
-3.154
 11
4.9976
 21
-3.2813
  0
LINE
  8
LAYER_4
 10
4.9976
 20
-3.2813
 11
4.9881
 21
-3.2847
  0
LINE
  8
LAYER_4
 10
2.8372
 20
-4.1116
 11
2.1868
 21
-4.1116
  0
LINE
  8
LAYER_4
 10
2.1868
 20
-4.1116
 11
2.1733
 21
-4.1063
  0
LINE
  8
LAYER_4
 10
2.1733
 20
-4.1063
 11
2.0309
 21
-3.9755
  0
ARC
  8
LAYER_4
 10
2.0454
 20
-3.9608
 40
0.0207
 50
139.4084656
 51
225.4648309
  0
ARC
  8
LAYER_4
 10
2.0445
 20
-3.9619
 40
0.0208
 50
49.42592792
 51
135.4301691
  0
LINE
  8
LAYER_4
 10
2.058
 20
-3.9461
 11
2.1946
 21
-4.0716
  0
LINE
  8
LAYER_4
 10
2.1946
 20
-4.0716
 11
2.83
 21
-4.0716
  0
LINE
  8
LAYER_4
 10
2.83
 20
-4.0716
 11
2.9819
 21
-3.9454
  0
ARC
  8
LAYER_4
 10
2.9946
 20
-3.9617
 40
0.0207
 50
41.61489003
 51
127.8124352
  0
ARC
  8
LAYER_4
 10
2.9935
 20
-3.9607
 40
0.0208
 50
311.8348005
 51
37.62980526
  0
LINE
  8
LAYER_4
 10
3.0074
 20
-3.9762
 11
2.85
 21
-4.107
  0
LINE
  8
LAYER_4
 10
2.85
 20
-4.107
 11
2.8372
 21
-4.1116
  0
LINE
  8
LAYER_4
 10
4.8177
 20
-4.1116
 11
4.1673
 21
-4.1116
  0
LINE
  8
LAYER_4
 10
4.1673
 20
-4.1116
 11
4.1537
 21
-4.1063
  0
LINE
  8
LAYER_4
 10
4.1537
 20
-4.1063
 11
4.0114
 21
-3.9755
  0
ARC
  8
LAYER_4
 10
4.0258
 20
-3.9608
 40
0.0206
 50
139.2619895
 51
225.611307
  0
ARC
  8
LAYER_4
 10
4.0249
 20
-3.9617
 40
0.0206
 50
49.29258753
 51
135.5807089
  0
LINE
  8
LAYER_4
 10
4.0384
 20
-3.9461
 11
4.1751
 21
-4.0716
  0
LINE
  8
LAYER_4
 10
4.1751
 20
-4.0716
 11
4.8105
 21
-4.0716
  0
LINE
  8
LAYER_4
 10
4.8105
 20
-4.0716
 11
4.9624
 21
-3.9454
  0
ARC
  8
LAYER_4
 10
4.9751
 20
-3.9617
 40
0.0207
 50
41.66556016
 51
127.7617651
  0
ARC
  8
LAYER_4
 10
4.974
 20
-3.9607
 40
0.0208
 50
311.8348005
 51
37.62980526
  0
LINE
  8
LAYER_4
 10
4.9879
 20
-3.9762
 11
4.8305
 21
-4.107
  0
LINE
  8
LAYER_4
 10
4.8305
 20
-4.107
 11
4.8177
 21
-4.1116
  0
LINE
  8
LAYER_4
 10
6.8007
 20
-4.1116
 11
6.1503
 21
-4.1116
  0
LINE
  8
LAYER_4
 10
6.1503
 20
-4.1116
 11
6.1367
 21
-4.1063
  0
LINE
  8
LAYER_4
 10
6.1367
 20
-4.1063
 11
5.9944
 21
-3.9755
  0
ARC
  8
LAYER_4
 10
6.0089
 20
-3.9608
 40
0.0207
 50
139.4084656
 51
225.4648309
  0
ARC
  8
LAYER_4
 10
6.008
 20
-3.9619
 40
0.0208
 50
49.42592792
 51
135.4301691
  0
LINE
  8
LAYER_4
 10
6.0215
 20
-3.9461
 11
6.1581
 21
-4.0716
  0
LINE
  8
LAYER_4
 10
6.1581
 20
-4.0716
 11
6.7935
 21
-4.0716
  0
LINE
  8
LAYER_4
 10
6.7935
 20
-4.0716
 11
6.9454
 21
-3.9454
  0
ARC
  8
LAYER_4
 10
6.9581
 20
-3.9617
 40
0.0207
 50
41.61489003
 51
127.8124352
  0
ARC
  8
LAYER_4
 10
6.957
 20
-3.9607
 40
0.0208
 50
311.8348005
 51
37.62980526
  0
LINE
  8
LAYER_4
 10
6.9709
 20
-3.9762
 11
6.8135
 21
-4.107
  0
LINE
  8
LAYER_4
 10
6.8135
 20
-4.107
 11
6.8007
 21
-4.1116
  0
LINE
  8
LAYER_4
 10
3.0347
 20
-4.237
 11
3.0193
 21
-4.2298
  0
ARC
  8
LAYER_4
 10
3.0358
 20
-4.2171
 40
0.0208
 50
131.8348004
 51
217.6298053
  0
LINE
  8
LAYER_4
 10
3.0219
 20
-4.2016
 11
3.1793
 21
-4.0708
  0
LINE
  8
LAYER_4
 10
3.1793
 20
-4.0708
 11
3.1921
 21
-4.0662
  0
LINE
  8
LAYER_4
 10
3.1921
 20
-4.0662
 11
3.8425
 21
-4.0662
  0
LINE
  8
LAYER_4
 10
3.8425
 20
-4.0662
 11
3.8561
 21
-4.0715
  0
LINE
  8
LAYER_4
 10
3.8561
 20
-4.0715
 11
3.9984
 21
-4.2023
  0
ARC
  8
LAYER_4
 10
3.984
 20
-4.217
 40
0.0206
 50
319.2925875
 51
45.58070895
  0
ARC
  8
LAYER_4
 10
3.9849
 20
-4.216
 40
0.0207
 50
229.4439524
 51
315.4293441
  0
LINE
  8
LAYER_4
 10
3.9714
 20
-4.2317
 11
3.8347
 21
-4.1062
  0
LINE
  8
LAYER_4
 10
3.8347
 20
-4.1062
 11
3.1993
 21
-4.1062
  0
LINE
  8
LAYER_4
 10
3.1993
 20
-4.1062
 11
3.0474
 21
-4.2324
  0
LINE
  8
LAYER_4
 10
3.0474
 20
-4.2324
 11
3.0347
 21
-4.237
  0
LINE
  8
LAYER_4
 10
1.0542
 20
-4.237
 11
1.0388
 21
-4.2298
  0
ARC
  8
LAYER_4
 10
1.0553
 20
-4.2171
 40
0.0208
 50
131.8348004
 51
217.6298053
  0
LINE
  8
LAYER_4
 10
1.0414
 20
-4.2016
 11
1.1988
 21
-4.0708
  0
LINE
  8
LAYER_4
 10
1.1988
 20
-4.0708
 11
1.2116
 21
-4.0662
  0
LINE
  8
LAYER_4
 10
1.2116
 20
-4.0662
 11
1.8621
 21
-4.0662
  0
LINE
  8
LAYER_4
 10
1.8621
 20
-4.0662
 11
1.8756
 21
-4.0715
  0
LINE
  8
LAYER_4
 10
1.8756
 20
-4.0715
 11
2.018
 21
-4.2023
  0
ARC
  8
LAYER_4
 10
2.0033
 20
-4.2171
 40
0.0208
 50
319.7339965
 51
45.13929997
  0
ARC
  8
LAYER_4
 10
2.0044
 20
-4.2159
 40
0.0208
 50
229.5190322
 51
315.3370648
  0
LINE
  8
LAYER_4
 10
1.9909
 20
-4.2317
 11
1.8543
 21
-4.1062
  0
LINE
  8
LAYER_4
 10
1.8543
 20
-4.1062
 11
1.2188
 21
-4.1062
  0
LINE
  8
LAYER_4
 10
1.2188
 20
-4.1062
 11
1.067
 21
-4.2324
  0
LINE
  8
LAYER_4
 10
1.067
 20
-4.2324
 11
1.0542
 21
-4.237
  0
LINE
  8
LAYER_4
 10
5.0177
 20
-4.237
 11
5.0023
 21
-4.2298
  0
ARC
  8
LAYER_4
 10
5.0188
 20
-4.2171
 40
0.0208
 50
131.8348004
 51
217.6298053
  0
LINE
  8
LAYER_4
 10
5.0049
 20
-4.2016
 11
5.1623
 21
-4.0708
  0
LINE
  8
LAYER_4
 10
5.1623
 20
-4.0708
 11
5.1751
 21
-4.0662
  0
LINE
  8
LAYER_4
 10
5.1751
 20
-4.0662
 11
5.8256
 21
-4.0662
  0
LINE
  8
LAYER_4
 10
5.8256
 20
-4.0662
 11
5.8391
 21
-4.0715
  0
LINE
  8
LAYER_4
 10
5.8391
 20
-4.0715
 11
5.9815
 21
-4.2023
  0
ARC
  8
LAYER_4
 10
5.9669
 20
-4.217
 40
0.0207
 50
319.3041231
 51
45.16349544
  0
ARC
  8
LAYER_4
 10
5.9679
 20
-4.216
 40
0.0207
 50
229.4439524
 51
315.4293441
  0
LINE
  8
LAYER_4
 10
5.9544
 20
-4.2317
 11
5.8178
 21
-4.1062
  0
LINE
  8
LAYER_4
 10
5.8178
 20
-4.1062
 11
5.1823
 21
-4.1062
  0
LINE
  8
LAYER_4
 10
5.1823
 20
-4.1062
 11
5.0305
 21
-4.2324
  0
LINE
  8
LAYER_4
 10
5.0305
 20
-4.2324
 11
5.0177
 21
-4.237
  0
LINE
  8
LAYER_4
 10
2.8068
 20
-5.0638
 11
2.1564
 21
-5.0638
  0
LINE
  8
LAYER_4
 10
2.1564
 20
-5.0638
 11
2.1394
 21
-5.0572
  0
LINE
  8
LAYER_4
 10
2.1394
 20
-5.0572
 11
1.9971
 21
-4.9264
  0
ARC
  8
LAYER_4
 10
2.0152
 20
-4.9079
 40
0.0259
 50
139.3632815
 51
225.5031206
  0
ARC
  8
LAYER_4
 10
2.0141
 20
-4.9094
 40
0.026
 50
49.57291439
 51
135.2934877
  0
LINE
  8
LAYER_4
 10
2.0309
 20
-4.8896
 11
2.1661
 21
-5.0138
  0
LINE
  8
LAYER_4
 10
2.1661
 20
-5.0138
 11
2.7978
 21
-5.0138
  0
LINE
  8
LAYER_4
 10
2.7978
 20
-5.0138
 11
2.9482
 21
-4.8888
  0
ARC
  8
LAYER_4
 10
2.9641
 20
-4.9094
 40
0.026
 50
41.93167532
 51
127.6794668
  0
ARC
  8
LAYER_4
 10
2.9629
 20
-4.9079
 40
0.0259
 50
311.7865099
 51
37.82463231
  0
LINE
  8
LAYER_4
 10
2.9802
 20
-4.9272
 11
2.8228
 21
-5.058
  0
LINE
  8
LAYER_4
 10
2.8228
 20
-5.058
 11
2.8068
 21
-5.0638
  0
LINE
  8
LAYER_4
 10
4.8173
 20
-5.0638
 11
4.1668
 21
-5.0638
  0
LINE
  8
LAYER_4
 10
4.1668
 20
-5.0638
 11
4.1499
 21
-5.0572
  0
LINE
  8
LAYER_4
 10
4.1499
 20
-5.0572
 11
4.0075
 21
-4.9264
  0
ARC
  8
LAYER_4
 10
4.0258
 20
-4.908
 40
0.026
 50
139.3757008
 51
225.1666263
  0
ARC
  8
LAYER_4
 10
4.0246
 20
-4.9094
 40
0.026
 50
49.57291439
 51
135.2934877
  0
LINE
  8
LAYER_4
 10
4.0414
 20
-4.8896
 11
4.1766
 21
-5.0138
  0
LINE
  8
LAYER_4
 10
4.1766
 20
-5.0138
 11
4.8082
 21
-5.0138
  0
LINE
  8
LAYER_4
 10
4.8082
 20
-5.0138
 11
4.9587
 21
-4.8888
  0
ARC
  8
LAYER_4
 10
4.9746
 20
-4.9094
 40
0.026
 50
41.96477006
 51
127.6463721
  0
ARC
  8
LAYER_4
 10
4.9733
 20
-4.9079
 40
0.026
 50
311.9316753
 51
37.67946685
  0
LINE
  8
LAYER_4
 10
4.9907
 20
-4.9272
 11
4.8333
 21
-5.058
  0
LINE
  8
LAYER_4
 10
4.8333
 20
-5.058
 11
4.8173
 21
-5.0638
  0
LINE
  8
LAYER_4
 10
6.8228
 20
-5.0638
 11
6.1723
 21
-5.0638
  0
LINE
  8
LAYER_4
 10
6.1723
 20
-5.0638
 11
6.1554
 21
-5.0572
  0
LINE
  8
LAYER_4
 10
6.1554
 20
-5.0572
 11
6.013
 21
-4.9264
  0
ARC
  8
LAYER_4
 10
6.0314
 20
-4.9079
 40
0.026
 50
139.7214681
 51
225.144934
  0
ARC
  8
LAYER_4
 10
6.03
 20
-4.9095
 40
0.0261
 50
49.65000881
 51
135.2026628
  0
LINE
  8
LAYER_4
 10
6.0469
 20
-4.8896
 11
6.182
 21
-5.0138
  0
LINE
  8
LAYER_4
 10
6.182
 20
-5.0138
 11
6.8137
 21
-5.0138
  0
LINE
  8
LAYER_4
 10
6.8137
 20
-5.0138
 11
6.9642
 21
-4.8888
  0
ARC
  8
LAYER_4
 10
6.9801
 20
-4.9094
 40
0.026
 50
41.96477006
 51
127.6463721
  0
ARC
  8
LAYER_4
 10
6.9788
 20
-4.9079
 40
0.026
 50
311.9316753
 51
37.67946685
  0
LINE
  8
LAYER_4
 10
6.9962
 20
-4.9272
 11
6.8387
 21
-5.058
  0
LINE
  8
LAYER_4
 10
6.8387
 20
-5.058
 11
6.8228
 21
-5.0638
  0
LINE
  8
LAYER_4
 10
3.0192
 20
-5.1892
 11
3
 21
-5.1802
  0
ARC
  8
LAYER_4
 10
3.0206
 20
-5.1643
 40
0.026
 50
131.96477
 51
217.6463722
  0
LINE
  8
LAYER_4
 10
3.0032
 20
-5.145
 11
3.1607
 21
-5.0142
  0
LINE
  8
LAYER_4
 10
3.1607
 20
-5.0142
 11
3.1766
 21
-5.0084
  0
LINE
  8
LAYER_4
 10
3.1766
 20
-5.0084
 11
3.8271
 21
-5.0084
  0
LINE
  8
LAYER_4
 10
3.8271
 20
-5.0084
 11
3.844
 21
-5.015
  0
LINE
  8
LAYER_4
 10
3.844
 20
-5.015
 11
3.9864
 21
-5.1458
  0
ARC
  8
LAYER_4
 10
3.968
 20
-5.1643
 40
0.026
 50
319.7027086
 51
45.16369352
  0
ARC
  8
LAYER_4
 10
3.9694
 20
-5.1629
 40
0.026
 50
229.4405903
 51
315.4120813
  0
LINE
  8
LAYER_4
 10
3.9525
 20
-5.1826
 11
3.8174
 21
-5.0584
  0
LINE
  8
LAYER_4
 10
3.8174
 20
-5.0584
 11
3.1857
 21
-5.0584
  0
LINE
  8
LAYER_4
 10
3.1857
 20
-5.0584
 11
3.0352
 21
-5.1834
  0
LINE
  8
LAYER_4
 10
3.0352
 20
-5.1834
 11
3.0192
 21
-5.1892
  0
LINE
  8
LAYER_4
 10
1.0088
 20
-5.1892
 11
0.9895
 21
-5.1802
  0
ARC
  8
LAYER_4
 10
1.0102
 20
-5.1644
 40
0.026
 50
131.8420127
 51
217.4463372
  0
LINE
  8
LAYER_4
 10
0.9928
 20
-5.145
 11
1.1502
 21
-5.0142
  0
LINE
  8
LAYER_4
 10
1.1502
 20
-5.0142
 11
1.1662
 21
-5.0084
  0
LINE
  8
LAYER_4
 10
1.1662
 20
-5.0084
 11
1.8166
 21
-5.0084
  0
LINE
  8
LAYER_4
 10
1.8166
 20
-5.0084
 11
1.8335
 21
-5.015
  0
LINE
  8
LAYER_4
 10
1.8335
 20
-5.015
 11
1.9759
 21
-5.1458
  0
ARC
  8
LAYER_4
 10
1.9576
 20
-5.1643
 40
0.026
 50
319.5543574
 51
45.31204466
  0
ARC
  8
LAYER_4
 10
1.9589
 20
-5.163
 40
0.0259
 50
229.3443981
 51
315.522004
  0
LINE
  8
LAYER_4
 10
1.9421
 20
-5.1826
 11
1.8069
 21
-5.0584
  0
LINE
  8
LAYER_4
 10
1.8069
 20
-5.0584
 11
1.1752
 21
-5.0584
  0
LINE
  8
LAYER_4
 10
1.1752
 20
-5.0584
 11
1.0247
 21
-5.1834
  0
LINE
  8
LAYER_4
 10
1.0247
 20
-5.1834
 11
1.0088
 21
-5.1892
  0
LINE
  8
LAYER_4
 10
5.0297
 20
-5.1892
 11
5.0105
 21
-5.1802
  0
ARC
  8
LAYER_4
 10
5.0311
 20
-5.1643
 40
0.026
 50
131.96477
 51
217.6463722
  0
LINE
  8
LAYER_4
 10
5.0137
 20
-5.145
 11
5.1711
 21
-5.0142
  0
LINE
  8
LAYER_4
 10
5.1711
 20
-5.0142
 11
5.1871
 21
-5.0084
  0
LINE
  8
LAYER_4
 10
5.1871
 20
-5.0084
 11
5.8376
 21
-5.0084
  0
LINE
  8
LAYER_4
 10
5.8376
 20
-5.0084
 11
5.8545
 21
-5.015
  0
LINE
  8
LAYER_4
 10
5.8545
 20
-5.015
 11
5.9968
 21
-5.1458
  0
ARC
  8
LAYER_4
 10
5.9787
 20
-5.1643
 40
0.0259
 50
319.3443981
 51
45.52200401
  0
ARC
  8
LAYER_4
 10
5.9798
 20
-5.163
 40
0.0259
 50
229.3632816
 51
315.5031206
  0
LINE
  8
LAYER_4
 10
5.963
 20
-5.1826
 11
5.8278
 21
-5.0584
  0
LINE
  8
LAYER_4
 10
5.8278
 20
-5.0584
 11
5.1961
 21
-5.0584
  0
LINE
  8
LAYER_4
 10
5.1961
 20
-5.0584
 11
5.0457
 21
-5.1834
  0
LINE
  8
LAYER_4
 10
5.0457
 20
-5.1834
 11
5.0297
 21
-5.1892
  0
LINE
  8
LAYER_4
 10
2.7968
 20
-6.016
 11
2.1464
 21
-6.016
  0
LINE
  8
LAYER_4
 10
2.1464
 20
-6.016
 11
2.1261
 21
-6.0081
  0
LINE
  8
LAYER_4
 10
2.1261
 20
-6.0081
 11
1.9837
 21
-5.8773
  0
ARC
  8
LAYER_4
 10
2.0055
 20
-5.8552
 40
0.0311
 50
139.4990778
 51
225.3742187
  0
ARC
  8
LAYER_4
 10
2.0041
 20
-5.8567
 40
0.031
 50
49.27717846
 51
135.5846382
  0
LINE
  8
LAYER_4
 10
2.0243
 20
-5.8332
 11
2.1581
 21
-5.956
  0
LINE
  8
LAYER_4
 10
2.1581
 20
-5.956
 11
2.786
 21
-5.956
  0
LINE
  8
LAYER_4
 10
2.786
 20
-5.956
 11
2.9351
 21
-5.8322
  0
ARC
  8
LAYER_4
 10
2.9541
 20
-5.8568
 40
0.0311
 50
41.7073212
 51
127.7324601
  0
ARC
  8
LAYER_4
 10
2.9526
 20
-5.8551
 40
0.0312
 50
311.8649707
 51
37.57481059
  0
LINE
  8
LAYER_4
 10
2.9734
 20
-5.8783
 11
2.816
 21
-6.0091
  0
LINE
  8
LAYER_4
 10
2.816
 20
-6.0091
 11
2.7968
 21
-6.016
  0
LINE
  8
LAYER_4
 10
4.8173
 20
-6.016
 11
4.1668
 21
-6.016
  0
LINE
  8
LAYER_4
 10
4.1668
 20
-6.016
 11
4.1465
 21
-6.0081
  0
LINE
  8
LAYER_4
 10
4.1465
 20
-6.0081
 11
4.0042
 21
-5.8773
  0
ARC
  8
LAYER_4
 10
4.026
 20
-5.8552
 40
0.0311
 50
139.4990778
 51
225.3742187
  0
ARC
  8
LAYER_4
 10
4.0246
 20
-5.8567
 40
0.031
 50
49.27717846
 51
135.5846382
  0
LINE
  8
LAYER_4
 10
4.0448
 20
-5.8332
 11
4.1785
 21
-5.956
  0
LINE
  8
LAYER_4
 10
4.1785
 20
-5.956
 11
4.8064
 21
-5.956
  0
LINE
  8
LAYER_4
 10
4.8064
 20
-5.956
 11
4.9555
 21
-5.8322
  0
ARC
  8
LAYER_4
 10
4.9745
 20
-5.857
 40
0.0313
 50
41.93891063
 51
127.5256951
  0
ARC
  8
LAYER_4
 10
4.9731
 20
-5.8551
 40
0.0312
 50
311.8649707
 51
37.57481059
  0
LINE
  8
LAYER_4
 10
4.9939
 20
-5.8783
 11
4.8365
 21
-6.0091
  0
LINE
  8
LAYER_4
 10
4.8365
 20
-6.0091
 11
4.8173
 21
-6.016
  0
LINE
  8
LAYER_4
 10
6.8488
 20
-6.016
 11
6.1984
 21
-6.016
  0
LINE
  8
LAYER_4
 10
6.1984
 20
-6.016
 11
6.1781
 21
-6.0081
  0
LINE
  8
LAYER_4
 10
6.1781
 20
-6.0081
 11
6.0357
 21
-5.8773
  0
ARC
  8
LAYER_4
 10
6.0575
 20
-5.8552
 40
0.0311
 50
139.4990778
 51
225.3742187
  0
ARC
  8
LAYER_4
 10
6.0561
 20
-5.8568
 40
0.0311
 50
49.41714484
 51
135.4446718
  0
LINE
  8
LAYER_4
 10
6.0763
 20
-5.8332
 11
6.2101
 21
-5.956
  0
LINE
  8
LAYER_4
 10
6.2101
 20
-5.956
 11
6.838
 21
-5.956
  0
LINE
  8
LAYER_4
 10
6.838
 20
-5.956
 11
6.9871
 21
-5.8322
  0
ARC
  8
LAYER_4
 10
7.0061
 20
-5.8569
 40
0.0312
 50
41.86497069
 51
127.5748106
  0
ARC
  8
LAYER_4
 10
7.0046
 20
-5.8551
 40
0.0312
 50
311.8649707
 51
37.57481059
  0
LINE
  8
LAYER_4
 10
7.0254
 20
-5.8783
 11
6.868
 21
-6.0091
  0
LINE
  8
LAYER_4
 10
6.868
 20
-6.0091
 11
6.8488
 21
-6.016
  0
ARC
  8
LAYER_4
 10
3.0144
 20
-6.1113
 40
0.0302
 50
219.6927939
 51
269.5934392
  0
ARC
  8
LAYER_4
 10
3.0158
 20
-6.1116
 40
0.0311
 50
131.7073212
 51
217.7324601
  0
LINE
  8
LAYER_4
 10
2.9951
 20
-6.0884
 11
3.1525
 21
-5.9576
  0
LINE
  8
LAYER_4
 10
3.1525
 20
-5.9576
 11
3.1716
 21
-5.9507
  0
LINE
  8
LAYER_4
 10
3.1716
 20
-5.9507
 11
3.8221
 21
-5.9507
  0
LINE
  8
LAYER_4
 10
3.8221
 20
-5.9507
 11
3.8424
 21
-5.9586
  0
LINE
  8
LAYER_4
 10
3.8424
 20
-5.9586
 11
3.9848
 21
-6.0894
  0
ARC
  8
LAYER_4
 10
3.963
 20
-6.1115
 40
0.0311
 50
319.4990778
 51
45.37421868
  0
ARC
  8
LAYER_4
 10
3.9644
 20
-6.1099
 40
0.0311
 50
229.4358297
 51
315.425987
  0
LINE
  8
LAYER_4
 10
3.9442
 20
-6.1335
 11
3.8104
 21
-6.0107
  0
LINE
  8
LAYER_4
 10
3.8104
 20
-6.0107
 11
3.1825
 21
-6.0107
  0
LINE
  8
LAYER_4
 10
3.1825
 20
-6.0107
 11
3.0334
 21
-6.1345
  0
LINE
  8
LAYER_4
 10
3.0334
 20
-6.1345
 11
3.0142
 21
-6.1415
  0
ARC
  8
LAYER_4
 10
0.9939
 20
-6.1113
 40
0.0302
 50
219.7216531
 51
269.7567086
  0
ARC
  8
LAYER_4
 10
0.9954
 20
-6.1116
 40
0.0312
 50
131.8649707
 51
217.5748106
  0
LINE
  8
LAYER_4
 10
0.9746
 20
-6.0884
 11
1.132
 21
-5.9576
  0
LINE
  8
LAYER_4
 10
1.132
 20
-5.9576
 11
1.1512
 21
-5.9507
  0
LINE
  8
LAYER_4
 10
1.1512
 20
-5.9507
 11
1.8016
 21
-5.9507
  0
LINE
  8
LAYER_4
 10
1.8016
 20
-5.9507
 11
1.8219
 21
-5.9586
  0
LINE
  8
LAYER_4
 10
1.8219
 20
-5.9586
 11
1.9643
 21
-6.0894
  0
ARC
  8
LAYER_4
 10
1.9425
 20
-6.1115
 40
0.0311
 50
319.4990778
 51
45.37421868
  0
ARC
  8
LAYER_4
 10
1.9439
 20
-6.1097
 40
0.0312
 50
229.5761352
 51
315.2856815
  0
LINE
  8
LAYER_4
 10
1.9237
 20
-6.1335
 11
1.7899
 21
-6.0107
  0
LINE
  8
LAYER_4
 10
1.7899
 20
-6.0107
 11
1.162
 21
-6.0107
  0
LINE
  8
LAYER_4
 10
1.162
 20
-6.0107
 11
1.0129
 21
-6.1345
  0
LINE
  8
LAYER_4
 10
1.0129
 20
-6.1345
 11
0.9938
 21
-6.1415
  0
ARC
  8
LAYER_4
 10
5.0459
 20
-6.1113
 40
0.0302
 50
219.7216531
 51
269.7567086
  0
ARC
  8
LAYER_4
 10
5.0473
 20
-6.1116
 40
0.0311
 50
131.7073212
 51
217.7324601
  0
LINE
  8
LAYER_4
 10
5.0266
 20
-6.0884
 11
5.184
 21
-5.9576
  0
LINE
  8
LAYER_4
 10
5.184
 20
-5.9576
 11
5.2032
 21
-5.9507
  0
LINE
  8
LAYER_4
 10
5.2032
 20
-5.9507
 11
5.8536
 21
-5.9507
  0
LINE
  8
LAYER_4
 10
5.8536
 20
-5.9507
 11
5.8739
 21
-5.9586
  0
LINE
  8
LAYER_4
 10
5.8739
 20
-5.9586
 11
6.0163
 21
-6.0894
  0
ARC
  8
LAYER_4
 10
5.9945
 20
-6.1115
 40
0.0311
 50
319.4990778
 51
45.37421868
  0
ARC
  8
LAYER_4
 10
5.9959
 20
-6.1097
 40
0.0312
 50
229.5761352
 51
315.2856815
  0
LINE
  8
LAYER_4
 10
5.9757
 20
-6.1335
 11
5.8419
 21
-6.0107
  0
LINE
  8
LAYER_4
 10
5.8419
 20
-6.0107
 11
5.214
 21
-6.0107
  0
LINE
  8
LAYER_4
 10
5.214
 20
-6.0107
 11
5.0649
 21
-6.1345
  0
LINE
  8
LAYER_4
 10
5.0649
 20
-6.1345
 11
5.0458
 21
-6.1415
  0
LINE
  8
LAYER_4
 10
2.7832
 20
-6.9683
 11
2.1327
 21
-6.9683
  0
LINE
  8
LAYER_4
 10
2.1327
 20
-6.9683
 11
2.109
 21
-6.9591
  0
LINE
  8
LAYER_4
 10
2.109
 20
-6.9591
 11
1.9667
 21
-6.8283
  0
ARC
  8
LAYER_4
 10
1.9922
 20
-6.8024
 40
0.0363
 50
139.4666446
 51
225.3919021
  0
ARC
  8
LAYER_4
 10
1.9904
 20
-6.8043
 40
0.0363
 50
49.53774008
 51
135.3306298
  0
LINE
  8
LAYER_4
 10
2.014
 20
-6.7767
 11
2.1463
 21
-6.8983
  0
LINE
  8
LAYER_4
 10
2.1463
 20
-6.8983
 11
2.7705
 21
-6.8983
  0
LINE
  8
LAYER_4
 10
2.7705
 20
-6.8983
 11
2.9182
 21
-6.7756
  0
ARC
  8
LAYER_4
 10
2.9404
 20
-6.8044
 40
0.0364
 50
41.93684527
 51
127.6323834
  0
ARC
  8
LAYER_4
 10
2.9386
 20
-6.8023
 40
0.0364
 50
311.8199354
 51
37.5188192
  0
LINE
  8
LAYER_4
 10
2.9629
 20
-6.8294
 11
2.8055
 21
-6.9602
  0
LINE
  8
LAYER_4
 10
2.8055
 20
-6.9602
 11
2.7832
 21
-6.9683
  0
LINE
  8
LAYER_4
 10
4.8236
 20
-6.9683
 11
4.1732
 21
-6.9683
  0
LINE
  8
LAYER_4
 10
4.1732
 20
-6.9683
 11
4.1495
 21
-6.9591
  0
LINE
  8
LAYER_4
 10
4.1495
 20
-6.9591
 11
4.0071
 21
-6.8283
  0
ARC
  8
LAYER_4
 10
4.0329
 20
-6.8024
 40
0.0365
 50
139.7230026
 51
225.135544
  0
ARC
  8
LAYER_4
 10
4.0309
 20
-6.8045
 40
0.0364
 50
49.60355964
 51
135.254987
  0
LINE
  8
LAYER_4
 10
4.0545
 20
-6.7767
 11
4.1868
 21
-6.8983
  0
LINE
  8
LAYER_4
 10
4.1868
 20
-6.8983
 11
4.811
 21
-6.8983
  0
LINE
  8
LAYER_4
 10
4.811
 20
-6.8983
 11
4.9587
 21
-6.7756
  0
ARC
  8
LAYER_4
 10
4.9809
 20
-6.8044
 40
0.0364
 50
41.9511038
 51
127.6181249
  0
ARC
  8
LAYER_4
 10
4.9791
 20
-6.8023
 40
0.0364
 50
311.8199354
 51
37.5188192
  0
LINE
  8
LAYER_4
 10
5.0034
 20
-6.8294
 11
4.846
 21
-6.9602
  0
LINE
  8
LAYER_4
 10
4.846
 20
-6.9602
 11
4.8236
 21
-6.9683
  0
LINE
  8
LAYER_4
 10
6.8641
 20
-6.9683
 11
6.2136
 21
-6.9683
  0
LINE
  8
LAYER_4
 10
6.2136
 20
-6.9683
 11
6.19
 21
-6.9591
  0
LINE
  8
LAYER_4
 10
6.19
 20
-6.9591
 11
6.0476
 21
-6.8283
  0
ARC
  8
LAYER_4
 10
6.0732
 20
-6.8024
 40
0.0364
 50
139.5967016
 51
225.261845
  0
ARC
  8
LAYER_4
 10
6.0714
 20
-6.8044
 40
0.0364
 50
49.59670167
 51
135.261845
  0
LINE
  8
LAYER_4
 10
6.095
 20
-6.7767
 11
6.2273
 21
-6.8983
  0
LINE
  8
LAYER_4
 10
6.2273
 20
-6.8983
 11
6.8515
 21
-6.8983
  0
LINE
  8
LAYER_4
 10
6.8515
 20
-6.8983
 11
6.9992
 21
-6.7756
  0
ARC
  8
LAYER_4
 10
7.0214
 20
-6.8043
 40
0.0363
 50
41.85978
 51
127.6883652
  0
ARC
  8
LAYER_4
 10
7.0197
 20
-6.8023
 40
0.0363
 50
311.8008857
 51
37.76834296
  0
LINE
  8
LAYER_4
 10
7.0439
 20
-6.8294
 11
6.8865
 21
-6.9602
  0
LINE
  8
LAYER_4
 10
6.8865
 20
-6.9602
 11
6.8641
 21
-6.9683
  0
ARC
  8
LAYER_4
 10
3.0108
 20
-7.0583
 40
0.0354
 50
220.0658871
 51
269.7371899
  0
ARC
  8
LAYER_4
 10
3.0124
 20
-7.0589
 40
0.0363
 50
131.8008857
 51
217.768343
  0
LINE
  8
LAYER_4
 10
2.9882
 20
-7.0318
 11
3.1456
 21
-6.901
  0
LINE
  8
LAYER_4
 10
3.1456
 20
-6.901
 11
3.168
 21
-6.8929
  0
LINE
  8
LAYER_4
 10
3.168
 20
-6.8929
 11
3.8185
 21
-6.8929
  0
LINE
  8
LAYER_4
 10
3.8185
 20
-6.8929
 11
3.8421
 21
-6.9021
  0
LINE
  8
LAYER_4
 10
3.8421
 20
-6.9021
 11
3.9845
 21
-7.0329
  0
ARC
  8
LAYER_4
 10
3.9589
 20
-7.0588
 40
0.0364
 50
319.5967017
 51
45.26184496
  0
ARC
  8
LAYER_4
 10
3.9607
 20
-7.0568
 40
0.0364
 50
229.5967017
 51
315.261845
  0
LINE
  8
LAYER_4
 10
3.9371
 20
-7.0845
 11
3.8048
 21
-6.9629
  0
LINE
  8
LAYER_4
 10
3.8048
 20
-6.9629
 11
3.1806
 21
-6.9629
  0
LINE
  8
LAYER_4
 10
3.1806
 20
-6.9629
 11
3.0329
 21
-7.0856
  0
LINE
  8
LAYER_4
 10
3.0329
 20
-7.0856
 11
3.0106
 21
-7.0937
  0
ARC
  8
LAYER_4
 10
0.9703
 20
-7.0583
 40
0.0354
 50
220.1076307
 51
269.6954462
  0
ARC
  8
LAYER_4
 10
0.972
 20
-7.0589
 40
0.0364
 50
131.926727
 51
217.6425016
  0
LINE
  8
LAYER_4
 10
0.9477
 20
-7.0318
 11
1.1051
 21
-6.901
  0
LINE
  8
LAYER_4
 10
1.1051
 20
-6.901
 11
1.1275
 21
-6.8929
  0
LINE
  8
LAYER_4
 10
1.1275
 20
-6.8929
 11
1.778
 21
-6.8929
  0
LINE
  8
LAYER_4
 10
1.778
 20
-6.8929
 11
1.8017
 21
-6.9021
  0
LINE
  8
LAYER_4
 10
1.8017
 20
-6.9021
 11
1.944
 21
-7.0329
  0
ARC
  8
LAYER_4
 10
1.9185
 20
-7.0588
 40
0.0363
 50
319.4666446
 51
45.39190205
  0
ARC
  8
LAYER_4
 10
1.9203
 20
-7.0569
 40
0.0363
 50
229.5377401
 51
315.3306299
  0
LINE
  8
LAYER_4
 10
1.8967
 20
-7.0845
 11
1.7643
 21
-6.9629
  0
LINE
  8
LAYER_4
 10
1.7643
 20
-6.9629
 11
1.1402
 21
-6.9629
  0
LINE
  8
LAYER_4
 10
1.1402
 20
-6.9629
 11
0.9925
 21
-7.0856
  0
LINE
  8
LAYER_4
 10
0.9925
 20
-7.0856
 11
0.9701
 21
-7.0937
  0
ARC
  8
LAYER_4
 10
5.0514
 20
-7.0579
 40
0.0358
 50
220.4261291
 51
269.5400839
  0
ARC
  8
LAYER_4
 10
5.053
 20
-7.0589
 40
0.0364
 50
131.8199354
 51
217.5188192
  0
LINE
  8
LAYER_4
 10
5.0287
 20
-7.0318
 11
5.1861
 21
-6.901
  0
LINE
  8
LAYER_4
 10
5.1861
 20
-6.901
 11
5.2085
 21
-6.8929
  0
LINE
  8
LAYER_4
 10
5.2085
 20
-6.8929
 11
5.8589
 21
-6.8929
  0
LINE
  8
LAYER_4
 10
5.8589
 20
-6.8929
 11
5.8826
 21
-6.9021
  0
LINE
  8
LAYER_4
 10
5.8826
 20
-6.9021
 11
6.025
 21
-7.0329
  0
ARC
  8
LAYER_4
 10
5.9992
 20
-7.0588
 40
0.0365
 50
319.7230027
 51
45.13554399
  0
ARC
  8
LAYER_4
 10
6.0012
 20
-7.0568
 40
0.0364
 50
229.5967017
 51
315.261845
  0
LINE
  8
LAYER_4
 10
5.9776
 20
-7.0845
 11
5.8453
 21
-6.9629
  0
LINE
  8
LAYER_4
 10
5.8453
 20
-6.9629
 11
5.2211
 21
-6.9629
  0
LINE
  8
LAYER_4
 10
5.2211
 20
-6.9629
 11
5.0734
 21
-7.0856
  0
LINE
  8
LAYER_4
 10
5.0734
 20
-7.0856
 11
5.0511
 21
-7.0937
  0
LINE
  8
LAYER_5
 10
2.8947
 20
-2.2048
 11
2.2442
 21
-2.2048
  0
LINE
  8
LAYER_5
 10
2.2442
 20
-2.2048
 11
2.2408
 21
-2.2034
  0
LINE
  8
LAYER_5
 10
2.2408
 20
-2.2034
 11
2.0985
 21
-2.0727
  0
LINE
  8
LAYER_5
 10
2.0985
 20
-2.0727
 11
2.0982
 21
-2.0656
  0
LINE
  8
LAYER_5
 10
2.0982
 20
-2.0656
 11
2.1053
 21
-2.0653
  0
LINE
  8
LAYER_5
 10
2.1053
 20
-2.0653
 11
2.2462
 21
-2.1948
  0
LINE
  8
LAYER_5
 10
2.2462
 20
-2.1948
 11
2.8929
 21
-2.1948
  0
LINE
  8
LAYER_5
 10
2.8929
 20
-2.1948
 11
3.0489
 21
-2.0651
  0
LINE
  8
LAYER_5
 10
3.0489
 20
-2.0651
 11
3.0559
 21
-2.0658
  0
LINE
  8
LAYER_5
 10
3.0559
 20
-2.0658
 11
3.0553
 21
-2.0728
  0
LINE
  8
LAYER_5
 10
3.0553
 20
-2.0728
 11
2.8979
 21
-2.2036
  0
LINE
  8
LAYER_5
 10
2.8979
 20
-2.2036
 11
2.8947
 21
-2.2048
  0
LINE
  8
LAYER_5
 10
4.7891
 20
-2.2048
 11
4.1387
 21
-2.2048
  0
LINE
  8
LAYER_5
 10
4.1387
 20
-2.2048
 11
4.1353
 21
-2.2034
  0
LINE
  8
LAYER_5
 10
4.1353
 20
-2.2034
 11
3.9929
 21
-2.0727
  0
LINE
  8
LAYER_5
 10
3.9929
 20
-2.0727
 11
3.9926
 21
-2.0656
  0
LINE
  8
LAYER_5
 10
3.9926
 20
-2.0656
 11
3.9997
 21
-2.0653
  0
LINE
  8
LAYER_5
 10
3.9997
 20
-2.0653
 11
4.1406
 21
-2.1948
  0
LINE
  8
LAYER_5
 10
4.1406
 20
-2.1948
 11
4.7873
 21
-2.1948
  0
LINE
  8
LAYER_5
 10
4.7873
 20
-2.1948
 11
4.9434
 21
-2.0651
  0
LINE
  8
LAYER_5
 10
4.9434
 20
-2.0651
 11
4.9504
 21
-2.0658
  0
LINE
  8
LAYER_5
 10
4.9504
 20
-2.0658
 11
4.9498
 21
-2.0728
  0
LINE
  8
LAYER_5
 10
4.9498
 20
-2.0728
 11
4.7923
 21
-2.2036
  0
LINE
  8
LAYER_5
 10
4.7923
 20
-2.2036
 11
4.7891
 21
-2.2048
  0
LINE
  8
LAYER_5
 10
6.6866
 20
-2.2048
 11
6.0361
 21
-2.2048
  0
LINE
  8
LAYER_5
 10
6.0361
 20
-2.2048
 11
6.0328
 21
-2.2034
  0
LINE
  8
LAYER_5
 10
6.0328
 20
-2.2034
 11
5.8904
 21
-2.0727
  0
LINE
  8
LAYER_5
 10
5.8904
 20
-2.0727
 11
5.8901
 21
-2.0656
  0
LINE
  8
LAYER_5
 10
5.8901
 20
-2.0656
 11
5.8972
 21
-2.0653
  0
LINE
  8
LAYER_5
 10
5.8972
 20
-2.0653
 11
6.0381
 21
-2.1948
  0
LINE
  8
LAYER_5
 10
6.0381
 20
-2.1948
 11
6.6848
 21
-2.1948
  0
LINE
  8
LAYER_5
 10
6.6848
 20
-2.1948
 11
6.8408
 21
-2.0651
  0
LINE
  8
LAYER_5
 10
6.8408
 20
-2.0651
 11
6.8479
 21
-2.0658
  0
LINE
  8
LAYER_5
 10
6.8479
 20
-2.0658
 11
6.8472
 21
-2.0728
  0
LINE
  8
LAYER_5
 10
6.8472
 20
-2.0728
 11
6.6898
 21
-2.2036
  0
LINE
  8
LAYER_5
 10
6.6898
 20
-2.2036
 11
6.6866
 21
-2.2048
  0
LINE
  8
LAYER_5
 10
3.0491
 20
-2.3302
 11
3.0452
 21
-2.3284
  0
LINE
  8
LAYER_5
 10
3.0452
 20
-2.3284
 11
3.0459
 21
-2.3213
  0
LINE
  8
LAYER_5
 10
3.0459
 20
-2.3213
 11
3.2033
 21
-2.1905
  0
LINE
  8
LAYER_5
 10
3.2033
 20
-2.1905
 11
3.2065
 21
-2.1894
  0
LINE
  8
LAYER_5
 10
3.2065
 20
-2.1894
 11
3.857
 21
-2.1894
  0
LINE
  8
LAYER_5
 10
3.857
 20
-2.1894
 11
3.8604
 21
-2.1907
  0
LINE
  8
LAYER_5
 10
3.8604
 20
-2.1907
 11
4.0027
 21
-2.3215
  0
LINE
  8
LAYER_5
 10
4.0027
 20
-2.3215
 11
4.003
 21
-2.3286
  0
LINE
  8
LAYER_5
 10
4.003
 20
-2.3286
 11
3.9959
 21
-2.3289
  0
LINE
  8
LAYER_5
 10
3.9959
 20
-2.3289
 11
3.855
 21
-2.1994
  0
LINE
  8
LAYER_5
 10
3.855
 20
-2.1994
 11
3.2083
 21
-2.1994
  0
LINE
  8
LAYER_5
 10
3.2083
 20
-2.1994
 11
3.0523
 21
-2.329
  0
LINE
  8
LAYER_5
 10
3.0523
 20
-2.329
 11
3.0491
 21
-2.3302
  0
LINE
  8
LAYER_5
 10
1.1421
 20
-2.3302
 11
1.1382
 21
-2.3284
  0
LINE
  8
LAYER_5
 10
1.1382
 20
-2.3284
 11
1.1389
 21
-2.3213
  0
LINE
  8
LAYER_5
 10
1.1389
 20
-2.3213
 11
1.2963
 21
-2.1905
  0
LINE
  8
LAYER_5
 10
1.2963
 20
-2.1905
 11
1.2995
 21
-2.1894
  0
LINE
  8
LAYER_5
 10
1.2995
 20
-2.1894
 11
1.95
 21
-2.1894
  0
LINE
  8
LAYER_5
 10
1.95
 20
-2.1894
 11
1.9533
 21
-2.1907
  0
LINE
  8
LAYER_5
 10
1.9533
 20
-2.1907
 11
2.0957
 21
-2.3215
  0
LINE
  8
LAYER_5
 10
2.0957
 20
-2.3215
 11
2.096
 21
-2.3286
  0
LINE
  8
LAYER_5
 10
2.096
 20
-2.3286
 11
2.0889
 21
-2.3289
  0
LINE
  8
LAYER_5
 10
2.0889
 20
-2.3289
 11
1.948
 21
-2.1994
  0
LINE
  8
LAYER_5
 10
1.948
 20
-2.1994
 11
1.3013
 21
-2.1994
  0
LINE
  8
LAYER_5
 10
1.3013
 20
-2.1994
 11
1.1453
 21
-2.329
  0
LINE
  8
LAYER_5
 10
1.1453
 20
-2.329
 11
1.1421
 21
-2.3302
  0
LINE
  8
LAYER_5
 10
4.9435
 20
-2.3302
 11
4.9397
 21
-2.3284
  0
LINE
  8
LAYER_5
 10
4.9397
 20
-2.3284
 11
4.9403
 21
-2.3213
  0
LINE
  8
LAYER_5
 10
4.9403
 20
-2.3213
 11
5.0978
 21
-2.1905
  0
LINE
  8
LAYER_5
 10
5.0978
 20
-2.1905
 11
5.101
 21
-2.1894
  0
LINE
  8
LAYER_5
 10
5.101
 20
-2.1894
 11
5.7514
 21
-2.1894
  0
LINE
  8
LAYER_5
 10
5.7514
 20
-2.1894
 11
5.7548
 21
-2.1907
  0
LINE
  8
LAYER_5
 10
5.7548
 20
-2.1907
 11
5.8972
 21
-2.3215
  0
LINE
  8
LAYER_5
 10
5.8972
 20
-2.3215
 11
5.8975
 21
-2.3286
  0
LINE
  8
LAYER_5
 10
5.8975
 20
-2.3286
 11
5.8904
 21
-2.3289
  0
LINE
  8
LAYER_5
 10
5.8904
 20
-2.3289
 11
5.7495
 21
-2.1994
  0
LINE
  8
LAYER_5
 10
5.7495
 20
-2.1994
 11
5.1028
 21
-2.1994
  0
LINE
  8
LAYER_5
 10
5.1028
 20
-2.1994
 11
4.9468
 21
-2.329
  0
LINE
  8
LAYER_5
 10
4.9468
 20
-2.329
 11
4.9435
 21
-2.3302
  0
LINE
  8
LAYER_5
 10
2.8391
 20
-3.157
 11
2.1887
 21
-3.157
  0
LINE
  8
LAYER_5
 10
2.1887
 20
-3.157
 11
2.1819
 21
-3.1544
  0
LINE
  8
LAYER_5
 10
2.1819
 20
-3.1544
 11
2.0395
 21
-3.0236
  0
ARC
  8
LAYER_5
 10
2.047
 20
-3.0162
 40
0.0105
 50
139.972911
 51
224.8661074
  0
ARC
  8
LAYER_5
 10
2.0463
 20
-3.0169
 40
0.0105
 50
49.97291105
 51
134.8661074
  0
LINE
  8
LAYER_5
 10
2.0531
 20
-3.0088
 11
2.1926
 21
-3.137
  0
LINE
  8
LAYER_5
 10
2.1926
 20
-3.137
 11
2.8355
 21
-3.137
  0
LINE
  8
LAYER_5
 10
2.8355
 20
-3.137
 11
2.9902
 21
-3.0085
  0
ARC
  8
LAYER_5
 10
2.9965
 20
-3.0167
 40
0.0103
 50
41.90023538
 51
127.4895454
  0
ARC
  8
LAYER_5
 10
2.9961
 20
-3.0162
 40
0.0103
 50
311.2934763
 51
38.17112947
  0
LINE
  8
LAYER_5
 10
3.0029
 20
-3.0239
 11
2.8455
 21
-3.1547
  0
LINE
  8
LAYER_5
 10
2.8455
 20
-3.1547
 11
2.8391
 21
-3.157
  0
LINE
  8
LAYER_5
 10
4.782
 20
-3.157
 11
4.1315
 21
-3.157
  0
LINE
  8
LAYER_5
 10
4.1315
 20
-3.157
 11
4.1248
 21
-3.1544
  0
LINE
  8
LAYER_5
 10
4.1248
 20
-3.1544
 11
3.9824
 21
-3.0236
  0
ARC
  8
LAYER_5
 10
3.9899
 20
-3.0162
 40
0.0105
 50
139.9429322
 51
224.8960862
  0
ARC
  8
LAYER_5
 10
3.9892
 20
-3.0167
 40
0.0103
 50
49.41545345
 51
135.457843
  0
LINE
  8
LAYER_5
 10
3.9959
 20
-3.0088
 11
4.1354
 21
-3.137
  0
LINE
  8
LAYER_5
 10
4.1354
 20
-3.137
 11
4.7784
 21
-3.137
  0
LINE
  8
LAYER_5
 10
4.7784
 20
-3.137
 11
4.933
 21
-3.0085
  0
ARC
  8
LAYER_5
 10
4.9393
 20
-3.0168
 40
0.0104
 50
41.91603079
 51
127.5485749
  0
ARC
  8
LAYER_5
 10
4.9388
 20
-3.0161
 40
0.0104
 50
311.9160308
 51
37.54857494
  0
LINE
  8
LAYER_5
 10
4.9458
 20
-3.0239
 11
4.7884
 21
-3.1547
  0
LINE
  8
LAYER_5
 10
4.7884
 20
-3.1547
 11
4.782
 21
-3.157
  0
LINE
  8
LAYER_5
 10
6.7244
 20
-3.157
 11
6.074
 21
-3.157
  0
LINE
  8
LAYER_5
 10
6.074
 20
-3.157
 11
6.0672
 21
-3.1544
  0
LINE
  8
LAYER_5
 10
6.0672
 20
-3.1544
 11
5.9249
 21
-3.0236
  0
ARC
  8
LAYER_5
 10
5.9322
 20
-3.0162
 40
0.0104
 50
139.2732029
 51
225.5658155
  0
ARC
  8
LAYER_5
 10
5.9317
 20
-3.0168
 40
0.0104
 50
49.96041703
 51
134.9128794
  0
LINE
  8
LAYER_5
 10
5.9384
 20
-3.0088
 11
6.0779
 21
-3.137
  0
LINE
  8
LAYER_5
 10
6.0779
 20
-3.137
 11
6.7208
 21
-3.137
  0
LINE
  8
LAYER_5
 10
6.7208
 20
-3.137
 11
6.8755
 21
-3.0085
  0
ARC
  8
LAYER_5
 10
6.8818
 20
-3.0167
 40
0.0103
 50
41.90023538
 51
127.4895454
  0
ARC
  8
LAYER_5
 10
6.8814
 20
-3.0162
 40
0.0103
 50
311.2934763
 51
38.17112947
  0
LINE
  8
LAYER_5
 10
6.8882
 20
-3.0239
 11
6.7308
 21
-3.1547
  0
LINE
  8
LAYER_5
 10
6.7308
 20
-3.1547
 11
6.7244
 21
-3.157
  0
LINE
  8
LAYER_5
 10
3.0193
 20
-3.2824
 11
3.0116
 21
-3.2788
  0
ARC
  8
LAYER_5
 10
3.0197
 20
-3.2724
 40
0.0103
 50
131.2934762
 51
218.1711295
  0
LINE
  8
LAYER_5
 10
3.0129
 20
-3.2647
 11
3.1703
 21
-3.1339
  0
LINE
  8
LAYER_5
 10
3.1703
 20
-3.1339
 11
3.1767
 21
-3.1316
  0
LINE
  8
LAYER_5
 10
3.1767
 20
-3.1316
 11
3.8271
 21
-3.1316
  0
LINE
  8
LAYER_5
 10
3.8271
 20
-3.1316
 11
3.8339
 21
-3.1343
  0
LINE
  8
LAYER_5
 10
3.8339
 20
-3.1343
 11
3.9763
 21
-3.265
  0
ARC
  8
LAYER_5
 10
3.9688
 20
-3.2724
 40
0.0105
 50
319.9729111
 51
44.86610737
  0
ARC
  8
LAYER_5
 10
3.9695
 20
-3.2717
 40
0.0105
 50
229.9729111
 51
314.8661074
  0
LINE
  8
LAYER_5
 10
3.9627
 20
-3.2798
 11
3.8232
 21
-3.1516
  0
LINE
  8
LAYER_5
 10
3.8232
 20
-3.1516
 11
3.1803
 21
-3.1516
  0
LINE
  8
LAYER_5
 10
3.1803
 20
-3.1516
 11
3.0256
 21
-3.2801
  0
LINE
  8
LAYER_5
 10
3.0256
 20
-3.2801
 11
3.0193
 21
-3.2824
  0
LINE
  8
LAYER_5
 10
1.0727
 20
-3.2824
 11
1.065
 21
-3.2788
  0
ARC
  8
LAYER_5
 10
1.0731
 20
-3.2724
 40
0.0103
 50
131.2934762
 51
218.1711295
  0
LINE
  8
LAYER_5
 10
1.0663
 20
-3.2647
 11
1.2237
 21
-3.1339
  0
LINE
  8
LAYER_5
 10
1.2237
 20
-3.1339
 11
1.2301
 21
-3.1316
  0
LINE
  8
LAYER_5
 10
1.2301
 20
-3.1316
 11
1.8805
 21
-3.1316
  0
LINE
  8
LAYER_5
 10
1.8805
 20
-3.1316
 11
1.8873
 21
-3.1343
  0
LINE
  8
LAYER_5
 10
1.8873
 20
-3.1343
 11
2.0296
 21
-3.265
  0
ARC
  8
LAYER_5
 10
2.0223
 20
-3.2724
 40
0.0104
 50
319.2732029
 51
45.5658155
  0
ARC
  8
LAYER_5
 10
2.0228
 20
-3.2718
 40
0.0104
 50
229.9604171
 51
314.9128795
  0
LINE
  8
LAYER_5
 10
2.0161
 20
-3.2798
 11
1.8766
 21
-3.1516
  0
LINE
  8
LAYER_5
 10
1.8766
 20
-3.1516
 11
1.2337
 21
-3.1516
  0
LINE
  8
LAYER_5
 10
1.2337
 20
-3.1516
 11
1.079
 21
-3.2801
  0
LINE
  8
LAYER_5
 10
1.079
 20
-3.2801
 11
1.0727
 21
-3.2824
  0
LINE
  8
LAYER_5
 10
4.9614
 20
-3.2824
 11
4.9537
 21
-3.2788
  0
ARC
  8
LAYER_5
 10
4.962
 20
-3.2725
 40
0.0104
 50
131.9160308
 51
217.548575
  0
LINE
  8
LAYER_5
 10
4.955
 20
-3.2647
 11
5.1124
 21
-3.1339
  0
LINE
  8
LAYER_5
 10
5.1124
 20
-3.1339
 11
5.1188
 21
-3.1316
  0
LINE
  8
LAYER_5
 10
5.1188
 20
-3.1316
 11
5.7693
 21
-3.1316
  0
LINE
  8
LAYER_5
 10
5.7693
 20
-3.1316
 11
5.776
 21
-3.1343
  0
LINE
  8
LAYER_5
 10
5.776
 20
-3.1343
 11
5.9184
 21
-3.265
  0
ARC
  8
LAYER_5
 10
5.9109
 20
-3.2724
 40
0.0105
 50
319.9429323
 51
44.89608614
  0
ARC
  8
LAYER_5
 10
5.9116
 20
-3.2719
 40
0.0103
 50
229.4154535
 51
315.457843
  0
LINE
  8
LAYER_5
 10
5.9049
 20
-3.2798
 11
5.7654
 21
-3.1516
  0
LINE
  8
LAYER_5
 10
5.7654
 20
-3.1516
 11
5.1224
 21
-3.1516
  0
LINE
  8
LAYER_5
 10
5.1224
 20
-3.1516
 11
4.9678
 21
-3.2801
  0
LINE
  8
LAYER_5
 10
4.9678
 20
-3.2801
 11
4.9614
 21
-3.2824
  0
LINE
  8
LAYER_5
 10
2.8318
 20
-4.1092
 11
2.1814
 21
-4.1092
  0
LINE
  8
LAYER_5
 10
2.1814
 20
-4.1092
 11
2.1712
 21
-4.1053
  0
LINE
  8
LAYER_5
 10
2.1712
 20
-4.1053
 11
2.0288
 21
-3.9745
  0
ARC
  8
LAYER_5
 10
2.0398
 20
-3.9634
 40
0.0156
 50
139.5327408
 51
225.3290759
  0
ARC
  8
LAYER_5
 10
2.039
 20
-3.9643
 40
0.0156
 50
49.53274083
 51
135.3290758
  0
LINE
  8
LAYER_5
 10
2.0491
 20
-3.9524
 11
2.1872
 21
-4.0792
  0
LINE
  8
LAYER_5
 10
2.1872
 20
-4.0792
 11
2.8264
 21
-4.0792
  0
LINE
  8
LAYER_5
 10
2.8264
 20
-4.0792
 11
2.9796
 21
-3.9519
  0
ARC
  8
LAYER_5
 10
2.9891
 20
-3.9643
 40
0.0156
 50
41.71474518
 51
127.5066313
  0
ARC
  8
LAYER_5
 10
2.9885
 20
-3.9634
 40
0.0156
 50
311.6549149
 51
37.51568097
  0
LINE
  8
LAYER_5
 10
2.9988
 20
-3.975
 11
2.8414
 21
-4.1058
  0
LINE
  8
LAYER_5
 10
2.8414
 20
-4.1058
 11
2.8318
 21
-4.1092
  0
LINE
  8
LAYER_5
 10
4.7923
 20
-4.1092
 11
4.1418
 21
-4.1092
  0
LINE
  8
LAYER_5
 10
4.1418
 20
-4.1092
 11
4.1317
 21
-4.1053
  0
LINE
  8
LAYER_5
 10
4.1317
 20
-4.1053
 11
3.9893
 21
-3.9745
  0
ARC
  8
LAYER_5
 10
4.0003
 20
-3.9634
 40
0.0156
 50
139.5327408
 51
225.3290759
  0
ARC
  8
LAYER_5
 10
3.9995
 20
-3.9643
 40
0.0156
 50
49.53274083
 51
135.3290758
  0
LINE
  8
LAYER_5
 10
4.0096
 20
-3.9524
 11
4.1477
 21
-4.0792
  0
LINE
  8
LAYER_5
 10
4.1477
 20
-4.0792
 11
4.7869
 21
-4.0792
  0
LINE
  8
LAYER_5
 10
4.7869
 20
-4.0792
 11
4.9401
 21
-3.9519
  0
ARC
  8
LAYER_5
 10
4.9496
 20
-3.9642
 40
0.0155
 50
41.58714357
 51
127.5834523
  0
ARC
  8
LAYER_5
 10
4.949
 20
-3.9634
 40
0.0155
 50
311.7666854
 51
37.94239823
  0
LINE
  8
LAYER_5
 10
4.9593
 20
-3.975
 11
4.8019
 21
-4.1058
  0
LINE
  8
LAYER_5
 10
4.8019
 20
-4.1058
 11
4.7923
 21
-4.1092
  0
LINE
  8
LAYER_5
 10
6.7528
 20
-4.1092
 11
6.1023
 21
-4.1092
  0
LINE
  8
LAYER_5
 10
6.1023
 20
-4.1092
 11
6.0922
 21
-4.1053
  0
LINE
  8
LAYER_5
 10
6.0922
 20
-4.1053
 11
5.9498
 21
-3.9745
  0
ARC
  8
LAYER_5
 10
5.9608
 20
-3.9634
 40
0.0156
 50
139.5327408
 51
225.3290759
  0
ARC
  8
LAYER_5
 10
5.96
 20
-3.9643
 40
0.0156
 50
49.53274083
 51
135.3290758
  0
LINE
  8
LAYER_5
 10
5.9701
 20
-3.9524
 11
6.1081
 21
-4.0792
  0
LINE
  8
LAYER_5
 10
6.1081
 20
-4.0792
 11
6.7473
 21
-4.0792
  0
LINE
  8
LAYER_5
 10
6.7473
 20
-4.0792
 11
6.9006
 21
-3.9519
  0
ARC
  8
LAYER_5
 10
6.9101
 20
-3.9642
 40
0.0155
 50
41.58714357
 51
127.5834523
  0
ARC
  8
LAYER_5
 10
6.9093
 20
-3.9634
 40
0.0156
 50
312.1701055
 51
37.53897814
  0
LINE
  8
LAYER_5
 10
6.9198
 20
-3.975
 11
6.7623
 21
-4.1058
  0
LINE
  8
LAYER_5
 10
6.7623
 20
-4.1058
 11
6.7528
 21
-4.1092
  0
LINE
  8
LAYER_5
 10
3.0192
 20
-4.2346
 11
3.0077
 21
-4.2292
  0
ARC
  8
LAYER_5
 10
3.0201
 20
-4.2197
 40
0.0156
 50
132.1701055
 51
217.5389782
  0
LINE
  8
LAYER_5
 10
3.0096
 20
-4.2081
 11
3.167
 21
-4.0773
  0
LINE
  8
LAYER_5
 10
3.167
 20
-4.0773
 11
3.1766
 21
-4.0739
  0
LINE
  8
LAYER_5
 10
3.1766
 20
-4.0739
 11
3.8271
 21
-4.0739
  0
LINE
  8
LAYER_5
 10
3.8271
 20
-4.0739
 11
3.8372
 21
-4.0778
  0
LINE
  8
LAYER_5
 10
3.8372
 20
-4.0778
 11
3.9796
 21
-4.2086
  0
ARC
  8
LAYER_5
 10
3.9686
 20
-4.2197
 40
0.0156
 50
319.5327408
 51
45.32907583
  0
ARC
  8
LAYER_5
 10
3.9694
 20
-4.2188
 40
0.0156
 50
229.5327409
 51
315.3290758
  0
LINE
  8
LAYER_5
 10
3.9593
 20
-4.2307
 11
3.8212
 21
-4.1039
  0
LINE
  8
LAYER_5
 10
3.8212
 20
-4.1039
 11
3.182
 21
-4.1039
  0
LINE
  8
LAYER_5
 10
3.182
 20
-4.1039
 11
3.0288
 21
-4.2312
  0
LINE
  8
LAYER_5
 10
3.0288
 20
-4.2312
 11
3.0192
 21
-4.2346
  0
LINE
  8
LAYER_5
 10
1.0588
 20
-4.2346
 11
1.0472
 21
-4.2292
  0
ARC
  8
LAYER_5
 10
1.0595
 20
-4.2197
 40
0.0156
 50
131.6549148
 51
217.515681
  0
LINE
  8
LAYER_5
 10
1.0492
 20
-4.2081
 11
1.2066
 21
-4.0773
  0
LINE
  8
LAYER_5
 10
1.2066
 20
-4.0773
 11
1.2162
 21
-4.0739
  0
LINE
  8
LAYER_5
 10
1.2162
 20
-4.0739
 11
1.8666
 21
-4.0739
  0
LINE
  8
LAYER_5
 10
1.8666
 20
-4.0739
 11
1.8768
 21
-4.0778
  0
LINE
  8
LAYER_5
 10
1.8768
 20
-4.0778
 11
2.0191
 21
-4.2086
  0
ARC
  8
LAYER_5
 10
2.0081
 20
-4.2197
 40
0.0156
 50
319.5327408
 51
45.32907583
  0
ARC
  8
LAYER_5
 10
2.0089
 20
-4.2188
 40
0.0156
 50
229.5327409
 51
315.3290758
  0
LINE
  8
LAYER_5
 10
1.9988
 20
-4.2307
 11
1.8608
 21
-4.1039
  0
LINE
  8
LAYER_5
 10
1.8608
 20
-4.1039
 11
1.2216
 21
-4.1039
  0
LINE
  8
LAYER_5
 10
1.2216
 20
-4.1039
 11
1.0683
 21
-4.2312
  0
LINE
  8
LAYER_5
 10
1.0683
 20
-4.2312
 11
1.0588
 21
-4.2346
  0
LINE
  8
LAYER_5
 10
4.9797
 20
-4.2346
 11
4.9682
 21
-4.2292
  0
ARC
  8
LAYER_5
 10
4.9804
 20
-4.2197
 40
0.0155
 50
131.7666854
 51
217.9423983
  0
LINE
  8
LAYER_5
 10
4.9701
 20
-4.2081
 11
5.1275
 21
-4.0773
  0
LINE
  8
LAYER_5
 10
5.1275
 20
-4.0773
 11
5.1371
 21
-4.0739
  0
LINE
  8
LAYER_5
 10
5.1371
 20
-4.0739
 11
5.7876
 21
-4.0739
  0
LINE
  8
LAYER_5
 10
5.7876
 20
-4.0739
 11
5.7977
 21
-4.0778
  0
LINE
  8
LAYER_5
 10
5.7977
 20
-4.0778
 11
5.9401
 21
-4.2086
  0
ARC
  8
LAYER_5
 10
5.9291
 20
-4.2197
 40
0.0156
 50
319.5327408
 51
45.32907583
  0
ARC
  8
LAYER_5
 10
5.9299
 20
-4.2189
 40
0.0155
 50
229.3063772
 51
315.5554395
  0
LINE
  8
LAYER_5
 10
5.9198
 20
-4.2307
 11
5.7817
 21
-4.1039
  0
LINE
  8
LAYER_5
 10
5.7817
 20
-4.1039
 11
5.1425
 21
-4.1039
  0
LINE
  8
LAYER_5
 10
5.1425
 20
-4.1039
 11
4.9893
 21
-4.2312
  0
LINE
  8
LAYER_5
 10
4.9893
 20
-4.2312
 11
4.9797
 21
-4.2346
  0
LINE
  8
LAYER_5
 10
2.814
 20
-5.0615
 11
2.1636
 21
-5.0615
  0
LINE
  8
LAYER_5
 10
2.1636
 20
-5.0615
 11
2.15
 21
-5.0562
  0
LINE
  8
LAYER_5
 10
2.15
 20
-5.0562
 11
2.0077
 21
-4.9254
  0
ARC
  8
LAYER_5
 10
2.0224
 20
-4.9106
 40
0.0208
 50
139.5751555
 51
225.2809415
  0
ARC
  8
LAYER_5
 10
2.0212
 20
-4.9118
 40
0.0208
 50
49.70133184
 51
135.1719646
  0
LINE
  8
LAYER_5
 10
2.0347
 20
-4.8959
 11
2.1714
 21
-5.0215
  0
LINE
  8
LAYER_5
 10
2.1714
 20
-5.0215
 11
2.8068
 21
-5.0215
  0
LINE
  8
LAYER_5
 10
2.8068
 20
-5.0215
 11
2.9587
 21
-4.8953
  0
ARC
  8
LAYER_5
 10
2.9714
 20
-4.9116
 40
0.0207
 50
41.61489003
 51
127.8124352
  0
ARC
  8
LAYER_5
 10
2.9703
 20
-4.9106
 40
0.0208
 50
311.8348005
 51
37.62980526
  0
LINE
  8
LAYER_5
 10
2.9842
 20
-4.9261
 11
2.8268
 21
-5.0568
  0
LINE
  8
LAYER_5
 10
2.8268
 20
-5.0568
 11
2.814
 21
-5.0615
  0
LINE
  8
LAYER_5
 10
4.7995
 20
-5.0615
 11
4.149
 21
-5.0615
  0
LINE
  8
LAYER_5
 10
4.149
 20
-5.0615
 11
4.1355
 21
-5.0562
  0
LINE
  8
LAYER_5
 10
4.1355
 20
-5.0562
 11
3.9932
 21
-4.9254
  0
ARC
  8
LAYER_5
 10
4.0078
 20
-4.9106
 40
0.0208
 50
139.4259279
 51
225.4301691
  0
ARC
  8
LAYER_5
 10
4.0068
 20
-4.9118
 40
0.0208
 50
49.73399652
 51
135.1393
  0
LINE
  8
LAYER_5
 10
4.0202
 20
-4.8959
 11
4.1568
 21
-5.0215
  0
LINE
  8
LAYER_5
 10
4.1568
 20
-5.0215
 11
4.7923
 21
-5.0215
  0
LINE
  8
LAYER_5
 10
4.7923
 20
-5.0215
 11
4.9441
 21
-4.8953
  0
ARC
  8
LAYER_5
 10
4.9568
 20
-4.9118
 40
0.0208
 50
41.83480047
 51
127.6298052
  0
ARC
  8
LAYER_5
 10
4.9558
 20
-4.9106
 40
0.0208
 50
311.8348005
 51
37.62980526
  0
LINE
  8
LAYER_5
 10
4.9697
 20
-4.9261
 11
4.8123
 21
-5.0568
  0
LINE
  8
LAYER_5
 10
4.8123
 20
-5.0568
 11
4.7995
 21
-5.0615
  0
LINE
  8
LAYER_5
 10
6.78
 20
-5.0615
 11
6.1295
 21
-5.0615
  0
LINE
  8
LAYER_5
 10
6.1295
 20
-5.0615
 11
6.116
 21
-5.0562
  0
LINE
  8
LAYER_5
 10
6.116
 20
-5.0562
 11
5.9736
 21
-4.9254
  0
ARC
  8
LAYER_5
 10
5.9884
 20
-4.9106
 40
0.0209
 50
139.8665725
 51
224.9895245
  0
ARC
  8
LAYER_5
 10
5.9872
 20
-4.9119
 40
0.0209
 50
49.86657251
 51
134.9895245
  0
LINE
  8
LAYER_5
 10
6.0007
 20
-4.8959
 11
6.1373
 21
-5.0215
  0
LINE
  8
LAYER_5
 10
6.1373
 20
-5.0215
 11
6.7728
 21
-5.0215
  0
LINE
  8
LAYER_5
 10
6.7728
 20
-5.0215
 11
6.9246
 21
-4.8953
  0
ARC
  8
LAYER_5
 10
6.9373
 20
-4.9118
 40
0.0208
 50
41.83480047
 51
127.6298052
  0
ARC
  8
LAYER_5
 10
6.9362
 20
-4.9106
 40
0.0209
 50
311.9778831
 51
37.48672263
  0
LINE
  8
LAYER_5
 10
6.9502
 20
-4.9261
 11
6.7928
 21
-5.0568
  0
LINE
  8
LAYER_5
 10
6.7928
 20
-5.0568
 11
6.78
 21
-5.0615
  0
LINE
  8
LAYER_5
 10
3.0165
 20
-5.1869
 11
3.0011
 21
-5.1796
  0
ARC
  8
LAYER_5
 10
3.0174
 20
-5.1669
 40
0.0207
 50
131.6655601
 51
217.7617652
  0
LINE
  8
LAYER_5
 10
3.0037
 20
-5.1515
 11
3.1611
 21
-5.0207
  0
LINE
  8
LAYER_5
 10
3.1611
 20
-5.0207
 11
3.1739
 21
-5.0161
  0
LINE
  8
LAYER_5
 10
3.1739
 20
-5.0161
 11
3.8243
 21
-5.0161
  0
LINE
  8
LAYER_5
 10
3.8243
 20
-5.0161
 11
3.8378
 21
-5.0214
  0
LINE
  8
LAYER_5
 10
3.8378
 20
-5.0214
 11
3.9802
 21
-5.1521
  0
ARC
  8
LAYER_5
 10
3.9656
 20
-5.1669
 40
0.0208
 50
319.5190322
 51
45.3370648
  0
ARC
  8
LAYER_5
 10
3.9667
 20
-5.1659
 40
0.0207
 50
229.4439524
 51
315.4293441
  0
LINE
  8
LAYER_5
 10
3.9532
 20
-5.1816
 11
3.8165
 21
-5.0561
  0
LINE
  8
LAYER_5
 10
3.8165
 20
-5.0561
 11
3.1811
 21
-5.0561
  0
LINE
  8
LAYER_5
 10
3.1811
 20
-5.0561
 11
3.0292
 21
-5.1823
  0
LINE
  8
LAYER_5
 10
3.0292
 20
-5.1823
 11
3.0165
 21
-5.1869
  0
LINE
  8
LAYER_5
 10
1.031
 20
-5.1869
 11
1.0156
 21
-5.1796
  0
ARC
  8
LAYER_5
 10
1.0319
 20
-5.1669
 40
0.0207
 50
131.6655601
 51
217.7617652
  0
LINE
  8
LAYER_5
 10
1.0182
 20
-5.1515
 11
1.1756
 21
-5.0207
  0
LINE
  8
LAYER_5
 10
1.1756
 20
-5.0207
 11
1.1884
 21
-5.0161
  0
LINE
  8
LAYER_5
 10
1.1884
 20
-5.0161
 11
1.8389
 21
-5.0161
  0
LINE
  8
LAYER_5
 10
1.8389
 20
-5.0161
 11
1.8524
 21
-5.0214
  0
LINE
  8
LAYER_5
 10
1.8524
 20
-5.0214
 11
1.9947
 21
-5.1521
  0
ARC
  8
LAYER_5
 10
1.9802
 20
-5.1669
 40
0.0207
 50
319.3678355
 51
45.48826148
  0
ARC
  8
LAYER_5
 10
1.9812
 20
-5.1659
 40
0.0207
 50
229.4439524
 51
315.4293441
  0
LINE
  8
LAYER_5
 10
1.9677
 20
-5.1816
 11
1.8311
 21
-5.0561
  0
LINE
  8
LAYER_5
 10
1.8311
 20
-5.0561
 11
1.1956
 21
-5.0561
  0
LINE
  8
LAYER_5
 10
1.1956
 20
-5.0561
 11
1.0438
 21
-5.1823
  0
LINE
  8
LAYER_5
 10
1.0438
 20
-5.1823
 11
1.031
 21
-5.1869
  0
LINE
  8
LAYER_5
 10
4.9969
 20
-5.1869
 11
4.9815
 21
-5.1796
  0
ARC
  8
LAYER_5
 10
4.9979
 20
-5.1669
 40
0.0207
 50
131.8117418
 51
217.6155834
  0
LINE
  8
LAYER_5
 10
4.9841
 20
-5.1515
 11
5.1416
 21
-5.0207
  0
LINE
  8
LAYER_5
 10
5.1416
 20
-5.0207
 11
5.1543
 21
-5.0161
  0
LINE
  8
LAYER_5
 10
5.1543
 20
-5.0161
 11
5.8048
 21
-5.0161
  0
LINE
  8
LAYER_5
 10
5.8048
 20
-5.0161
 11
5.8183
 21
-5.0214
  0
LINE
  8
LAYER_5
 10
5.8183
 20
-5.0214
 11
5.9607
 21
-5.1521
  0
ARC
  8
LAYER_5
 10
5.9461
 20
-5.1669
 40
0.0208
 50
319.5190322
 51
45.3370648
  0
ARC
  8
LAYER_5
 10
5.9471
 20
-5.1657
 40
0.0208
 50
229.5751555
 51
315.2809415
  0
LINE
  8
LAYER_5
 10
5.9336
 20
-5.1816
 11
5.797
 21
-5.0561
  0
LINE
  8
LAYER_5
 10
5.797
 20
-5.0561
 11
5.1616
 21
-5.0561
  0
LINE
  8
LAYER_5
 10
5.1616
 20
-5.0561
 11
5.0097
 21
-5.1823
  0
LINE
  8
LAYER_5
 10
5.0097
 20
-5.1823
 11
4.9969
 21
-5.1869
  0
LINE
  8
LAYER_5
 10
2.7957
 20
-6.0137
 11
2.1452
 21
-6.0137
  0
LINE
  8
LAYER_5
 10
2.1452
 20
-6.0137
 11
2.1283
 21
-6.0071
  0
LINE
  8
LAYER_5
 10
2.1283
 20
-6.0071
 11
1.9859
 21
-5.8763
  0
ARC
  8
LAYER_5
 10
2.0043
 20
-5.8578
 40
0.026
 50
139.7214681
 51
225.144934
  0
ARC
  8
LAYER_5
 10
2.0029
 20
-5.8592
 40
0.026
 50
49.44059032
 51
135.4120813
  0
LINE
  8
LAYER_5
 10
2.0198
 20
-5.8395
 11
2.1549
 21
-5.9637
  0
LINE
  8
LAYER_5
 10
2.1549
 20
-5.9637
 11
2.7866
 21
-5.9637
  0
LINE
  8
LAYER_5
 10
2.7866
 20
-5.9637
 11
2.9371
 21
-5.8387
  0
ARC
  8
LAYER_5
 10
2.953
 20
-5.8592
 40
0.0259
 50
41.81964555
 51
127.7914966
  0
ARC
  8
LAYER_5
 10
2.9517
 20
-5.8578
 40
0.026
 50
311.9316753
 51
37.67946685
  0
LINE
  8
LAYER_5
 10
2.9691
 20
-5.8771
 11
2.8116
 21
-6.0079
  0
LINE
  8
LAYER_5
 10
2.8116
 20
-6.0079
 11
2.7957
 21
-6.0137
  0
LINE
  8
LAYER_5
 10
4.8011
 20
-6.0137
 11
4.1507
 21
-6.0137
  0
LINE
  8
LAYER_5
 10
4.1507
 20
-6.0137
 11
4.1338
 21
-6.0071
  0
LINE
  8
LAYER_5
 10
4.1338
 20
-6.0071
 11
3.9914
 21
-5.8763
  0
ARC
  8
LAYER_5
 10
4.0097
 20
-5.8578
 40
0.026
 50
139.5729144
 51
225.2934877
  0
ARC
  8
LAYER_5
 10
4.0084
 20
-5.8591
 40
0.0259
 50
49.34439808
 51
135.522004
  0
LINE
  8
LAYER_5
 10
4.0252
 20
-5.8395
 11
4.1604
 21
-5.9637
  0
LINE
  8
LAYER_5
 10
4.1604
 20
-5.9637
 11
4.7921
 21
-5.9637
  0
LINE
  8
LAYER_5
 10
4.7921
 20
-5.9637
 11
4.9426
 21
-5.8387
  0
ARC
  8
LAYER_5
 10
4.9585
 20
-5.8592
 40
0.0259
 50
41.81964555
 51
127.7914966
  0
ARC
  8
LAYER_5
 10
4.9572
 20
-5.8577
 40
0.026
 50
311.8086402
 51
37.47970973
  0
LINE
  8
LAYER_5
 10
4.9745
 20
-5.8771
 11
4.8171
 21
-6.0079
  0
LINE
  8
LAYER_5
 10
4.8171
 20
-6.0079
 11
4.8011
 21
-6.0137
  0
LINE
  8
LAYER_5
 10
6.8116
 20
-6.0137
 11
6.1611
 21
-6.0137
  0
LINE
  8
LAYER_5
 10
6.1611
 20
-6.0137
 11
6.1442
 21
-6.0071
  0
LINE
  8
LAYER_5
 10
6.1442
 20
-6.0071
 11
6.0019
 21
-5.8763
  0
ARC
  8
LAYER_5
 10
6.02
 20
-5.8578
 40
0.0259
 50
139.3632815
 51
225.5031206
  0
ARC
  8
LAYER_5
 10
6.0189
 20
-5.8593
 40
0.026
 50
49.57291439
 51
135.2934877
  0
LINE
  8
LAYER_5
 10
6.0357
 20
-5.8395
 11
6.1709
 21
-5.9637
  0
LINE
  8
LAYER_5
 10
6.1709
 20
-5.9637
 11
6.8026
 21
-5.9637
  0
LINE
  8
LAYER_5
 10
6.8026
 20
-5.9637
 11
6.953
 21
-5.8387
  0
ARC
  8
LAYER_5
 10
6.9689
 20
-5.8593
 40
0.026
 50
41.94089343
 51
127.6995186
  0
ARC
  8
LAYER_5
 10
6.9677
 20
-5.8577
 40
0.026
 50
311.8086402
 51
37.47970973
  0
LINE
  8
LAYER_5
 10
6.985
 20
-5.8771
 11
6.8276
 21
-6.0079
  0
LINE
  8
LAYER_5
 10
6.8276
 20
-6.0079
 11
6.8116
 21
-6.0137
  0
LINE
  8
LAYER_5
 10
3.0081
 20
-6.1391
 11
2.9888
 21
-6.1301
  0
ARC
  8
LAYER_5
 10
3.0095
 20
-6.1143
 40
0.026
 50
131.8420127
 51
217.4463372
  0
LINE
  8
LAYER_5
 10
2.9921
 20
-6.0949
 11
3.1495
 21
-5.9641
  0
LINE
  8
LAYER_5
 10
3.1495
 20
-5.9641
 11
3.1655
 21
-5.9583
  0
LINE
  8
LAYER_5
 10
3.1655
 20
-5.9583
 11
3.8159
 21
-5.9583
  0
LINE
  8
LAYER_5
 10
3.8159
 20
-5.9583
 11
3.8329
 21
-5.9649
  0
LINE
  8
LAYER_5
 10
3.8329
 20
-5.9649
 11
3.9752
 21
-6.0957
  0
ARC
  8
LAYER_5
 10
3.9571
 20
-6.1142
 40
0.0259
 50
319.3632816
 51
45.50312055
  0
ARC
  8
LAYER_5
 10
3.9582
 20
-6.1129
 40
0.0259
 50
229.3632816
 51
315.5031206
  0
LINE
  8
LAYER_5
 10
3.9414
 20
-6.1325
 11
3.8062
 21
-6.0083
  0
LINE
  8
LAYER_5
 10
3.8062
 20
-6.0083
 11
3.1745
 21
-6.0083
  0
LINE
  8
LAYER_5
 10
3.1745
 20
-6.0083
 11
3.0241
 21
-6.1333
  0
LINE
  8
LAYER_5
 10
3.0241
 20
-6.1333
 11
3.0081
 21
-6.1391
  0
LINE
  8
LAYER_5
 10
1.0065
 20
-6.148
 11
0.9873
 21
-6.139
  0
ARC
  8
LAYER_5
 10
1.0079
 20
-6.1231
 40
0.026
 50
131.9408934
 51
217.6995187
  0
LINE
  8
LAYER_5
 10
0.9905
 20
-6.1037
 11
1.1479
 21
-5.9729
  0
LINE
  8
LAYER_5
 10
1.1479
 20
-5.9729
 11
1.1639
 21
-5.9672
  0
LINE
  8
LAYER_5
 10
1.1639
 20
-5.9672
 11
1.8144
 21
-5.9672
  0
LINE
  8
LAYER_5
 10
1.8144
 20
-5.9672
 11
1.8313
 21
-5.9738
  0
LINE
  8
LAYER_5
 10
1.8313
 20
-5.9738
 11
1.9736
 21
-6.1046
  0
ARC
  8
LAYER_5
 10
1.9555
 20
-6.1231
 40
0.0259
 50
319.3632816
 51
45.50312055
  0
ARC
  8
LAYER_5
 10
1.9566
 20
-6.1218
 40
0.0259
 50
229.3632816
 51
315.5031206
  0
LINE
  8
LAYER_5
 10
1.9398
 20
-6.1414
 11
1.8046
 21
-6.0172
  0
LINE
  8
LAYER_5
 10
1.8046
 20
-6.0172
 11
1.1729
 21
-6.0172
  0
LINE
  8
LAYER_5
 10
1.1729
 20
-6.0172
 11
1.0225
 21
-6.1422
  0
LINE
  8
LAYER_5
 10
1.0225
 20
-6.1422
 11
1.0065
 21
-6.148
  0
LINE
  8
LAYER_5
 10
5.0136
 20
-6.1391
 11
4.9943
 21
-6.1301
  0
ARC
  8
LAYER_5
 10
5.015
 20
-6.1143
 40
0.026
 50
131.8420127
 51
217.4463372
  0
LINE
  8
LAYER_5
 10
4.9976
 20
-6.0949
 11
5.155
 21
-5.9641
  0
LINE
  8
LAYER_5
 10
5.155
 20
-5.9641
 11
5.171
 21
-5.9583
  0
LINE
  8
LAYER_5
 10
5.171
 20
-5.9583
 11
5.8214
 21
-5.9583
  0
LINE
  8
LAYER_5
 10
5.8214
 20
-5.9583
 11
5.8383
 21
-5.9649
  0
LINE
  8
LAYER_5
 10
5.8383
 20
-5.9649
 11
5.9807
 21
-6.0957
  0
ARC
  8
LAYER_5
 10
5.9624
 20
-6.1142
 40
0.026
 50
319.5729144
 51
45.2934877
  0
ARC
  8
LAYER_5
 10
5.9637
 20
-6.1129
 40
0.0259
 50
229.3443981
 51
315.522004
  0
LINE
  8
LAYER_5
 10
5.9469
 20
-6.1325
 11
5.8117
 21
-6.0083
  0
LINE
  8
LAYER_5
 10
5.8117
 20
-6.0083
 11
5.18
 21
-6.0083
  0
LINE
  8
LAYER_5
 10
5.18
 20
-6.0083
 11
5.0295
 21
-6.1333
  0
LINE
  8
LAYER_5
 10
5.0295
 20
-6.1333
 11
5.0136
 21
-6.1391
  0
LINE
  8
LAYER_5
 10
2.8063
 20
-6.9659
 11
2.1558
 21
-6.9659
  0
LINE
  8
LAYER_5
 10
2.1558
 20
-6.9659
 11
2.1355
 21
-6.958
  0
LINE
  8
LAYER_5
 10
2.1355
 20
-6.958
 11
1.9931
 21
-6.8272
  0
ARC
  8
LAYER_5
 10
2.0149
 20
-6.8051
 40
0.0311
 50
139.4990778
 51
225.3742187
  0
ARC
  8
LAYER_5
 10
2.0135
 20
-6.8067
 40
0.0311
 50
49.41626711
 51
135.4455495
  0
LINE
  8
LAYER_5
 10
2.0337
 20
-6.7831
 11
2.1675
 21
-6.9059
  0
LINE
  8
LAYER_5
 10
2.1675
 20
-6.9059
 11
2.7954
 21
-6.9059
  0
LINE
  8
LAYER_5
 10
2.7954
 20
-6.9059
 11
2.9445
 21
-6.7821
  0
ARC
  8
LAYER_5
 10
2.9635
 20
-6.8067
 40
0.0311
 50
41.7073212
 51
127.7324601
  0
ARC
  8
LAYER_5
 10
2.9621
 20
-6.805
 40
0.0311
 50
311.7073212
 51
37.73246008
  0
LINE
  8
LAYER_5
 10
2.9828
 20
-6.8282
 11
2.8254
 21
-6.959
  0
LINE
  8
LAYER_5
 10
2.8254
 20
-6.959
 11
2.8063
 21
-6.9659
  0
LINE
  8
LAYER_5
 10
4.8267
 20
-6.9659
 11
4.1763
 21
-6.9659
  0
LINE
  8
LAYER_5
 10
4.1763
 20
-6.9659
 11
4.156
 21
-6.958
  0
LINE
  8
LAYER_5
 10
4.156
 20
-6.958
 11
4.0136
 21
-6.8272
  0
ARC
  8
LAYER_5
 10
4.0354
 20
-6.8051
 40
0.0311
 50
139.4990778
 51
225.3742187
  0
ARC
  8
LAYER_5
 10
4.034
 20
-6.8069
 40
0.0312
 50
49.57613519
 51
135.2856815
  0
LINE
  8
LAYER_5
 10
4.0542
 20
-6.7831
 11
4.188
 21
-6.9059
  0
LINE
  8
LAYER_5
 10
4.188
 20
-6.9059
 11
4.8159
 21
-6.9059
  0
LINE
  8
LAYER_5
 10
4.8159
 20
-6.9059
 11
4.965
 21
-6.7821
  0
ARC
  8
LAYER_5
 10
4.984
 20
-6.8067
 40
0.0311
 50
41.7073212
 51
127.7324601
  0
ARC
  8
LAYER_5
 10
4.9825
 20
-6.805
 40
0.0312
 50
311.8649707
 51
37.57481059
  0
LINE
  8
LAYER_5
 10
5.0033
 20
-6.8282
 11
4.8459
 21
-6.959
  0
LINE
  8
LAYER_5
 10
4.8459
 20
-6.959
 11
4.8267
 21
-6.9659
  0
LINE
  8
LAYER_5
 10
6.8472
 20
-6.9659
 11
6.1967
 21
-6.9659
  0
LINE
  8
LAYER_5
 10
6.1967
 20
-6.9659
 11
6.1764
 21
-6.958
  0
LINE
  8
LAYER_5
 10
6.1764
 20
-6.958
 11
6.0341
 21
-6.8272
  0
ARC
  8
LAYER_5
 10
6.0559
 20
-6.8051
 40
0.0311
 50
139.4990778
 51
225.3742187
  0
ARC
  8
LAYER_5
 10
6.0545
 20
-6.8067
 40
0.0311
 50
49.41714484
 51
135.4446718
  0
LINE
  8
LAYER_5
 10
6.0747
 20
-6.7831
 11
6.2084
 21
-6.9059
  0
LINE
  8
LAYER_5
 10
6.2084
 20
-6.9059
 11
6.8364
 21
-6.9059
  0
LINE
  8
LAYER_5
 10
6.8364
 20
-6.9059
 11
6.9854
 21
-6.7821
  0
ARC
  8
LAYER_5
 10
7.0045
 20
-6.8068
 40
0.0312
 50
41.78147211
 51
127.6831336
  0
ARC
  8
LAYER_5
 10
7.003
 20
-6.805
 40
0.0312
 50
311.8649707
 51
37.57481059
  0
LINE
  8
LAYER_5
 10
7.0238
 20
-6.8282
 11
6.8664
 21
-6.959
  0
LINE
  8
LAYER_5
 10
6.8664
 20
-6.959
 11
6.8472
 21
-6.9659
  0
ARC
  8
LAYER_5
 10
3.0236
 20
-7.0614
 40
0.0299
 50
219.7403177
 51
270.1444515
  0
ARC
  8
LAYER_5
 10
3.0253
 20
-7.0615
 40
0.0312
 50
131.8649707
 51
217.5748106
  0
LINE
  8
LAYER_5
 10
3.0045
 20
-7.0383
 11
3.1619
 21
-6.9075
  0
LINE
  8
LAYER_5
 10
3.1619
 20
-6.9075
 11
3.1811
 21
-6.9006
  0
LINE
  8
LAYER_5
 10
3.1811
 20
-6.9006
 11
3.8315
 21
-6.9006
  0
LINE
  8
LAYER_5
 10
3.8315
 20
-6.9006
 11
3.8518
 21
-6.9085
  0
LINE
  8
LAYER_5
 10
3.8518
 20
-6.9085
 11
3.9942
 21
-7.0393
  0
ARC
  8
LAYER_5
 10
3.9724
 20
-7.0614
 40
0.0311
 50
319.4990778
 51
45.37421868
  0
ARC
  8
LAYER_5
 10
3.9738
 20
-7.0598
 40
0.0311
 50
229.4358297
 51
315.425987
  0
LINE
  8
LAYER_5
 10
3.9536
 20
-7.0834
 11
3.8198
 21
-6.9606
  0
LINE
  8
LAYER_5
 10
3.8198
 20
-6.9606
 11
3.1919
 21
-6.9606
  0
LINE
  8
LAYER_5
 10
3.1919
 20
-6.9606
 11
3.0428
 21
-7.0844
  0
LINE
  8
LAYER_5
 10
3.0428
 20
-7.0844
 11
3.0237
 21
-7.0913
  0
ARC
  8
LAYER_5
 10
1.0033
 20
-7.0609
 40
0.0304
 50
220.1561953
 51
269.7285739
  0
ARC
  8
LAYER_5
 10
1.0048
 20
-7.0615
 40
0.0312
 50
131.8649707
 51
217.5748106
  0
LINE
  8
LAYER_5
 10
0.984
 20
-7.0383
 11
1.1414
 21
-6.9075
  0
LINE
  8
LAYER_5
 10
1.1414
 20
-6.9075
 11
1.1606
 21
-6.9006
  0
LINE
  8
LAYER_5
 10
1.1606
 20
-6.9006
 11
1.8111
 21
-6.9006
  0
LINE
  8
LAYER_5
 10
1.8111
 20
-6.9006
 11
1.8314
 21
-6.9085
  0
LINE
  8
LAYER_5
 10
1.8314
 20
-6.9085
 11
1.9737
 21
-7.0393
  0
ARC
  8
LAYER_5
 10
1.9519
 20
-7.0614
 40
0.0311
 50
319.4990778
 51
45.37421868
  0
ARC
  8
LAYER_5
 10
1.9533
 20
-7.0596
 40
0.0312
 50
229.5761352
 51
315.2856815
  0
LINE
  8
LAYER_5
 10
1.9331
 20
-7.0834
 11
1.7994
 21
-6.9606
  0
LINE
  8
LAYER_5
 10
1.7994
 20
-6.9606
 11
1.1714
 21
-6.9606
  0
LINE
  8
LAYER_5
 10
1.1714
 20
-6.9606
 11
1.0224
 21
-7.0844
  0
LINE
  8
LAYER_5
 10
1.0224
 20
-7.0844
 11
1.0032
 21
-7.0913
  0
ARC
  8
LAYER_5
 10
5.0441
 20
-7.0614
 40
0.0299
 50
219.7197489
 51
270.1650203
  0
ARC
  8
LAYER_5
 10
5.0457
 20
-7.0615
 40
0.0311
 50
131.7073212
 51
217.7324601
  0
LINE
  8
LAYER_5
 10
5.025
 20
-7.0383
 11
5.1824
 21
-6.9075
  0
LINE
  8
LAYER_5
 10
5.1824
 20
-6.9075
 11
5.2016
 21
-6.9006
  0
LINE
  8
LAYER_5
 10
5.2016
 20
-6.9006
 11
5.852
 21
-6.9006
  0
LINE
  8
LAYER_5
 10
5.852
 20
-6.9006
 11
5.8723
 21
-6.9085
  0
LINE
  8
LAYER_5
 10
5.8723
 20
-6.9085
 11
6.0147
 21
-7.0393
  0
ARC
  8
LAYER_5
 10
5.9929
 20
-7.0614
 40
0.0311
 50
319.4990778
 51
45.37421868
  0
ARC
  8
LAYER_5
 10
5.9943
 20
-7.0596
 40
0.0312
 50
229.5761352
 51
315.2856815
  0
LINE
  8
LAYER_5
 10
5.9741
 20
-7.0834
 11
5.8403
 21
-6.9606
  0
LINE
  8
LAYER_5
 10
5.8403
 20
-6.9606
 11
5.2124
 21
-6.9606
  0
LINE
  8
LAYER_5
 10
5.2124
 20
-6.9606
 11
5.0633
 21
-7.0844
  0
LINE
  8
LAYER_5
 10
5.0633
 20
-7.0844
 11
5.0442
 21
-7.0913
  0
INSERT
  8
LAYER_6
  2
AIGNBL06010002
 10
0
 20
0
 30
0
  0
INSERT
  8
LAYER_6
  2
AIGNBL06010003
 10
0
 20
0
 30
0
  0
INSERT
  8
LAYER_6
  2
AIGNBL06010004
 10
0
 20
0
 30
0
  0
INSERT
  8
LAYER_6
  2
AIGNBL06010005
 10
0
 20
0
 30
0
  0
INSERT
  8
LAYER_6
  2
AIGNBL06010006
 10
0
 20
0
 30
0
  0
INSERT
  8
LAYER_6
  2
AIGNBL06010007
 10
0
 20
0
 30
0
  0
ENDSEC
  0
EOF
